CommonSans-ExtraLight.ufo
<glyph name="numbersign" format="2">
	<unicode hex="0023"/>
	<advance width="579"/>
	<outline>
		<contour>
			<point x="348" y="420" type="line"/>
			<point x="243" y="420" type="line"/>
			<point x="208" y="252" type="line"/>
			<point x="311" y="252" type="line"/>
		</contour>
		<contour>
			<point x="65" y="0" type="line"/>
			<point name=".hr01" x="103" y="172" type="line"/>
			<point x="24" y="172" type="line"/>
			<point x="24" y="252" type="line"/>
			<point x="119" y="252" type="line"/>
			<point x="157" y="420" type="line"/>
			<point x="61" y="420" type="line"/>
			<point x="61" y="500" type="line"/>
			<point x="174" y="500" type="line"/>
			<point x="214" y="700" type="line"/>
			<point x="301" y="700" type="line"/>
			<point x="259" y="500" type="line"/>
			<point x="365" y="500" type="line"/>
			<point x="406" y="700" type="line"/>
			<point x="493" y="700" type="line"/>
			<point x="451" y="500" type="line"/>
			<point x="552" y="500" type="line"/>
			<point x="552" y="420" type="line"/>
			<point x="435" y="420" type="line"/>
			<point x="400" y="252" type="line"/>
			<point x="515" y="252" type="line"/>
			<point x="515" y="172" type="line"/>
			<point x="384" y="172" type="line"/>
			<point name=".hr02" x="348" y="0" type="line"/>
			<point x="257" y="0" type="line"/>
			<point name=".hr03" x="295" y="172" type="line"/>
			<point x="192" y="172" type="line"/>
			<point name=".hr04" x="156" y="0" type="line"/>
		</contour>
	</outline>
</glyph>
<glyph name="plus" format="2">
	<unicode hex="002B"/>
	<advance width="450"/>
	<outline>
		<contour>
			<point x="185" y="200" type="line"/>
			<point x="50" y="200" type="line"/>
			<point x="50" y="280" type="line"/>
			<point x="185" y="280" type="line"/>
			<point x="185" y="415" type="line"/>
			<point x="265" y="415" type="line"/>
			<point x="265" y="280" type="line"/>
			<point x="400" y="280" type="line"/>
			<point x="400" y="200" type="line"/>
			<point x="265" y="200" type="line"/>
			<point x="265" y="65" type="line"/>
			<point x="185" y="65" type="line"/>
		</contour>
	</outline>
</glyph>
<glyph name="period" format="2">
	<unicode hex="002E"/>
	<advance width="145"/>
	<outline>
		<contour>
			<point x="86.25" y="0" type="line"/>
			<point x="58.75" y="0" type="line"/>
			<point x="58.75" y="80" type="line"/>
			<point x="86.25" y="80" type="line"/>
		</contour>
	</outline>
</glyph>
<glyph name="A" format="2">
	<unicode hex="0041"/>
	<advance width="501"/>
	<outline>
		<contour>
			<point x="363" y="273.125" type="line"/>
			<point x="250.625" y="623.875" type="line"/>
			<point x="138.25" y="273.125" type="line"/>
		</contour>
		<contour>
			<point x="449.5" y="0" type="line"/>
			<point x="375.125" y="233.125" type="line"/>
			<point x="126.125" y="233.125" type="line"/>
			<point x="51.75" y="0" type="line"/>
			<point x="10" y="0" type="line"/>
			<point x="227.625" y="680" type="line"/>
			<point x="273.375" y="680" type="line"/>
			<point x="491.25" y="0" type="line"/>
		</contour>
	</outline>
	<anchor name="top" x="249" y="740"/>
</glyph>
<glyph name="B" format="2">
	<unicode hex="0042"/>
	<advance width="600"/>
	<outline>
		<contour>
			<point x="317.875" y="350.875" type="curve" smooth="yes"/>
			<point x="135.5" y="350.875" type="line"/>
			<point x="135.5" y="37.5" type="line"/>
			<point x="288.125" y="37.5" type="line" smooth="yes"/>
			<point x="428.625" y="37.5"/>
			<point x="478.125" y="92.75"/>
			<point x="478.125" y="192.75" type="curve" smooth="yes"/>
			<point x="478.125" y="291.125"/>
			<point x="439.25" y="350.875"/>
		</contour>
		<contour>
			<point x="299.5" y="642.5" type="curve" smooth="yes"/>
			<point x="135.5" y="642.5" type="line"/>
			<point x="135.5" y="388.375" type="line"/>
			<point x="317.875" y="388.375" type="line" smooth="yes"/>
			<point x="391.25" y="388.375"/>
			<point x="441.25" y="426.25"/>
			<point name=".hr01" x="441.25" y="504.125" type="curve" smooth="yes"/>
			<point x="441.25" y="592"/>
			<point x="402.625" y="642.5"/>
		</contour>
		<contour>
			<point x="288.125" y="0" type="curve" smooth="yes"/>
			<point x="93.75" y="0" type="line"/>
			<point x="93.75" y="680" type="line"/>
			<point x="299.5" y="680" type="line" smooth="yes"/>
			<point x="436.875" y="680"/>
			<point x="483" y="614.75"/>
			<point x="483" y="507.625" type="curve" smooth="yes"/>
			<point x="483" y="452.25"/>
			<point x="463.25" y="395.75"/>
			<point x="382.25" y="373.125" type="curve"/>
			<point x="460.25" y="359.125"/>
			<point x="519.875" y="308.625"/>
			<point x="519.875" y="191.25" type="curve" smooth="yes"/>
			<point name=".hr02" x="519.875" y="63.25"/>
			<point x="449.375" y="0"/>
		</contour>
	</outline>
	<anchor name="top" x="270.25" y="740"/>
</glyph>
<glyph name="C" format="2">
	<unicode hex="0043"/>
	<advance width="698"/>
	<outline>
		<contour>
			<point x="356.75" y="652.5" type="curve" smooth="yes"/>
			<point x="207.125" y="652.5"/>
			<point x="115.5" y="532.875"/>
			<point x="115.5" y="340" type="curve" smooth="yes"/>
			<point x="115.5" y="147.125"/>
			<point x="207.125" y="27.5"/>
			<point x="356.75" y="27.5" type="curve" smooth="yes"/>
			<point x="465.5" y="27.5"/>
			<point x="550" y="88.25"/>
			<point x="573.125" y="189" type="curve"/>
			<point x="610.625" y="189" type="line"/>
			<point x="585.25" y="71.375"/>
			<point x="490.625" y="-10"/>
			<point x="356.75" y="-10" type="curve" smooth="yes"/>
			<point x="183.25" y="-10"/>
			<point x="73.75" y="125.375"/>
			<point x="73.75" y="340" type="curve" smooth="yes"/>
			<point x="73.75" y="554.625"/>
			<point x="183.25" y="690"/>
			<point x="356.75" y="690" type="curve" smooth="yes"/>
			<point x="495.75" y="690"/>
			<point x="593.125" y="604.5"/>
			<point x="623.75" y="452.75" type="curve"/>
			<point x="586.25" y="452.75" type="line"/>
			<point x="557.75" y="578.125"/>
			<point x="473.875" y="652.5"/>
		</contour>
	</outline>
	<anchor name="top" x="357.75" y="740"/>
</glyph>
<glyph name="D" format="2">
	<unicode hex="0044"/>
	<advance width="631"/>
	<outline>
		<contour>
			<point x="135.5" y="642.5" type="line"/>
			<point x="135.5" y="37.5" type="line"/>
			<point x="290.5" y="37.5" type="line" smooth="yes"/>
			<point x="445" y="37.5"/>
			<point x="516.625" y="166.5"/>
			<point x="516.625" y="340" type="curve" smooth="yes"/>
			<point x="516.625" y="518"/>
			<point x="447" y="642.5"/>
			<point x="290.5" y="642.5" type="curve" smooth="yes"/>
		</contour>
		<contour>
			<point x="93.75" y="680" type="line"/>
			<point x="290.5" y="680" type="line" smooth="yes"/>
			<point x="480.5" y="680"/>
			<point x="557.5" y="537.75"/>
			<point x="557.5" y="340" type="curve" smooth="yes"/>
			<point x="557.5" y="141.875"/>
			<point x="480.625" y="0"/>
			<point x="290.5" y="0" type="curve" smooth="yes"/>
			<point x="93.75" y="0" type="line"/>
		</contour>
	</outline>
	<anchor name="top" x="265.25" y="740"/>
</glyph>
<glyph name="E" format="2">
	<unicode hex="0045"/>
	<advance width="510"/>
	<outline>
		<contour>
			<point x="420" y="331.25" type="line"/>
			<point x="135.5" y="331.25" type="line"/>
			<point x="135.5" y="36.25" type="line"/>
			<point x="460" y="36.25" type="line"/>
			<point x="460" y="0" type="line"/>
			<point x="93.75" y="0" type="line"/>
			<point x="93.75" y="680" type="line"/>
			<point x="460" y="680" type="line"/>
			<point x="460" y="643.75" type="line"/>
			<point x="135.5" y="643.75" type="line"/>
			<point x="135.5" y="367.5" type="line"/>
			<point x="420" y="367.5" type="line"/>
		</contour>
	</outline>
	<anchor name="top" x="269" y="740"/>
</glyph>
<glyph name="F" format="2">
	<unicode hex="0046"/>
	<advance width="510"/>
	<outline>
		<contour>
			<point x="420" y="331.25" type="line"/>
			<point x="135.5" y="331.25" type="line"/>
			<point x="135.5" y="0" type="line"/>
			<point x="93.75" y="0" type="line"/>
			<point x="93.75" y="680" type="line"/>
			<point x="460" y="680" type="line"/>
			<point x="460" y="643.75" type="line"/>
			<point x="135.5" y="643.75" type="line"/>
			<point x="135.5" y="367.5" type="line"/>
			<point x="420" y="367.5" type="line"/>
		</contour>
	</outline>
	<anchor name="top" x="269" y="740"/>
</glyph>
<glyph name="G" format="2">
	<unicode hex="0047"/>
	<advance width="700"/>
	<outline>
		<contour>
			<point x="356.75" y="652.5" type="curve" smooth="yes"/>
			<point x="207.125" y="652.5"/>
			<point x="115.5" y="532.875"/>
			<point x="115.5" y="340" type="curve" smooth="yes"/>
			<point x="115.5" y="147.125"/>
			<point x="207.125" y="27.5"/>
			<point x="356.75" y="27.5" type="curve" smooth="yes"/>
			<point x="446" y="27.5"/>
			<point x="534.125" y="85.375"/>
			<point x="577.75" y="158.625" type="curve"/>
			<point x="577.75" y="273.75" type="line"/>
			<point x="382.875" y="273.75" type="line"/>
			<point x="382.875" y="306.25" type="line"/>
			<point x="615.75" y="306.25" type="line"/>
			<point x="615.75" y="0" type="line"/>
			<point x="577.75" y="0" type="line"/>
			<point x="577.75" y="101.75" type="line"/>
			<point x="534.375" y="39"/>
			<point x="441.875" y="-10"/>
			<point x="356.75" y="-10" type="curve" smooth="yes"/>
			<point x="183.25" y="-10"/>
			<point x="73.75" y="125.375"/>
			<point x="73.75" y="340" type="curve" smooth="yes"/>
			<point x="73.75" y="554.625"/>
			<point x="183.25" y="690"/>
			<point x="356.75" y="690" type="curve" smooth="yes"/>
			<point x="495.75" y="690"/>
			<point x="593.125" y="604.5"/>
			<point x="623.75" y="452.75" type="curve"/>
			<point x="586.25" y="452.75" type="line"/>
			<point x="557.75" y="578.125"/>
			<point x="473.875" y="652.5"/>
		</contour>
	</outline>
	<anchor name="top" x="349" y="740"/>
</glyph>
<glyph name="H" format="2">
	<unicode hex="0048"/>
	<advance width="609"/>
	<outline>
		<contour>
			<point x="515.5" y="680" type="line"/>
			<point x="515.5" y="0" type="line"/>
			<point x="473.75" y="0" type="line"/>
			<point x="473.75" y="327" type="line"/>
			<point x="135.5" y="327" type="line"/>
			<point x="135.5" y="0" type="line"/>
			<point x="93.75" y="0" type="line"/>
			<point x="93.75" y="680" type="line"/>
			<point x="135.5" y="680" type="line"/>
			<point x="135.5" y="364.5" type="line"/>
			<point x="473.75" y="364.5" type="line"/>
			<point x="473.75" y="680" type="line"/>
		</contour>
	</outline>
	<anchor name="top" x="304.125" y="740"/>
</glyph>
<glyph name="I" format="2">
	<unicode hex="0049"/>
	<advance width="229"/>
	<outline>
		<contour>
			<point x="135.5" y="0" type="line"/>
			<point x="93.75" y="0" type="line"/>
			<point x="93.75" y="680" type="line"/>
			<point x="135.5" y="680" type="line"/>
		</contour>
	</outline>
	<anchor name="top" x="113.625" y="740"/>
</glyph>
<glyph name="J" format="2">
	<unicode hex="004A"/>
	<advance width="284"/>
	<outline>
		<contour>
			<point x="80.25" y="0" type="curve" smooth="yes"/>
			<point x="50" y="0" type="line"/>
			<point x="50" y="37.5" type="line"/>
			<point x="76" y="37.5" type="line" smooth="yes"/>
			<point x="116" y="37.5"/>
			<point x="148" y="97.25"/>
			<point x="148" y="161.25" type="curve" smooth="yes"/>
			<point x="148" y="680" type="line"/>
			<point x="189.75" y="680" type="line"/>
			<point x="189.75" y="174" type="line" smooth="yes"/>
			<point x="189.75" y="66.25"/>
			<point x="149" y="0"/>
		</contour>
	</outline>
	<anchor name="top" x="167.125" y="740"/>
</glyph>
<glyph name="K" format="2">
	<unicode hex="004B"/>
	<advance width="523"/>
	<outline>
		<contour>
			<point x="135.5" y="303.875" type="line"/>
			<point x="135.5" y="0" type="line"/>
			<point x="93.75" y="0" type="line"/>
			<point x="93.75" y="680" type="line"/>
			<point x="135.5" y="680" type="line"/>
			<point x="135.5" y="342.375" type="line"/>
			<point x="233.125" y="359.375" type="line"/>
			<point x="425" y="680" type="line"/>
			<point x="472.75" y="680" type="line"/>
			<point x="272.75" y="350" type="line"/>
			<point x="512.75" y="0" type="line"/>
			<point x="462.5" y="0" type="line"/>
			<point x="239.75" y="324.625" type="line"/>
		</contour>
	</outline>
	<anchor name="top" x="257.625" y="740"/>
</glyph>
<glyph name="M" format="2">
	<unicode hex="004D"/>
	<advance width="762"/>
	<outline>
		<contour>
			<point x="668.5" y="680" type="line"/>
			<point x="668.5" y="0" type="line"/>
			<point x="626.75" y="0" type="line"/>
			<point x="626.75" y="583.25" type="line"/>
			<point x="403.875" y="0" type="line"/>
			<point x="358.125" y="0" type="line"/>
			<point x="135.5" y="582.875" type="line"/>
			<point x="135.5" y="0" type="line"/>
			<point x="93.75" y="0" type="line"/>
			<point x="93.75" y="680" type="line"/>
			<point x="139.75" y="680" type="line"/>
			<point x="361" y="111.875" type="line" smooth="yes"/>
			<point x="368.125" y="93.375"/>
			<point x="375.625" y="71.125"/>
			<point x="381.125" y="51.5" type="curve"/>
			<point x="386.625" y="71.125"/>
			<point x="394.125" y="93.375"/>
			<point x="401.25" y="111.875" type="curve" smooth="yes"/>
			<point x="622.5" y="680" type="line"/>
		</contour>
	</outline>
	<anchor name="top" x="380.875" y="740"/>
</glyph>
<glyph name="N" format="2">
	<unicode hex="004E"/>
	<advance width="630"/>
	<outline>
		<contour>
			<point x="135.5" y="547.5" type="curve" smooth="yes"/>
			<point x="135.5" y="0" type="line"/>
			<point x="93.75" y="0" type="line"/>
			<point x="93.75" y="680" type="line"/>
			<point x="139.75" y="680" type="line"/>
			<point x="496.625" y="68.875" type="line"/>
			<point x="494.5" y="93.125"/>
			<point x="494.5" y="115.375"/>
			<point x="494.5" y="132.5" type="curve" smooth="yes"/>
			<point x="494.5" y="680" type="line"/>
			<point x="536.25" y="680" type="line"/>
			<point x="536.25" y="0" type="line"/>
			<point x="490.25" y="0" type="line"/>
			<point x="133.375" y="611.125" type="line"/>
			<point x="135.5" y="586.875"/>
			<point x="135.5" y="564.625"/>
		</contour>
	</outline>
	<anchor name="top" x="308.375" y="740"/>
</glyph>
<glyph name="O" format="2">
	<unicode hex="004F"/>
	<advance width="714"/>
	<outline>
		<contour>
			<point x="356.75" y="652.5" type="curve" smooth="yes"/>
			<point x="207.125" y="652.5"/>
			<point x="115.5" y="532.875"/>
			<point x="115.5" y="340" type="curve" smooth="yes"/>
			<point x="115.5" y="147.125"/>
			<point x="207.125" y="27.5"/>
			<point x="356.75" y="27.5" type="curve" smooth="yes"/>
			<point x="506.375" y="27.5"/>
			<point x="598" y="147.125"/>
			<point x="598" y="340" type="curve" smooth="yes"/>
			<point x="598" y="532.875"/>
			<point x="506.375" y="652.5"/>
		</contour>
		<contour>
			<point x="356.75" y="-10" type="curve" smooth="yes"/>
			<point x="183.25" y="-10"/>
			<point x="73.75" y="125.375"/>
			<point x="73.75" y="340" type="curve" smooth="yes"/>
			<point x="73.75" y="554.625"/>
			<point x="183.25" y="690"/>
			<point x="356.75" y="690" type="curve" smooth="yes"/>
			<point x="530.25" y="690"/>
			<point x="639.75" y="554.625"/>
			<point x="639.75" y="340" type="curve" smooth="yes"/>
			<point x="639.75" y="125.375"/>
			<point x="530.25" y="-10"/>
		</contour>
	</outline>
	<anchor name="top" x="355.125" y="740"/>
</glyph>
<glyph name="P" format="2">
	<unicode hex="0050"/>
	<advance width="580"/>
	<outline>
		<contour>
			<point x="303.125" y="642.5" type="curve" smooth="yes"/>
			<point x="135.5" y="642.5" type="line"/>
			<point x="135.5" y="310" type="line"/>
			<point x="303.125" y="310" type="line" smooth="yes"/>
			<point x="430.625" y="310"/>
			<point x="482" y="397"/>
			<point x="482" y="483.25" type="curve" smooth="yes"/>
			<point x="482" y="579.75"/>
			<point x="420.125" y="642.5"/>
		</contour>
		<contour>
			<point x="276.875" y="272.5" type="curve" smooth="yes"/>
			<point x="135.5" y="272.5" type="line"/>
			<point x="135.5" y="0" type="line"/>
			<point x="93.75" y="0" type="line"/>
			<point x="93.75" y="680" type="line"/>
			<point x="276.875" y="680" type="line" smooth="yes"/>
			<point x="416.875" y="680"/>
			<point x="521.25" y="634.5"/>
			<point x="521.25" y="483.25" type="curve" smooth="yes"/>
			<point x="521.25" y="380.125"/>
			<point x="477.25" y="272.5"/>
		</contour>
	</outline>
	<anchor name="top" x="269" y="740"/>
</glyph>
<glyph name="Q" format="2">
	<unicode hex="0051"/>
	<advance width="714"/>
	<outline>
		<component base="O"/>
		<contour>
			<point x="560" y="-52" type="line"/>
			<point x="536.625" y="-74.25" type="line"/>
			<point x="389.375" y="75.125" type="line"/>
			<point x="412.75" y="97.375" type="line"/>
		</contour>
	</outline>
	<anchor name="top" x="357.75" y="740"/>
</glyph>
<glyph name="S" format="2">
	<unicode hex="0053"/>
	<advance width="634"/>
	<outline>
		<contour>
			<point x="73.75" y="196.75" type="curve"/>
			<point x="116.75" y="196.75" type="line"/>
			<point x="116.75" y="94.625"/>
			<point x="196.625" y="27.5"/>
			<point x="320.625" y="27.5" type="curve" smooth="yes"/>
			<point x="439.75" y="27.5"/>
			<point x="516.75" y="87.75"/>
			<point x="516.75" y="179.125" type="curve" smooth="yes"/>
			<point x="516.75" y="244.75"/>
			<point x="477.375" y="287.625"/>
			<point x="395.875" y="311" type="curve"/>
			<point x="211.5" y="369.375" type="line" smooth="yes"/>
			<point x="139.125" y="391.5"/>
			<point name=".hr01" x="92.625" y="451"/>
			<point x="92.625" y="524.375" type="curve" smooth="yes"/>
			<point x="92.625" y="625.125"/>
			<point x="176.625" y="690"/>
			<point x="311.125" y="690" type="curve" smooth="yes"/>
			<point x="456" y="690"/>
			<point x="557.75" y="609.25"/>
			<point x="557.75" y="498.5" type="curve"/>
			<point x="514.75" y="498.5" type="line"/>
			<point x="514.75" y="589.125"/>
			<point x="429.375" y="652.5"/>
			<point x="296.875" y="652.5" type="curve" smooth="yes"/>
			<point x="197.875" y="652.5"/>
			<point x="135.625" y="603.375"/>
			<point x="135.625" y="524.5" type="curve" smooth="yes"/>
			<point x="135.625" y="462.375"/>
			<point x="175.875" y="413.125"/>
			<point x="242.375" y="393.75" type="curve"/>
			<point x="431.375" y="335.5" type="line" smooth="yes"/>
			<point x="517.625" y="309.125"/>
			<point x="559.75" y="257.375"/>
			<point x="559.75" y="176.125" type="curve" smooth="yes"/>
			<point x="559.75" y="60.25"/>
			<point x="472" y="-10"/>
			<point x="322.375" y="-10" type="curve" smooth="yes"/>
			<point x="169.125" y="-10"/>
			<point name=".hr02" x="73.75" y="70"/>
		</contour>
	</outline>
	<anchor name="top" x="300.875" y="740"/>
</glyph>
<glyph name="T" format="2">
	<unicode hex="0054"/>
	<advance width="480"/>
	<outline>
		<contour>
			<point x="260.875" y="642.5" type="line"/>
			<point x="260.875" y="0" type="line"/>
			<point x="219.125" y="0" type="line"/>
			<point x="219.125" y="642.5" type="line"/>
			<point x="10" y="642.5" type="line"/>
			<point x="10" y="680" type="line"/>
			<point x="470" y="680" type="line"/>
			<point x="470" y="642.5" type="line"/>
		</contour>
	</outline>
	<anchor name="top" x="238.125" y="740"/>
</glyph>
<glyph name="U" format="2">
	<unicode hex="0055"/>
	<advance width="570"/>
	<outline>
		<contour>
			<point x="50" y="235" type="curve" smooth="yes"/>
			<point x="50" y="680" type="line"/>
			<point x="90" y="680" type="line"/>
			<point x="90" y="257.5" type="line" smooth="yes"/>
			<point x="90" y="96.375"/>
			<point x="162.5" y="28.75"/>
			<point x="285" y="28.75" type="curve" smooth="yes"/>
			<point x="407.5" y="28.75"/>
			<point x="480" y="96.375"/>
			<point x="480" y="257.5" type="curve" smooth="yes"/>
			<point x="480" y="680" type="line"/>
			<point x="520" y="680" type="line"/>
			<point x="520" y="235" type="line" smooth="yes"/>
			<point x="520" y="72"/>
			<point x="437.5" y="-10"/>
			<point x="285" y="-10" type="curve" smooth="yes"/>
			<point x="132.5" y="-10"/>
			<point x="50" y="72"/>
		</contour>
	</outline>
	<anchor name="top" x="285.375" y="740"/>
</glyph>
<glyph name="V" format="2">
	<unicode hex="0056"/>
	<advance width="501"/>
	<outline>
		<contour>
			<point x="268.25" y="111.875" type="curve" smooth="yes"/>
			<point x="449.5" y="680" type="line"/>
			<point x="491.25" y="680" type="line"/>
			<point x="273.375" y="0" type="line"/>
			<point x="227.625" y="0" type="line"/>
			<point x="10" y="680" type="line"/>
			<point x="51.75" y="680" type="line"/>
			<point x="233" y="111.875" type="line" smooth="yes"/>
			<point x="239.5" y="92.75"/>
			<point x="246" y="70.5"/>
			<point x="250.625" y="50.625" type="curve"/>
			<point x="255.25" y="70.5"/>
			<point x="261.75" y="92.75"/>
		</contour>
	</outline>
	<anchor name="top" x="244.625" y="740"/>
</glyph>
<glyph name="W" format="2">
	<unicode hex="0057"/>
	<advance width="941"/>
	<outline>
		<contour>
			<point x="707.75" y="111.875" type="curve" smooth="yes"/>
			<point x="889" y="680" type="line"/>
			<point x="930.75" y="680" type="line"/>
			<point x="712.875" y="0" type="line"/>
			<point x="667.125" y="0" type="line"/>
			<point x="470.375" y="613.625" type="line"/>
			<point x="273.375" y="0" type="line"/>
			<point x="227.625" y="0" type="line"/>
			<point x="10" y="680" type="line"/>
			<point x="51.75" y="680" type="line"/>
			<point x="233" y="111.875" type="line" smooth="yes"/>
			<point x="239.5" y="92.75"/>
			<point x="246" y="70.5"/>
			<point x="250.625" y="50.625" type="curve"/>
			<point x="255.25" y="70.5"/>
			<point x="261.75" y="92.75"/>
			<point x="268.25" y="111.875" type="curve" smooth="yes"/>
			<point x="449.5" y="680" type="line"/>
			<point x="491.25" y="680" type="line"/>
			<point x="672.5" y="111.875" type="line" smooth="yes"/>
			<point x="679" y="92.75"/>
			<point x="685.5" y="70.5"/>
			<point x="690.125" y="50.625" type="curve"/>
			<point x="694.75" y="70.5"/>
			<point x="701.25" y="92.75"/>
		</contour>
	</outline>
	<anchor name="top" x="469.875" y="740"/>
</glyph>
<glyph name="X" format="2">
	<unicode hex="0058"/>
	<advance width="659"/>
	<outline>
		<contour>
			<point x="533.5" y="680" type="line"/>
			<point x="346.25" y="360" type="line"/>
			<point x="557" y="0" type="line"/>
			<point x="506.25" y="0" type="line"/>
			<point x="320.5" y="316.875" type="line"/>
			<point x="134.625" y="0" type="line"/>
			<point x="84.25" y="0" type="line"/>
			<point x="295.75" y="359.875" type="line"/>
			<point x="107.5" y="680" type="line"/>
			<point x="158" y="680" type="line"/>
			<point x="320.625" y="402.875" type="line"/>
			<point x="483.375" y="680" type="line"/>
		</contour>
	</outline>
	<anchor name="top" x="321.875" y="740"/>
</glyph>
<glyph name="Y" format="2">
	<unicode hex="0059"/>
	<advance width="594"/>
	<outline>
		<contour>
			<point x="276.125" y="297.5" type="line"/>
			<point x="64.125" y="680" type="line"/>
			<point x="106.5" y="680" type="line"/>
			<point x="296" y="339.25" type="line"/>
			<point x="298" y="339.25" type="line"/>
			<point x="489" y="680" type="line"/>
			<point x="530.75" y="680" type="line"/>
			<point x="317.875" y="297.5" type="line"/>
			<point x="317.875" y="0" type="line"/>
			<point x="276.125" y="0" type="line"/>
		</contour>
	</outline>
	<anchor name="top" x="299.625" y="740"/>
</glyph>
<glyph name="Z" format="2">
	<unicode hex="005A"/>
	<advance width="523"/>
	<outline>
		<contour>
			<point x="458.75" y="37.5" type="line"/>
			<point x="458.75" y="0" type="line"/>
			<point x="14.125" y="0" type="line"/>
			<point x="14.125" y="22.25" type="line"/>
			<point x="396.25" y="642.5" type="line"/>
			<point x="26.25" y="642.5" type="line"/>
			<point x="26.25" y="680" type="line"/>
			<point x="453" y="680" type="line"/>
			<point x="453" y="657.75" type="line"/>
			<point x="71.75" y="37.5" type="line"/>
		</contour>
	</outline>
	<anchor name="top" x="231.625" y="740"/>
</glyph>
<glyph name="bracketleft" format="2">
	<unicode hex="005B"/>
	<advance width="373"/>
	<outline>
		<contour>
			<point x="70" y="792.5" type="line"/>
			<point x="302.5" y="792.5" type="line"/>
			<point x="302.5" y="755" type="line"/>
			<point x="110" y="755" type="line"/>
			<point x="110" y="-56" type="line"/>
			<point x="302.5" y="-56" type="line"/>
			<point x="302.5" y="-93.5" type="line"/>
			<point x="70" y="-93.5" type="line"/>
		</contour>
	</outline>
</glyph>
<glyph name="bracketright" format="2">
	<unicode hex="005D"/>
	<advance width="373"/>
	<outline>
		<contour>
			<point x="70" y="-93.5" type="line"/>
			<point x="70" y="-56" type="line"/>
			<point x="262.5" y="-56" type="line"/>
			<point x="262.5" y="755" type="line"/>
			<point x="70" y="755" type="line"/>
			<point x="70" y="792.5" type="line"/>
			<point x="302.5" y="792.5" type="line"/>
			<point x="302.5" y="-93.5" type="line"/>
		</contour>
	</outline>
</glyph>
<glyph name="asciicircum" format="2">
	<unicode hex="005E"/>
	<advance width="434"/>
	<outline>
		<contour>
			<point x="47.875" y="520" type="line"/>
			<point x="191.625" y="800" type="line"/>
			<point x="241.875" y="800" type="line"/>
			<point x="385.625" y="520" type="line"/>
			<point x="338.375" y="520" type="line"/>
			<point x="208.875" y="774.5" type="line"/>
			<point x="225.875" y="774.5" type="line"/>
			<point x="96.375" y="520" type="line"/>
		</contour>
	</outline>
</glyph>
<glyph name="grave" format="2">
	<unicode hex="0060"/>
	<advance width="242"/>
	<outline>
		<contour>
			<point x="117.75" y="520" type="line"/>
			<point x="47.5" y="702.5" type="line"/>
			<point x="100.5" y="702.5" type="line"/>
			<point x="150.5" y="520" type="line"/>
		</contour>
	</outline>
</glyph>
<glyph name="a" format="2">
	<unicode hex="0061"/>
	<advance width="435"/>
	<outline>
		<contour>
			<point x="46.25" y="123" type="curve" smooth="yes"/>
			<point x="46.25" y="205.625"/>
			<point x="90.5" y="240.875"/>
			<point x="228.125" y="266.125" type="curve"/>
			<point x="350.25" y="289.875" type="line"/>
			<point x="350.25" y="267.25" type="line"/>
			<point x="226.25" y="241.25" type="line" smooth="yes"/>
			<point x="118" y="218.75"/>
			<point x="87.5" y="191.875"/>
			<point x="87.5" y="124" type="curve" smooth="yes"/>
			<point x="87.5" y="63.125"/>
			<point x="140.75" y="22.5"/>
			<point x="202.125" y="22.5" type="curve" smooth="yes"/>
			<point x="246.5" y="22.5"/>
			<point x="304.75" y="48.5"/>
			<point x="342" y="86" type="curve" smooth="yes"/>
			<point x="353.375" y="97.75" type="line"/>
			<point x="353.375" y="50.5" type="line"/>
			<point x="338.875" y="50.5" type="line"/>
			<point x="294.625" y="11.25"/>
			<point x="242.125" y="-10.5"/>
			<point x="183.25" y="-10.5" type="curve" smooth="yes"/>
			<point x="102.25" y="-10.5"/>
			<point x="46.25" y="44"/>
		</contour>
		<contour>
			<point x="349.75" y="0" type="line"/>
			<point x="342" y="54" type="line"/>
			<point x="342" y="345" type="line" smooth="yes"/>
			<point x="342" y="406.75"/>
			<point x="303.25" y="439.375"/>
			<point x="227" y="439.375" type="curve" smooth="yes"/>
			<point x="163.25" y="439.375"/>
			<point x="117" y="395.25"/>
			<point x="111.25" y="330" type="curve"/>
			<point name=".hr01" x="70.75" y="330" type="line"/>
			<point x="78.625" y="413.75"/>
			<point x="141.375" y="470.5"/>
			<point x="233" y="470.5" type="curve" smooth="yes"/>
			<point x="325.875" y="470.5"/>
			<point x="382" y="421.375"/>
			<point x="382" y="351.5" type="curve" smooth="yes"/>
			<point x="382" y="0" type="line"/>
		</contour>
	</outline>
	<anchor name="top" x="230.5" y="520"/>
</glyph>
<glyph name="b" format="2">
	<unicode hex="0062"/>
	<advance width="507"/>
	<outline>
		<contour>
			<point x="106.875" y="249.5" type="curve" smooth="yes"/>
			<point x="106.875" y="223.5" type="line" smooth="yes"/>
			<point x="106.875" y="83.25"/>
			<point x="203" y="22.5"/>
			<point x="268.125" y="22.5" type="curve" smooth="yes"/>
			<point x="346.5" y="22.5"/>
			<point x="433" y="94"/>
			<point x="433" y="234.5" type="curve" smooth="yes"/>
			<point x="433" y="367.375"/>
			<point x="360.75" y="437.5"/>
			<point x="267.5" y="437.5" type="curve" smooth="yes"/>
			<point x="186.375" y="437.5"/>
			<point x="106.875" y="352.625"/>
		</contour>
		<contour>
			<point x="97.75" y="115.125" type="line"/>
			<point x="97.375" y="315.125" type="line"/>
			<point x="106.875" y="339.125" type="line" smooth="yes"/>
			<point x="139.5" y="422.875"/>
			<point x="198.875" y="470.5"/>
			<point x="276.375" y="470.5" type="curve" smooth="yes"/>
			<point x="387.375" y="470.5"/>
			<point x="474.25" y="380.125"/>
			<point x="474.25" y="234.5" type="curve" smooth="yes"/>
			<point x="474.25" y="76.75"/>
			<point x="364.875" y="-10.5"/>
			<point x="275.875" y="-10.5" type="curve" smooth="yes"/>
			<point x="208.375" y="-10.5"/>
			<point x="140.375" y="28.5"/>
			<point x="106.875" y="115.125" type="curve"/>
		</contour>
		<contour>
			<point x="66.875" y="0" type="line"/>
			<point x="66.875" y="700" type="line"/>
			<point x="106.875" y="700" type="line"/>
			<point x="106.875" y="115.125" type="line"/>
			<point x="104.875" y="115.125" type="line"/>
			<point x="92.125" y="0" type="line"/>
		</contour>
	</outline>
</glyph>
<glyph name="h" format="2">
	<unicode hex="0068"/>
	<advance width="528"/>
	<outline>
		<contour>
			<point x="110" y="296.375" type="line"/>
			<point x="110" y="364.5" type="line"/>
			<point x="125" y="364.5" type="line"/>
			<point x="165.375" y="431.875"/>
			<point x="229.25" y="470.5"/>
			<point x="296.375" y="470.5" type="curve" smooth="yes"/>
			<point x="385.25" y="470.5"/>
			<point x="442.625" y="408.875"/>
			<point x="442.625" y="313" type="curve" smooth="yes"/>
			<point x="442.625" y="0" type="line"/>
			<point x="402.625" y="0" type="line"/>
			<point x="402.625" y="305.875" type="line" smooth="yes"/>
			<point x="402.625" y="386.875"/>
			<point x="352.75" y="439"/>
			<point x="278.25" y="439" type="curve" smooth="yes"/>
			<point x="202.125" y="439"/>
			<point x="126.5" y="368"/>
			<point x="125" y="296.375" type="curve"/>
		</contour>
		<contour>
			<point x="85" y="0" type="line"/>
			<point x="85" y="700" type="line"/>
			<point x="125" y="700" type="line"/>
			<point x="125" y="0" type="line"/>
		</contour>
	</outline>
</glyph>
<glyph name="i" format="2">
	<unicode hex="0069"/>
	<advance width="230"/>
	<outline>
		<contour>
			<point x="135" y="0" type="line"/>
			<point x="95" y="0" type="line"/>
			<point x="95" y="460" type="line"/>
			<point x="135" y="460" type="line"/>
		</contour>
		<contour>
			<point x="135" y="520" type="line"/>
			<point x="95" y="520" type="line"/>
			<point x="95" y="611.25" type="line"/>
			<point x="135" y="611.25" type="line"/>
		</contour>
	</outline>
</glyph>
<glyph name="k" format="2">
	<unicode hex="006B"/>
	<advance width="453"/>
	<outline>
		<contour>
			<point x="85" y="219.625" type="line"/>
			<point x="85" y="260.75" type="line"/>
			<point x="161.125" y="281.625" type="line"/>
			<point x="300.75" y="460" type="line"/>
			<point x="351.625" y="460" type="line"/>
			<point x="199.625" y="266.375" type="line"/>
			<point x="369.75" y="0" type="line"/>
			<point x="320.375" y="0" type="line"/>
			<point x="165.875" y="241.125" type="line"/>
		</contour>
		<contour>
			<point x="45" y="0" type="line"/>
			<point x="45" y="700" type="line"/>
			<point x="85" y="700" type="line"/>
			<point x="85" y="0" type="line"/>
		</contour>
	</outline>
</glyph>
<glyph name="l" format="2">
	<unicode hex="006C"/>
	<advance width="210"/>
	<outline>
		<contour>
			<point x="125" y="0" type="line"/>
			<point x="85" y="0" type="line"/>
			<point x="85" y="700" type="line"/>
			<point x="125" y="700" type="line"/>
		</contour>
	</outline>
</glyph>
<glyph name="m" format="2">
	<unicode hex="006D"/>
	<advance width="846"/>
	<outline>
		<contour>
			<point x="165" y="310" type="curve"/>
			<point x="165" y="0" type="line"/>
			<point x="85" y="0" type="line"/>
			<point x="85" y="460" type="line"/>
			<point x="145" y="460" type="line"/>
			<point x="161" y="379" type="line"/>
			<point x="195" y="425"/>
			<point x="241" y="470"/>
			<point x="313" y="470" type="curve" smooth="yes"/>
			<point x="407" y="470"/>
			<point x="442" y="424"/>
			<point x="455" y="374" type="curve"/>
			<point x="489" y="422"/>
			<point x="536" y="470"/>
			<point x="611" y="470" type="curve" smooth="yes"/>
			<point x="755" y="470"/>
			<point x="761" y="362"/>
			<point x="761" y="295" type="curve" smooth="yes"/>
			<point x="761" y="0" type="line"/>
			<point x="681" y="0" type="line"/>
			<point x="681" y="295" type="line" smooth="yes"/>
			<point x="681" y="339"/>
			<point x="672" y="405"/>
			<point x="589" y="405" type="curve" smooth="yes"/>
			<point x="547" y="405"/>
			<point x="487" y="372"/>
			<point x="463" y="309" type="curve"/>
			<point x="463" y="304"/>
			<point x="463" y="300"/>
			<point x="463" y="295" type="curve" smooth="yes"/>
			<point x="463" y="0" type="line"/>
			<point x="383" y="0" type="line"/>
			<point x="383" y="295" type="line" smooth="yes"/>
			<point x="383" y="339"/>
			<point x="374" y="405"/>
			<point x="291" y="405" type="curve" smooth="yes"/>
			<point x="249" y="405"/>
			<point x="189" y="372"/>
		</contour>
	</outline>
</glyph>
<glyph name="n" format="2">
	<unicode hex="006E"/>
	<advance width="528"/>
	<outline>
		<contour>
			<point x="110" y="296.375" type="line"/>
			<point x="110" y="364.5" type="line"/>
			<point x="125" y="364.5" type="line"/>
			<point x="165.375" y="431.875"/>
			<point x="229.25" y="470.5"/>
			<point x="296.375" y="470.5" type="curve" smooth="yes"/>
			<point x="385.25" y="470.5"/>
			<point x="442.625" y="408.875"/>
			<point x="442.625" y="313" type="curve" smooth="yes"/>
			<point x="442.625" y="0" type="line"/>
			<point x="402.625" y="0" type="line"/>
			<point x="402.625" y="305.875" type="line" smooth="yes"/>
			<point x="402.625" y="386.875"/>
			<point x="352.75" y="439"/>
			<point x="278.25" y="439" type="curve" smooth="yes"/>
			<point x="202.125" y="439"/>
			<point x="126.5" y="368"/>
			<point x="125" y="296.375" type="curve"/>
		</contour>
		<contour>
			<point x="85" y="0" type="line"/>
			<point x="85" y="460" type="line"/>
			<point x="119" y="460" type="line"/>
			<point x="123.625" y="364.5" type="line"/>
			<point x="125" y="364.5" type="line"/>
			<point x="125" y="0" type="line"/>
		</contour>
	</outline>
</glyph>
<glyph name="o" format="2">
	<unicode hex="006F"/>
	<advance width="494"/>
	<outline>
		<contour>
			<point x="75.625" y="230" type="curve" smooth="yes"/>
			<point x="75.625" y="101.875"/>
			<point x="144.75" y="20"/>
			<point x="246.875" y="20" type="curve" smooth="yes"/>
			<point x="348.25" y="20"/>
			<point x="418.125" y="102"/>
			<point x="418.125" y="230" type="curve" smooth="yes"/>
			<point x="418.125" y="358.125"/>
			<point x="349" y="440"/>
			<point x="246.875" y="440" type="curve" smooth="yes"/>
			<point x="145.5" y="440"/>
			<point x="75.625" y="358"/>
		</contour>
		<contour>
			<point x="34.375" y="230" type="curve" smooth="yes"/>
			<point x="34.375" y="373.625"/>
			<point x="116.75" y="470.5"/>
			<point x="246.875" y="470.5" type="curve" smooth="yes"/>
			<point x="377.25" y="470.5"/>
			<point x="459.375" y="372.875"/>
			<point x="459.375" y="230" type="curve" smooth="yes"/>
			<point x="459.375" y="86.375"/>
			<point x="377" y="-10.5"/>
			<point x="246.875" y="-10.5" type="curve" smooth="yes"/>
			<point x="116.5" y="-10.5"/>
			<point x="34.375" y="87.125"/>
		</contour>
	</outline>
	<anchor name="top" x="243.375" y="528.75"/>
</glyph>
<glyph name="p" format="2">
	<unicode hex="0070"/>
	<advance width="504"/>
	<outline>
		<contour>
			<point x="138.125" y="230.25" type="curve" smooth="yes"/>
			<point x="138.125" y="226" type="line" smooth="yes"/>
			<point x="138.125" y="123"/>
			<point x="189.125" y="55"/>
			<point x="258.125" y="55" type="curve" smooth="yes"/>
			<point x="351.125" y="55"/>
			<point x="389.125" y="123"/>
			<point x="389.125" y="231" type="curve" smooth="yes"/>
			<point x="389.125" y="306"/>
			<point x="370.125" y="405"/>
			<point x="258.125" y="405" type="curve" smooth="yes"/>
			<point x="175.125" y="405"/>
			<point x="138.125" y="314.25"/>
		</contour>
		<contour>
			<point x="58.125" y="-200" type="line"/>
			<point x="58.125" y="460" type="line"/>
			<point x="118.125" y="460" type="line"/>
			<point x="135.5" y="375.75" type="line"/>
			<point x="162.25" y="436"/>
			<point x="214.25" y="470"/>
			<point x="283.125" y="470" type="curve" smooth="yes"/>
			<point x="408.125" y="470"/>
			<point x="469.125" y="350"/>
			<point x="469.125" y="231" type="curve" smooth="yes"/>
			<point x="469.125" y="111"/>
			<point x="405.125" y="-10"/>
			<point x="279.125" y="-10" type="curve" smooth="yes"/>
			<point x="214.875" y="-10"/>
			<point x="162.125" y="18.375"/>
			<point x="138.125" y="66.125" type="curve"/>
			<point x="138.125" y="-200" type="line"/>
		</contour>
	</outline>
</glyph>
<glyph name="t" format="2">
	<unicode hex="0074"/>
	<advance width="331"/>
	<outline>
		<contour>
			<point x="105" y="400" type="line"/>
			<point x="30" y="400" type="line"/>
			<point x="30" y="440" type="line"/>
			<point x="105" y="460" type="line"/>
			<point x="105" y="480" type="line"/>
			<point x="125" y="610" type="line"/>
			<point x="185" y="610" type="line"/>
			<point x="185" y="460" type="line"/>
			<point x="269" y="460" type="line"/>
			<point x="269" y="400" type="line"/>
			<point x="185" y="400" type="line"/>
			<point x="185" y="181" type="line" smooth="yes"/>
			<point x="185" y="83"/>
			<point x="197" y="56"/>
			<point x="266" y="56" type="curve" smooth="yes"/>
			<point x="300" y="56" type="line"/>
			<point x="300" y="-9" type="line"/>
			<point x="267" y="-9" type="line"/>
			<point x="117" y="0"/>
			<point x="105" y="44"/>
			<point x="105" y="180" type="curve" smooth="yes"/>
		</contour>
	</outline>
</glyph>
<glyph name="yen" format="2">
	<unicode hex="00A5"/>
	<advance width="495"/>
	<outline>
		<contour>
			<point x="167" y="346" type="line"/>
			<point x="1" y="637" type="line"/>
			<point x="88" y="637" type="line"/>
			<point x="214" y="413" type="line" smooth="yes"/>
			<point x="226" y="392"/>
			<point x="238" y="369"/>
			<point x="247" y="346" type="curve"/>
			<point x="256" y="369"/>
			<point x="266" y="386"/>
			<point x="282" y="417" type="curve" smooth="yes"/>
			<point x="401" y="637" type="line"/>
			<point x="494" y="637" type="line"/>
			<point x="328" y="346" type="line"/>
			<point x="466" y="346" type="line"/>
			<point x="466" y="286" type="line"/>
			<point x="287" y="286" type="line"/>
			<point x="287" y="207" type="line"/>
			<point x="466" y="207" type="line"/>
			<point name=".hr01" x="466" y="147" type="line"/>
			<point x="287" y="147" type="line"/>
			<point name=".hr02" x="287" y="0" type="line"/>
			<point x="209" y="0" type="line"/>
			<point name=".hr03" x="209" y="147" type="line"/>
			<point x="28" y="147" type="line"/>
			<point x="28" y="207" type="line"/>
			<point x="209" y="207" type="line"/>
			<point x="209" y="286" type="line"/>
			<point x="28" y="286" type="line"/>
			<point x="28" y="346" type="line"/>
		</contour>
	</outline>
</glyph>
<glyph name="brokenbar" format="2">
	<unicode hex="00A6"/>
	<advance width="180"/>
	<outline>
		<contour>
			<point x="130" y="-156" type="line"/>
			<point x="50" y="-156" type="line"/>
			<point x="50" y="156" type="line"/>
			<point x="130" y="156" type="line"/>
		</contour>
		<contour>
			<point x="130" y="289" type="line"/>
			<point x="50" y="289" type="line"/>
			<point x="50" y="601" type="line"/>
			<point x="130" y="601" type="line"/>
		</contour>
	</outline>
</glyph>
<glyph name="dieresis" format="2">
	<unicode hex="00A8"/>
	<advance width="305"/>
	<outline>
		<contour>
			<point x="86.25" y="520" type="line"/>
			<point x="58.75" y="520" type="line"/>
			<point x="58.75" y="600" type="line"/>
			<point x="86.25" y="600" type="line"/>
		</contour>
		<contour>
			<point x="246" y="520" type="line"/>
			<point x="218.5" y="520" type="line"/>
			<point x="218.5" y="600" type="line"/>
			<point x="246" y="600" type="line"/>
		</contour>
	</outline>
</glyph>
<glyph name="macron" format="2">
	<unicode hex="00AF"/>
	<advance width="370"/>
	<outline>
		<contour>
			<point x="320" y="520" type="line"/>
			<point x="50" y="520" type="line"/>
			<point x="50" y="590" type="line"/>
			<point x="320" y="590" type="line"/>
		</contour>
	</outline>
</glyph>
<glyph name="plusminus" format="2">
	<unicode hex="00B1"/>
	<advance width="445"/>
	<outline>
		<contour>
			<point x="190" y="264" type="line"/>
			<point x="50" y="264" type="line"/>
			<point x="50" y="329" type="line"/>
			<point x="190" y="329" type="line"/>
			<point x="190" y="469" type="line"/>
			<point x="255" y="469" type="line"/>
			<point x="255" y="329" type="line"/>
			<point x="395" y="329" type="line"/>
			<point x="395" y="264" type="line"/>
			<point x="255" y="264" type="line"/>
			<point x="255" y="119" type="line"/>
			<point x="190" y="119" type="line"/>
		</contour>
		<contour>
			<point x="395" y="0" type="line"/>
			<point x="50" y="0" type="line"/>
			<point x="50" y="65" type="line"/>
			<point x="395" y="65" type="line"/>
		</contour>
	</outline>
</glyph>
<glyph name="acute" format="2">
	<unicode hex="00B4"/>
	<advance width="281"/>
	<outline>
		<contour>
			<point x="127.25" y="516.25" type="line"/>
			<point x="92.5" y="516.25" type="line"/>
			<point x="145" y="700" type="line"/>
			<point x="195.75" y="700" type="line"/>
		</contour>
	</outline>
</glyph>
<glyph name="onehalf" format="2">
	<unicode hex="00BD"/>
	<advance width="742"/>
	<outline>
		<contour>
			<point x="717" y="39" type="line"/>
			<point x="717" y="-13" type="line"/>
			<point x="447" y="-13" type="line"/>
			<point x="452" y="41"/>
			<point x="519" y="91"/>
			<point x="559" y="120" type="curve" smooth="yes"/>
			<point x="626" y="168"/>
			<point x="647" y="184"/>
			<point x="647" y="214" type="curve" smooth="yes"/>
			<point x="647" y="245"/>
			<point x="624" y="262"/>
			<point x="587" y="262" type="curve" smooth="yes"/>
			<point x="539" y="262"/>
			<point x="533" y="242"/>
			<point x="522" y="213" type="curve"/>
			<point x="456" y="219" type="line"/>
			<point x="463" y="240" type="line"/>
			<point x="475" y="272"/>
			<point x="502" y="313"/>
			<point x="588" y="313" type="curve" smooth="yes"/>
			<point x="611" y="313"/>
			<point x="716" y="310"/>
			<point x="716" y="225" type="curve" smooth="yes"/>
			<point x="716" y="146"/>
			<point x="602" y="92"/>
			<point x="549" y="39" type="curve"/>
		</contour>
		<contour>
			<point x="55" y="510" type="curve"/>
			<point x="55" y="564" type="line"/>
			<point x="93" y="573"/>
			<point x="143" y="614"/>
			<point x="168" y="645" type="curve"/>
			<point x="215" y="645" type="line"/>
			<point x="215" y="319" type="line"/>
			<point x="152" y="319" type="line"/>
			<point x="152" y="560" type="line"/>
			<point x="125" y="538"/>
			<point x="89" y="519"/>
		</contour>
		<contour>
			<point x="645" y="651" type="line"/>
			<point x="167" y="-22" type="line"/>
			<point x="99" y="-22" type="line"/>
			<point x="578" y="651" type="line"/>
		</contour>
	</outline>
</glyph>
<glyph name="Aring" format="2">
	<unicode hex="00C5"/>
	<advance width="501"/>
	<outline>
		<contour>
			<point x="363" y="273.125" type="line"/>
			<point x="250.625" y="623.875" type="line"/>
			<point x="138.25" y="273.125" type="line"/>
		</contour>
		<contour>
			<point x="219.625" y="859" type="curve" smooth="yes"/>
			<point x="219.625" y="842"/>
			<point x="233.625" y="828"/>
			<point x="250.625" y="828" type="curve" smooth="yes"/>
			<point x="267.625" y="828"/>
			<point x="281.625" y="842"/>
			<point x="281.625" y="859" type="curve" smooth="yes"/>
			<point x="281.625" y="876"/>
			<point x="267.625" y="890"/>
			<point x="250.625" y="890" type="curve" smooth="yes"/>
			<point x="233.625" y="890"/>
			<point x="219.625" y="876"/>
		</contour>
		<contour>
			<point x="449.5" y="0" type="line"/>
			<point x="375.125" y="233.125" type="line"/>
			<point x="126.125" y="233.125" type="line"/>
			<point x="51.75" y="0" type="line"/>
			<point x="10" y="0" type="line"/>
			<point x="227.625" y="680" type="line"/>
			<point x="273.375" y="680" type="line"/>
			<point x="491.25" y="0" type="line"/>
		</contour>
		<contour>
			<point x="172.625" y="859" type="curve" smooth="yes"/>
			<point x="172.625" y="902"/>
			<point x="207.625" y="937"/>
			<point x="250.625" y="937" type="curve" smooth="yes"/>
			<point x="293.625" y="937"/>
			<point x="328.625" y="902"/>
			<point x="328.625" y="859" type="curve" smooth="yes"/>
			<point x="328.625" y="816"/>
			<point x="293.625" y="781"/>
			<point x="250.625" y="781" type="curve" smooth="yes"/>
			<point x="207.625" y="781"/>
			<point x="172.625" y="816"/>
		</contour>
	</outline>
</glyph>
<glyph name="Ccedilla" format="2">
	<unicode hex="00C7"/>
	<advance width="698"/>
	<outline>
		<contour>
			<point x="264.25" y="-193" type="curve"/>
			<point x="264.25" y="-164" type="line"/>
			<point x="277.25" y="-167"/>
			<point x="298.25" y="-170"/>
			<point x="318.25" y="-170" type="curve" smooth="yes"/>
			<point x="359.25" y="-170"/>
			<point x="377.25" y="-148"/>
			<point x="377.25" y="-118" type="curve" smooth="yes"/>
			<point x="377.25" y="-82"/>
			<point x="328.25" y="-70"/>
			<point x="298.25" y="-67" type="curve"/>
			<point x="325.375" y="-8.875" type="line"/>
			<point x="170.5" y="6.625"/>
			<point x="73.75" y="138.125"/>
			<point x="73.75" y="340" type="curve" smooth="yes"/>
			<point x="73.75" y="554.625"/>
			<point x="183.25" y="690"/>
			<point x="356.75" y="690" type="curve" smooth="yes"/>
			<point x="495.75" y="690"/>
			<point x="593.125" y="604.5"/>
			<point x="623.75" y="452.75" type="curve"/>
			<point x="586.25" y="452.75" type="line"/>
			<point x="557.75" y="578.125"/>
			<point x="473.875" y="652.5"/>
			<point x="356.75" y="652.5" type="curve" smooth="yes"/>
			<point x="207.125" y="652.5"/>
			<point x="115.5" y="532.875"/>
			<point x="115.5" y="340" type="curve" smooth="yes"/>
			<point x="115.5" y="147.125"/>
			<point x="207.125" y="27.5"/>
			<point x="356.75" y="27.5" type="curve" smooth="yes"/>
			<point x="465.5" y="27.5"/>
			<point x="550" y="88.25"/>
			<point x="573.125" y="189" type="curve"/>
			<point x="610.625" y="189" type="line"/>
			<point x="587.125" y="79.75"/>
			<point x="504.5" y="2"/>
			<point x="386.125" y="-8.25" type="curve"/>
			<point x="367.25" y="-46" type="line"/>
			<point x="390.25" y="-54"/>
			<point x="434.25" y="-70"/>
			<point x="434.25" y="-123" type="curve" smooth="yes"/>
			<point x="434.25" y="-177"/>
			<point x="389.25" y="-209"/>
			<point x="334.25" y="-209" type="curve" smooth="yes"/>
			<point x="301.25" y="-209"/>
			<point x="278.25" y="-200"/>
		</contour>
	</outline>
</glyph>
<glyph name="Ntilde" format="2">
	<unicode hex="00D1"/>
	<advance width="630"/>
	<outline>
		<contour>
			<point x="135.5" y="547.5" type="curve" smooth="yes"/>
			<point x="135.5" y="0" type="line"/>
			<point x="93.75" y="0" type="line"/>
			<point x="93.75" y="680" type="line"/>
			<point x="139.75" y="680" type="line"/>
			<point x="496.625" y="68.875" type="line"/>
			<point x="494.5" y="93.125"/>
			<point x="494.5" y="115.375"/>
			<point x="494.5" y="132.5" type="curve" smooth="yes"/>
			<point x="494.5" y="680" type="line"/>
			<point x="536.25" y="680" type="line"/>
			<point x="536.25" y="0" type="line"/>
			<point x="490.25" y="0" type="line"/>
			<point x="133.375" y="611.125" type="line"/>
			<point x="135.5" y="586.875"/>
			<point x="135.5" y="564.625"/>
		</contour>
		<contour>
			<point x="211.5" y="760" type="curve"/>
			<point x="161.5" y="760" type="line"/>
			<point x="175.5" y="847"/>
			<point x="211.5" y="880"/>
			<point name=".hr01" x="251.5" y="880" type="curve" smooth="yes"/>
			<point x="276.5" y="880"/>
			<point x="298.5" y="870"/>
			<point x="320.5" y="859" type="curve"/>
			<point x="336.5" y="850"/>
			<point x="357.5" y="840"/>
			<point name=".hr02" x="377.5" y="840" type="curve" smooth="yes"/>
			<point x="397.5" y="840"/>
			<point x="412.5" y="852"/>
			<point x="417.5" y="880" type="curve"/>
			<point name=".hr03" x="467.5" y="880" type="line"/>
			<point x="453.5" y="793"/>
			<point x="417.5" y="760"/>
			<point name=".hr04" x="377.5" y="760" type="curve" smooth="yes"/>
			<point x="352.5" y="760"/>
			<point x="331.5" y="769"/>
			<point x="310.5" y="780" type="curve" smooth="yes"/>
			<point x="293.5" y="789"/>
			<point x="271.5" y="800"/>
			<point name=".hr05" x="251.5" y="800" type="curve" smooth="yes"/>
			<point x="231.5" y="800"/>
			<point x="216.5" y="788"/>
		</contour>
	</outline>
</glyph>
<glyph name="ae" format="2">
	<unicode hex="00E6"/>
	<advance width="757"/>
	<outline>
		<contour>
			<point x="110" y="136" type="curve" smooth="yes"/>
			<point x="110" y="69"/>
			<point x="163" y="55"/>
			<point x="189" y="55" type="curve" smooth="yes"/>
			<point x="234" y="55"/>
			<point x="307" y="97"/>
			<point x="327" y="141" type="curve"/>
			<point x="327" y="176"/>
			<point x="326" y="211"/>
			<point x="326" y="246" type="curve"/>
			<point x="292" y="238"/>
			<point x="110" y="231"/>
		</contour>
		<contour>
			<point x="411" y="290" type="curve"/>
			<point x="650" y="290" type="line"/>
			<point x="637" y="358"/>
			<point x="602" y="390"/>
			<point x="532" y="390" type="curve" smooth="yes"/>
			<point x="473" y="390"/>
			<point x="421" y="353"/>
		</contour>
		<contour>
			<point x="30" y="128" type="curve" smooth="yes"/>
			<point x="30" y="270"/>
			<point x="206" y="274"/>
			<point x="327" y="294" type="curve"/>
			<point x="327" y="320" type="line" smooth="yes"/>
			<point x="327" y="371"/>
			<point x="271" y="395"/>
			<point x="227" y="395" type="curve" smooth="yes"/>
			<point name=".hr01" x="171" y="395"/>
			<point x="124" y="369"/>
			<point x="120" y="320" type="curve"/>
			<point x="55" y="320" type="line"/>
			<point x="65" y="413"/>
			<point x="137" y="460"/>
			<point x="228" y="460" type="curve" smooth="yes"/>
			<point x="284" y="460"/>
			<point x="342" y="446"/>
			<point x="376" y="398" type="curve"/>
			<point x="409" y="441"/>
			<point x="460" y="470"/>
			<point x="531" y="470" type="curve" smooth="yes"/>
			<point name=".hr02" x="669" y="470"/>
			<point x="726" y="350"/>
			<point x="726" y="210" type="curve"/>
			<point x="410" y="210" type="line"/>
			<point x="417" y="137"/>
			<point x="450" y="70"/>
			<point x="532" y="70" type="curve" smooth="yes"/>
			<point x="576" y="70"/>
			<point x="623" y="88"/>
			<point x="646" y="114" type="curve"/>
			<point x="708" y="98" type="line"/>
			<point x="693" y="58"/>
			<point x="634" y="-10"/>
			<point x="532" y="-10" type="curve" smooth="yes"/>
			<point x="457" y="-10"/>
			<point x="410" y="8"/>
			<point x="367" y="74" type="curve"/>
			<point x="308" y="21"/>
			<point x="257" y="-10"/>
			<point x="177" y="-10" type="curve" smooth="yes"/>
			<point x="93" y="-10"/>
			<point x="30" y="43"/>
		</contour>
	</outline>
</glyph>
<glyph name="Cacute" format="2">
	<unicode hex="0106"/>
	<advance width="698"/>
	<outline>
		<contour>
			<point x="356.75" y="652.5" type="curve" smooth="yes"/>
			<point x="207.125" y="652.5"/>
			<point x="115.5" y="532.875"/>
			<point x="115.5" y="340" type="curve" smooth="yes"/>
			<point x="115.5" y="147.125"/>
			<point x="207.125" y="27.5"/>
			<point x="356.75" y="27.5" type="curve" smooth="yes"/>
			<point x="465.5" y="27.5"/>
			<point x="550" y="88.25"/>
			<point x="573.125" y="189" type="curve"/>
			<point x="610.625" y="189" type="line"/>
			<point x="585.25" y="71.375"/>
			<point x="490.625" y="-10"/>
			<point x="356.75" y="-10" type="curve" smooth="yes"/>
			<point x="183.25" y="-10"/>
			<point x="73.75" y="125.375"/>
			<point x="73.75" y="340" type="curve" smooth="yes"/>
			<point x="73.75" y="554.625"/>
			<point x="183.25" y="690"/>
			<point x="356.75" y="690" type="curve" smooth="yes"/>
			<point x="495.75" y="690"/>
			<point x="593.125" y="604.5"/>
			<point x="623.75" y="452.75" type="curve"/>
			<point x="586.25" y="452.75" type="line"/>
			<point x="557.75" y="578.125"/>
			<point x="473.875" y="652.5"/>
		</contour>
		<contour>
			<point x="425.125" y="893.75" type="line"/>
			<point x="363.625" y="710" type="line"/>
			<point x="328.875" y="710" type="line"/>
			<point x="381.375" y="893.75" type="line"/>
		</contour>
	</outline>
</glyph>
<glyph name="Ccircumflex" format="2">
	<unicode hex="0108"/>
	<advance width="698"/>
	<outline>
		<contour>
			<point x="356.75" y="652.5" type="curve" smooth="yes"/>
			<point x="207.125" y="652.5"/>
			<point x="115.5" y="532.875"/>
			<point x="115.5" y="340" type="curve" smooth="yes"/>
			<point x="115.5" y="147.125"/>
			<point x="207.125" y="27.5"/>
			<point x="356.75" y="27.5" type="curve" smooth="yes"/>
			<point x="465.5" y="27.5"/>
			<point x="550" y="88.25"/>
			<point x="573.125" y="189" type="curve"/>
			<point x="610.625" y="189" type="line"/>
			<point x="585.25" y="71.375"/>
			<point x="490.625" y="-10"/>
			<point x="356.75" y="-10" type="curve" smooth="yes"/>
			<point x="183.25" y="-10"/>
			<point x="73.75" y="125.375"/>
			<point x="73.75" y="340" type="curve" smooth="yes"/>
			<point x="73.75" y="554.625"/>
			<point x="183.25" y="690"/>
			<point x="356.75" y="690" type="curve" smooth="yes"/>
			<point x="495.75" y="690"/>
			<point x="593.125" y="604.5"/>
			<point x="623.75" y="452.75" type="curve"/>
			<point x="586.25" y="452.75" type="line"/>
			<point x="557.75" y="578.125"/>
			<point x="473.875" y="652.5"/>
		</contour>
		<contour>
			<point x="348.75" y="870.25" type="line"/>
			<point x="234.25" y="740" type="line"/>
			<point x="205" y="740" type="line"/>
			<point x="322.5" y="902.5" type="line"/>
			<point x="375" y="902.5" type="line"/>
			<point x="492.5" y="740" type="line"/>
			<point x="463.25" y="740" type="line"/>
		</contour>
	</outline>
</glyph>
<glyph name="ccircumflex" format="2">
	<unicode hex="0109"/>
	<advance width="510"/>
	<outline>
		<contour>
			<point x="50" y="230" type="curve" smooth="yes"/>
			<point x="50" y="348"/>
			<point x="95" y="470"/>
			<point x="259" y="470" type="curve" smooth="yes"/>
			<point x="378" y="470"/>
			<point x="437" y="405"/>
			<point x="459" y="320" type="curve"/>
			<point x="370" y="320" type="line"/>
			<point x="367" y="335"/>
			<point x="338" y="402"/>
			<point x="259" y="402" type="curve" smooth="yes"/>
			<point x="168" y="402"/>
			<point x="134" y="335"/>
			<point x="134" y="230" type="curve" smooth="yes"/>
			<point x="134" y="147"/>
			<point x="160" y="58"/>
			<point x="259" y="58" type="curve" smooth="yes"/>
			<point x="336" y="58"/>
			<point x="365" y="118"/>
			<point x="372" y="150" type="curve"/>
			<point x="460" y="150" type="line"/>
			<point x="440" y="79"/>
			<point x="387" y="-10"/>
			<point x="259" y="-10" type="curve" smooth="yes"/>
			<point x="94" y="-10"/>
			<point x="50" y="122"/>
		</contour>
		<contour>
			<point x="255" y="650.25" type="line"/>
			<point x="140.5" y="520" type="line"/>
			<point x="111.25" y="520" type="line"/>
			<point x="228.75" y="682.5" type="line"/>
			<point x="281.25" y="682.5" type="line"/>
			<point x="398.75" y="520" type="line"/>
			<point x="369.5" y="520" type="line"/>
		</contour>
	</outline>
</glyph>
<glyph name="Cdotaccent" format="2">
	<unicode hex="010A"/>
	<advance width="698"/>
	<outline>
		<contour>
			<point x="356.75" y="652.5" type="curve" smooth="yes"/>
			<point x="207.125" y="652.5"/>
			<point x="115.5" y="532.875"/>
			<point x="115.5" y="340" type="curve" smooth="yes"/>
			<point x="115.5" y="147.125"/>
			<point x="207.125" y="27.5"/>
			<point x="356.75" y="27.5" type="curve" smooth="yes"/>
			<point x="465.5" y="27.5"/>
			<point x="550" y="88.25"/>
			<point x="573.125" y="189" type="curve"/>
			<point x="610.625" y="189" type="line"/>
			<point x="585.25" y="71.375"/>
			<point x="490.625" y="-10"/>
			<point x="356.75" y="-10" type="curve" smooth="yes"/>
			<point x="183.25" y="-10"/>
			<point x="73.75" y="125.375"/>
			<point x="73.75" y="340" type="curve" smooth="yes"/>
			<point x="73.75" y="554.625"/>
			<point x="183.25" y="690"/>
			<point x="356.75" y="690" type="curve" smooth="yes"/>
			<point x="495.75" y="690"/>
			<point x="593.125" y="604.5"/>
			<point x="623.75" y="452.75" type="curve"/>
			<point x="586.25" y="452.75" type="line"/>
			<point x="557.75" y="578.125"/>
			<point x="473.875" y="652.5"/>
		</contour>
		<contour>
			<point x="368.75" y="827.5" type="line"/>
			<point x="368.75" y="740" type="line"/>
			<point x="328.75" y="740" type="line"/>
			<point x="328.75" y="827.5" type="line"/>
		</contour>
	</outline>
</glyph>
<glyph name="cdotaccent" format="2">
	<unicode hex="010B"/>
	<advance width="510"/>
	<outline>
		<contour>
			<point x="281.25" y="560" type="line"/>
			<point x="241.25" y="560" type="line"/>
			<point x="241.25" y="647.5" type="line"/>
			<point x="281.25" y="647.5" type="line"/>
		</contour>
		<contour>
			<point x="50" y="230" type="curve" smooth="yes"/>
			<point x="50" y="348"/>
			<point x="95" y="470"/>
			<point x="259" y="470" type="curve" smooth="yes"/>
			<point x="378" y="470"/>
			<point x="437" y="405"/>
			<point x="459" y="320" type="curve"/>
			<point x="370" y="320" type="line"/>
			<point x="367" y="335"/>
			<point x="338" y="402"/>
			<point x="259" y="402" type="curve" smooth="yes"/>
			<point x="168" y="402"/>
			<point x="134" y="335"/>
			<point x="134" y="230" type="curve" smooth="yes"/>
			<point x="134" y="147"/>
			<point x="160" y="58"/>
			<point x="259" y="58" type="curve" smooth="yes"/>
			<point x="336" y="58"/>
			<point x="365" y="118"/>
			<point x="372" y="150" type="curve"/>
			<point x="460" y="150" type="line"/>
			<point x="440" y="79"/>
			<point x="387" y="-10"/>
			<point x="259" y="-10" type="curve" smooth="yes"/>
			<point x="94" y="-10"/>
			<point x="50" y="122"/>
		</contour>
	</outline>
</glyph>
<glyph name="Ccaron" format="2">
	<unicode hex="010C"/>
	<advance width="698"/>
	<outline>
		<contour>
			<point x="356.75" y="652.5" type="curve" smooth="yes"/>
			<point x="207.125" y="652.5"/>
			<point x="115.5" y="532.875"/>
			<point x="115.5" y="340" type="curve" smooth="yes"/>
			<point x="115.5" y="147.125"/>
			<point x="207.125" y="27.5"/>
			<point x="356.75" y="27.5" type="curve" smooth="yes"/>
			<point x="465.5" y="27.5"/>
			<point x="550" y="88.25"/>
			<point x="573.125" y="189" type="curve"/>
			<point x="610.625" y="189" type="line"/>
			<point x="585.25" y="71.375"/>
			<point x="490.625" y="-10"/>
			<point x="356.75" y="-10" type="curve" smooth="yes"/>
			<point x="183.25" y="-10"/>
			<point x="73.75" y="125.375"/>
			<point x="73.75" y="340" type="curve" smooth="yes"/>
			<point x="73.75" y="554.625"/>
			<point x="183.25" y="690"/>
			<point x="356.75" y="690" type="curve" smooth="yes"/>
			<point x="495.75" y="690"/>
			<point x="593.125" y="604.5"/>
			<point x="623.75" y="452.75" type="curve"/>
			<point x="586.25" y="452.75" type="line"/>
			<point x="557.75" y="578.125"/>
			<point x="473.875" y="652.5"/>
		</contour>
		<contour>
			<point x="388.75" y="740" type="line"/>
			<point x="308.75" y="740" type="line"/>
			<point x="208.75" y="900" type="line"/>
			<point x="272.75" y="900" type="line"/>
			<point x="348.75" y="815" type="line"/>
			<point x="424.75" y="900" type="line"/>
			<point x="488.75" y="900" type="line"/>
		</contour>
	</outline>
</glyph>
<glyph name="Dcaron" format="2">
	<unicode hex="010E"/>
	<advance width="631"/>
	<outline>
		<contour>
			<point x="135.5" y="642.5" type="line"/>
			<point x="135.5" y="37.5" type="line"/>
			<point x="290.5" y="37.5" type="line" smooth="yes"/>
			<point x="445" y="37.5"/>
			<point x="516.625" y="166.5"/>
			<point x="516.625" y="340" type="curve" smooth="yes"/>
			<point x="516.625" y="518"/>
			<point x="447" y="642.5"/>
			<point x="290.5" y="642.5" type="curve" smooth="yes"/>
		</contour>
		<contour>
			<point x="93.75" y="680" type="line"/>
			<point x="290.5" y="680" type="line" smooth="yes"/>
			<point x="480.5" y="680"/>
			<point x="557.5" y="537.75"/>
			<point x="557.5" y="340" type="curve" smooth="yes"/>
			<point x="557.5" y="141.875"/>
			<point x="480.625" y="0"/>
			<point x="290.5" y="0" type="curve" smooth="yes"/>
			<point x="93.75" y="0" type="line"/>
		</contour>
		<contour>
			<point x="355.625" y="760" type="line"/>
			<point x="275.625" y="760" type="line"/>
			<point x="175.625" y="920" type="line"/>
			<point x="239.625" y="920" type="line"/>
			<point x="315.625" y="835" type="line"/>
			<point x="391.625" y="920" type="line"/>
			<point x="455.625" y="920" type="line"/>
		</contour>
	</outline>
</glyph>
<glyph name="Emacron" format="2">
	<unicode hex="0112"/>
	<advance width="510"/>
	<outline>
		<contour>
			<point x="420" y="331.25" type="line"/>
			<point x="135.5" y="331.25" type="line"/>
			<point x="135.5" y="36.25" type="line"/>
			<point x="460" y="36.25" type="line"/>
			<point x="460" y="0" type="line"/>
			<point x="93.75" y="0" type="line"/>
			<point x="93.75" y="680" type="line"/>
			<point x="460" y="680" type="line"/>
			<point x="460" y="643.75" type="line"/>
			<point x="135.5" y="643.75" type="line"/>
			<point x="135.5" y="367.5" type="line"/>
			<point x="420" y="367.5" type="line"/>
		</contour>
		<contour>
			<point name=".hr01" x="390" y="860" type="line"/>
			<point x="390" y="790" type="line"/>
			<point x="120" y="790" type="line"/>
			<point x="120" y="860" type="line"/>
		</contour>
	</outline>
</glyph>
<glyph name="emacron" format="2">
	<unicode hex="0113"/>
	<advance width="518"/>
	<outline>
		<contour>
			<point x="139" y="278" type="curve"/>
			<point x="379" y="278" type="line"/>
			<point x="379" y="278"/>
			<point x="371" y="402"/>
			<point x="259" y="402" type="curve" smooth="yes"/>
			<point x="147" y="402"/>
			<point x="139" y="278"/>
		</contour>
		<contour>
			<point x="50" y="240" type="curve" smooth="yes"/>
			<point x="50" y="360"/>
			<point x="119" y="470"/>
			<point x="259" y="470" type="curve" smooth="yes"/>
			<point x="399" y="470"/>
			<point x="468" y="360"/>
			<point x="468" y="240" type="curve" smooth="yes"/>
			<point x="468" y="210" type="line"/>
			<point x="134" y="210" type="line"/>
			<point x="134" y="140"/>
			<point x="179" y="58"/>
			<point x="259" y="58" type="curve" smooth="yes"/>
			<point x="329" y="58"/>
			<point x="365" y="98"/>
			<point x="375" y="142" type="curve"/>
			<point x="458" y="142" type="line"/>
			<point x="443" y="73"/>
			<point x="409" y="-10"/>
			<point x="259" y="-10" type="curve" smooth="yes"/>
			<point x="109" y="-10"/>
			<point x="50" y="120"/>
		</contour>
		<contour>
			<point x="395" y="640" type="line"/>
			<point x="395" y="570" type="line"/>
			<point x="125" y="570" type="line"/>
			<point x="125" y="640" type="line"/>
		</contour>
	</outline>
</glyph>
<glyph name="Ebreve" format="2">
	<unicode hex="0114"/>
	<advance width="510"/>
	<outline>
		<contour>
			<point x="420" y="331.25" type="line"/>
			<point x="135.5" y="331.25" type="line"/>
			<point x="135.5" y="36.25" type="line"/>
			<point x="460" y="36.25" type="line"/>
			<point x="460" y="0" type="line"/>
			<point x="93.75" y="0" type="line"/>
			<point x="93.75" y="680" type="line"/>
			<point x="460" y="680" type="line"/>
			<point x="460" y="643.75" type="line"/>
			<point x="135.5" y="643.75" type="line"/>
			<point x="135.5" y="367.5" type="line"/>
			<point x="420" y="367.5" type="line"/>
		</contour>
		<contour>
			<point name=".hr01" x="100" y="880" type="curve"/>
			<point x="180" y="880" type="line"/>
			<point x="180" y="820"/>
			<point x="220" y="800"/>
			<point x="255" y="800" type="curve" smooth="yes"/>
			<point x="290" y="800"/>
			<point x="330" y="820"/>
			<point x="330" y="880" type="curve"/>
			<point x="410" y="880" type="line"/>
			<point x="410" y="780"/>
			<point x="335" y="740"/>
			<point x="255" y="740" type="curve" smooth="yes"/>
			<point x="175" y="740"/>
			<point x="100" y="780"/>
		</contour>
	</outline>
</glyph>
<glyph name="Edotaccent" format="2">
	<unicode hex="0116"/>
	<advance width="510"/>
	<outline>
		<contour>
			<point x="420" y="331.25" type="line"/>
			<point x="135.5" y="331.25" type="line"/>
			<point x="135.5" y="36.25" type="line"/>
			<point x="460" y="36.25" type="line"/>
			<point x="460" y="0" type="line"/>
			<point x="93.75" y="0" type="line"/>
			<point x="93.75" y="680" type="line"/>
			<point x="460" y="680" type="line"/>
			<point x="460" y="643.75" type="line"/>
			<point x="135.5" y="643.75" type="line"/>
			<point x="135.5" y="367.5" type="line"/>
			<point x="420" y="367.5" type="line"/>
		</contour>
		<contour>
			<point x="275" y="827.5" type="line"/>
			<point x="275" y="740" type="line"/>
			<point x="235" y="740" type="line"/>
			<point x="235" y="827.5" type="line"/>
		</contour>
	</outline>
</glyph>
<glyph name="edotaccent" format="2">
	<unicode hex="0117"/>
	<advance width="518"/>
	<outline>
		<contour>
			<point x="139" y="278" type="curve"/>
			<point x="379" y="278" type="line"/>
			<point x="379" y="278"/>
			<point x="371" y="402"/>
			<point x="259" y="402" type="curve" smooth="yes"/>
			<point x="147" y="402"/>
			<point x="139" y="278"/>
		</contour>
		<contour>
			<point x="50" y="240" type="curve" smooth="yes"/>
			<point x="50" y="360"/>
			<point x="119" y="470"/>
			<point x="259" y="470" type="curve" smooth="yes"/>
			<point x="399" y="470"/>
			<point x="468" y="360"/>
			<point x="468" y="240" type="curve" smooth="yes"/>
			<point x="468" y="210" type="line"/>
			<point x="134" y="210" type="line"/>
			<point x="134" y="140"/>
			<point x="179" y="58"/>
			<point x="259" y="58" type="curve" smooth="yes"/>
			<point x="329" y="58"/>
			<point x="365" y="98"/>
			<point x="375" y="142" type="curve"/>
			<point x="458" y="142" type="line"/>
			<point x="443" y="73"/>
			<point x="409" y="-10"/>
			<point x="259" y="-10" type="curve" smooth="yes"/>
			<point x="109" y="-10"/>
			<point x="50" y="120"/>
		</contour>
		<contour>
			<point x="286.25" y="647.5" type="line"/>
			<point x="286.25" y="560" type="line"/>
			<point x="246.25" y="560" type="line"/>
			<point x="246.25" y="647.5" type="line"/>
		</contour>
	</outline>
</glyph>
<glyph name="Eogonek" format="2">
	<unicode hex="0118"/>
	<advance width="510"/>
	<outline>
		<contour>
			<point x="460" y="80" type="line"/>
			<point x="460" y="0" type="line"/>
			<point x="308" y="0" type="line"/>
			<point x="268" y="-31"/>
			<point x="245" y="-67"/>
			<point x="245" y="-104" type="curve" smooth="yes"/>
			<point x="245" y="-135"/>
			<point x="267" y="-150"/>
			<point x="291" y="-150" type="curve" smooth="yes"/>
			<point x="307" y="-150"/>
			<point x="320" y="-145"/>
			<point x="331" y="-137" type="curve"/>
			<point x="353" y="-178" type="line"/>
			<point x="334" y="-193"/>
			<point x="299" y="-205"/>
			<point x="274" y="-205" type="curve" smooth="yes"/>
			<point x="224" y="-205"/>
			<point x="184" y="-176"/>
			<point x="184" y="-120" type="curve" smooth="yes"/>
			<point x="184" y="-69"/>
			<point x="218" y="-26"/>
			<point x="250" y="0" type="curve"/>
			<point x="50" y="0" type="line"/>
			<point x="50" y="700" type="line"/>
			<point x="460" y="700" type="line"/>
			<point x="460" y="620" type="line"/>
			<point x="140" y="620" type="line"/>
			<point x="140" y="397" type="line"/>
			<point x="420" y="397" type="line"/>
			<point x="420" y="317" type="line"/>
			<point x="140" y="317" type="line"/>
			<point x="140" y="80" type="line"/>
		</contour>
	</outline>
</glyph>
<glyph name="Ecaron" format="2">
	<unicode hex="011A"/>
	<advance width="510"/>
	<outline>
		<contour>
			<point x="420" y="331.25" type="line"/>
			<point x="135.5" y="331.25" type="line"/>
			<point x="135.5" y="36.25" type="line"/>
			<point x="460" y="36.25" type="line"/>
			<point x="460" y="0" type="line"/>
			<point x="93.75" y="0" type="line"/>
			<point x="93.75" y="680" type="line"/>
			<point x="460" y="680" type="line"/>
			<point x="460" y="643.75" type="line"/>
			<point x="135.5" y="643.75" type="line"/>
			<point x="135.5" y="367.5" type="line"/>
			<point x="420" y="367.5" type="line"/>
		</contour>
		<contour>
			<point x="295" y="740" type="line"/>
			<point x="215" y="740" type="line"/>
			<point x="115" y="900" type="line"/>
			<point x="179" y="900" type="line"/>
			<point x="255" y="815" type="line"/>
			<point x="331" y="900" type="line"/>
			<point x="395" y="900" type="line"/>
		</contour>
	</outline>
</glyph>
<glyph name="Gbreve" format="2">
	<unicode hex="011E"/>
	<advance width="700"/>
	<outline>
		<contour>
			<point x="356.75" y="652.5" type="curve" smooth="yes"/>
			<point x="207.125" y="652.5"/>
			<point x="115.5" y="532.875"/>
			<point x="115.5" y="340" type="curve" smooth="yes"/>
			<point x="115.5" y="147.125"/>
			<point x="207.125" y="27.5"/>
			<point x="356.75" y="27.5" type="curve" smooth="yes"/>
			<point x="446" y="27.5"/>
			<point x="534.125" y="85.375"/>
			<point x="577.75" y="158.625" type="curve"/>
			<point x="577.75" y="273.75" type="line"/>
			<point x="382.875" y="273.75" type="line"/>
			<point x="382.875" y="306.25" type="line"/>
			<point x="615.75" y="306.25" type="line"/>
			<point x="615.75" y="0" type="line"/>
			<point x="577.75" y="0" type="line"/>
			<point x="577.75" y="101.75" type="line"/>
			<point x="534.375" y="39"/>
			<point x="441.875" y="-10"/>
			<point x="356.75" y="-10" type="curve" smooth="yes"/>
			<point x="183.25" y="-10"/>
			<point x="73.75" y="125.375"/>
			<point x="73.75" y="340" type="curve" smooth="yes"/>
			<point x="73.75" y="554.625"/>
			<point x="183.25" y="690"/>
			<point x="356.75" y="690" type="curve" smooth="yes"/>
			<point x="495.75" y="690"/>
			<point x="593.125" y="604.5"/>
			<point x="623.75" y="452.75" type="curve"/>
			<point x="586.25" y="452.75" type="line"/>
			<point x="557.75" y="578.125"/>
			<point x="473.875" y="652.5"/>
		</contour>
		<contour>
			<point x="198.25" y="880" type="curve"/>
			<point x="278.25" y="880" type="line"/>
			<point x="278.25" y="820"/>
			<point x="318.25" y="800"/>
			<point x="353.25" y="800" type="curve" smooth="yes"/>
			<point x="388.25" y="800"/>
			<point x="428.25" y="820"/>
			<point x="428.25" y="880" type="curve"/>
			<point x="508.25" y="880" type="line"/>
			<point x="508.25" y="780"/>
			<point x="433.25" y="740"/>
			<point x="353.25" y="740" type="curve" smooth="yes"/>
			<point x="273.25" y="740"/>
			<point x="198.25" y="780"/>
		</contour>
	</outline>
</glyph>
<glyph name="Gdotaccent" format="2">
	<unicode hex="0120"/>
	<advance width="700"/>
	<outline>
		<contour>
			<point x="356.75" y="652.5" type="curve" smooth="yes"/>
			<point x="207.125" y="652.5"/>
			<point x="115.5" y="532.875"/>
			<point x="115.5" y="340" type="curve" smooth="yes"/>
			<point x="115.5" y="147.125"/>
			<point x="207.125" y="27.5"/>
			<point x="356.75" y="27.5" type="curve" smooth="yes"/>
			<point x="446" y="27.5"/>
			<point x="534.125" y="85.375"/>
			<point x="577.75" y="158.625" type="curve"/>
			<point x="577.75" y="273.75" type="line"/>
			<point x="382.875" y="273.75" type="line"/>
			<point x="382.875" y="306.25" type="line"/>
			<point x="615.75" y="306.25" type="line"/>
			<point x="615.75" y="0" type="line"/>
			<point x="577.75" y="0" type="line"/>
			<point x="577.75" y="101.75" type="line"/>
			<point x="534.375" y="39"/>
			<point x="441.875" y="-10"/>
			<point x="356.75" y="-10" type="curve" smooth="yes"/>
			<point x="183.25" y="-10"/>
			<point x="73.75" y="125.375"/>
			<point x="73.75" y="340" type="curve" smooth="yes"/>
			<point x="73.75" y="554.625"/>
			<point x="183.25" y="690"/>
			<point x="356.75" y="690" type="curve" smooth="yes"/>
			<point x="495.75" y="690"/>
			<point x="593.125" y="604.5"/>
			<point x="623.75" y="452.75" type="curve"/>
			<point x="586.25" y="452.75" type="line"/>
			<point x="557.75" y="578.125"/>
			<point x="473.875" y="652.5"/>
		</contour>
		<contour>
			<point x="373.25" y="827.5" type="line"/>
			<point x="373.25" y="740" type="line"/>
			<point x="333.25" y="740" type="line"/>
			<point x="333.25" y="827.5" type="line"/>
		</contour>
	</outline>
</glyph>
<glyph name="gdotaccent" format="2">
	<unicode hex="0121"/>
	<advance width="492"/>
	<outline>
		<contour>
			<point x="115" y="230" type="curve" smooth="yes"/>
			<point x="115" y="159"/>
			<point x="141" y="65"/>
			<point x="246" y="65" type="curve" smooth="yes"/>
			<point x="331" y="65"/>
			<point x="367" y="143"/>
			<point x="367" y="210" type="curve" smooth="yes"/>
			<point x="367" y="245" type="line" smooth="yes"/>
			<point x="367" y="347"/>
			<point x="311" y="405"/>
			<point x="246" y="405" type="curve" smooth="yes"/>
			<point x="156" y="405"/>
			<point x="115" y="337"/>
		</contour>
		<contour>
			<point x="35" y="230" type="curve" smooth="yes"/>
			<point x="35" y="355"/>
			<point x="96" y="470"/>
			<point x="226" y="470" type="curve" smooth="yes"/>
			<point x="284" y="470"/>
			<point x="344" y="439"/>
			<point x="367" y="388" type="curve"/>
			<point x="387" y="459" type="line"/>
			<point x="447" y="459" type="line"/>
			<point x="447" y="27" type="line" smooth="yes"/>
			<point x="447" y="-146"/>
			<point x="362" y="-200"/>
			<point x="244" y="-200" type="curve" smooth="yes"/>
			<point x="114" y="-200"/>
			<point x="62" y="-106"/>
			<point x="52" y="-54" type="curve"/>
			<point x="135" y="-54" type="line"/>
			<point x="153" y="-113"/>
			<point x="206" y="-134"/>
			<point x="244" y="-134" type="curve" smooth="yes"/>
			<point x="316" y="-134"/>
			<point x="367" y="-91"/>
			<point x="367" y="27" type="curve" smooth="yes"/>
			<point x="367" y="89" type="line"/>
			<point x="339" y="33"/>
			<point x="286" y="-1"/>
			<point x="227" y="-1" type="curve" smooth="yes"/>
			<point x="56" y="-1"/>
			<point x="35" y="144"/>
		</contour>
		<contour>
			<point x="267.25" y="647.5" type="line"/>
			<point x="267.25" y="560" type="line"/>
			<point x="227.25" y="560" type="line"/>
			<point x="227.25" y="647.5" type="line"/>
		</contour>
	</outline>
</glyph>
<glyph name="uni0122" format="2">
	<unicode hex="0122"/>
	<advance width="700"/>
	<outline>
		<contour>
			<point x="356.75" y="652.5" type="curve" smooth="yes"/>
			<point x="207.125" y="652.5"/>
			<point x="115.5" y="532.875"/>
			<point x="115.5" y="340" type="curve" smooth="yes"/>
			<point x="115.5" y="147.125"/>
			<point x="207.125" y="27.5"/>
			<point x="356.75" y="27.5" type="curve" smooth="yes"/>
			<point x="446" y="27.5"/>
			<point x="534.125" y="85.375"/>
			<point x="577.75" y="158.625" type="curve"/>
			<point x="577.75" y="273.75" type="line"/>
			<point x="382.875" y="273.75" type="line"/>
			<point x="382.875" y="306.25" type="line"/>
			<point x="615.75" y="306.25" type="line"/>
			<point x="615.75" y="0" type="line"/>
			<point x="577.75" y="0" type="line"/>
			<point x="577.75" y="101.75" type="line"/>
			<point x="534.375" y="39"/>
			<point x="441.875" y="-10"/>
			<point x="356.75" y="-10" type="curve" smooth="yes"/>
			<point x="183.25" y="-10"/>
			<point x="73.75" y="125.375"/>
			<point x="73.75" y="340" type="curve" smooth="yes"/>
			<point x="73.75" y="554.625"/>
			<point x="183.25" y="690"/>
			<point x="356.75" y="690" type="curve" smooth="yes"/>
			<point x="495.75" y="690"/>
			<point x="593.125" y="604.5"/>
			<point x="623.75" y="452.75" type="curve"/>
			<point x="586.25" y="452.75" type="line"/>
			<point x="557.75" y="578.125"/>
			<point x="473.875" y="652.5"/>
		</contour>
		<contour>
			<point x="332.25" y="-140" type="line"/>
			<point x="310.25" y="-140" type="line"/>
			<point x="310.25" y="-60" type="line"/>
			<point x="390.25" y="-60" type="line"/>
			<point x="390.25" y="-140" type="line"/>
			<point x="344.25" y="-270" type="line"/>
			<point x="310.25" y="-270" type="line"/>
		</contour>
	</outline>
</glyph>
<glyph name="Hcircumflex" format="2">
	<unicode hex="0124"/>
	<advance width="609"/>
	<outline>
		<contour>
			<point x="515.5" y="680" type="line"/>
			<point x="515.5" y="0" type="line"/>
			<point x="473.75" y="0" type="line"/>
			<point x="473.75" y="327" type="line"/>
			<point x="135.5" y="327" type="line"/>
			<point x="135.5" y="0" type="line"/>
			<point x="93.75" y="0" type="line"/>
			<point x="93.75" y="680" type="line"/>
			<point x="135.5" y="680" type="line"/>
			<point x="135.5" y="364.5" type="line"/>
			<point x="473.75" y="364.5" type="line"/>
			<point x="473.75" y="680" type="line"/>
		</contour>
		<contour>
			<point x="304.625" y="890.25" type="line"/>
			<point x="190.125" y="760" type="line"/>
			<point x="160.875" y="760" type="line"/>
			<point x="278.375" y="922.5" type="line"/>
			<point x="330.875" y="922.5" type="line"/>
			<point x="448.375" y="760" type="line"/>
			<point x="419.125" y="760" type="line"/>
		</contour>
	</outline>
</glyph>
<glyph name="Itilde" format="2">
	<unicode hex="0128"/>
	<advance width="229"/>
	<outline>
		<contour>
			<point x="135.5" y="0" type="line"/>
			<point x="93.75" y="0" type="line"/>
			<point x="93.75" y="680" type="line"/>
			<point x="135.5" y="680" type="line"/>
		</contour>
		<contour>
			<point x="11.625" y="760" type="curve"/>
			<point x="-38.375" y="760" type="line"/>
			<point x="-24.375" y="847"/>
			<point name=".hr01" x="11.625" y="880"/>
			<point x="51.625" y="880" type="curve" smooth="yes"/>
			<point x="76.625" y="880"/>
			<point x="98.625" y="870"/>
			<point x="120.625" y="859" type="curve"/>
			<point x="136.625" y="850"/>
			<point name=".hr02" x="157.625" y="840"/>
			<point x="177.625" y="840" type="curve" smooth="yes"/>
			<point x="197.625" y="840"/>
			<point x="212.625" y="852"/>
			<point name=".hr03" x="217.625" y="880" type="curve"/>
			<point x="267.625" y="880" type="line"/>
			<point x="253.625" y="793"/>
			<point name=".hr04" x="217.625" y="760"/>
			<point x="177.625" y="760" type="curve" smooth="yes"/>
			<point x="152.625" y="760"/>
			<point x="131.625" y="769"/>
			<point x="110.625" y="780" type="curve" smooth="yes"/>
			<point x="93.625" y="789"/>
			<point name=".hr05" x="71.625" y="800"/>
			<point x="51.625" y="800" type="curve" smooth="yes"/>
			<point x="31.625" y="800"/>
			<point x="16.625" y="788"/>
		</contour>
	</outline>
</glyph>
<glyph name="Ibreve" format="2">
	<unicode hex="012C"/>
	<advance width="229"/>
	<outline>
		<contour>
			<point x="135.5" y="0" type="line"/>
			<point x="93.75" y="0" type="line"/>
			<point x="93.75" y="680" type="line"/>
			<point x="135.5" y="680" type="line"/>
		</contour>
		<contour>
			<point x="-40.375" y="880" type="curve"/>
			<point x="39.625" y="880" type="line"/>
			<point x="39.625" y="820"/>
			<point x="79.625" y="800"/>
			<point x="114.625" y="800" type="curve" smooth="yes"/>
			<point x="149.625" y="800"/>
			<point x="189.625" y="820"/>
			<point x="189.625" y="880" type="curve"/>
			<point x="269.625" y="880" type="line"/>
			<point x="269.625" y="780"/>
			<point x="194.625" y="740"/>
			<point x="114.625" y="740" type="curve" smooth="yes"/>
			<point x="34.625" y="740"/>
			<point x="-40.375" y="780"/>
		</contour>
	</outline>
</glyph>
<glyph name="ibreve" format="2">
	<unicode hex="012D"/>
	<advance width="280"/>
	<outline>
		<contour>
			<point x="-15" y="660" type="curve"/>
			<point x="65" y="660" type="line"/>
			<point x="65" y="600"/>
			<point x="105" y="580"/>
			<point x="140" y="580" type="curve" smooth="yes"/>
			<point x="175" y="580"/>
			<point x="215" y="600"/>
			<point x="215" y="660" type="curve"/>
			<point x="295" y="660" type="line"/>
			<point x="295" y="560"/>
			<point x="220" y="520"/>
			<point x="140" y="520" type="curve" smooth="yes"/>
			<point x="60" y="520"/>
			<point x="-15" y="560"/>
		</contour>
		<contour>
			<point x="140" y="0" type="line"/>
			<point x="100" y="0" type="line"/>
			<point x="100" y="460" type="line"/>
			<point x="140" y="460" type="line"/>
		</contour>
	</outline>
</glyph>
<glyph name="Iogonek" format="2">
	<unicode hex="012E"/>
	<advance width="229"/>
	<outline>
		<contour>
			<point x="46.25" y="-140.625" type="curve" smooth="yes"/>
			<point x="46.25" y="-92.75"/>
			<point x="67.5" y="-52.125"/>
			<point x="112.875" y="0" type="curve"/>
			<point x="93.75" y="0" type="line"/>
			<point x="93.75" y="680" type="line"/>
			<point x="135.5" y="680" type="line"/>
			<point x="135.5" y="0" type="line"/>
			<point x="145.375" y="0" type="line"/>
			<point x="97.375" y="-55.5"/>
			<point x="81.375" y="-88.25"/>
			<point x="81.375" y="-129.125" type="curve" smooth="yes"/>
			<point x="81.375" y="-161.875"/>
			<point x="97" y="-178.75"/>
			<point x="131.125" y="-178.75" type="curve" smooth="yes"/>
			<point x="147" y="-178.75"/>
			<point x="162.25" y="-171"/>
			<point x="172.125" y="-161.375" type="curve"/>
			<point x="182.875" y="-188.125" type="line"/>
			<point x="162.875" y="-203.875"/>
			<point x="144.375" y="-210"/>
			<point x="119.375" y="-210" type="curve" smooth="yes"/>
			<point x="72.125" y="-210"/>
			<point x="46.25" y="-184.375"/>
		</contour>
	</outline>
</glyph>
<glyph name="iogonek" format="2">
	<unicode hex="012F"/>
	<advance width="220"/>
	<outline>
		<contour>
			<point x="150" y="460" type="line"/>
			<point x="150" y="0" type="line"/>
			<point x="134" y="0" type="line"/>
			<point x="94" y="-31"/>
			<point name=".hr01" x="71" y="-67"/>
			<point x="71" y="-104" type="curve" smooth="yes"/>
			<point x="71" y="-135"/>
			<point x="93" y="-150"/>
			<point x="117" y="-150" type="curve" smooth="yes"/>
			<point x="133" y="-150"/>
			<point x="146" y="-145"/>
			<point x="157" y="-137" type="curve"/>
			<point x="179" y="-178" type="line"/>
			<point x="160" y="-193"/>
			<point x="125" y="-205"/>
			<point x="100" y="-205" type="curve" smooth="yes"/>
			<point x="50" y="-205"/>
			<point x="10" y="-176"/>
			<point x="10" y="-120" type="curve" smooth="yes"/>
			<point x="10" y="-69"/>
			<point x="44" y="-26"/>
			<point x="76" y="0" type="curve"/>
			<point name=".hr02" x="70" y="0" type="line"/>
			<point x="70" y="460" type="line"/>
		</contour>
		<contour>
			<point x="150" y="610" type="line"/>
			<point x="150" y="530" type="line"/>
			<point x="70" y="530" type="line"/>
			<point x="70" y="610" type="line"/>
		</contour>
	</outline>
</glyph>
<glyph name="dotlessi" format="2">
	<unicode hex="0131"/>
	<advance width="235"/>
	<outline>
		<contour>
			<point x="137.5" y="0" type="line"/>
			<point x="97.5" y="0" type="line"/>
			<point x="97.5" y="460" type="line"/>
			<point x="137.5" y="460" type="line"/>
		</contour>
	</outline>
	<anchor name="top" x="117.5" y="520"/>
</glyph>
<glyph name="Jcircumflex" format="2">
	<unicode hex="0134"/>
	<advance width="286"/>
	<outline>
		<contour>
			<point x="80.25" y="0" type="curve" smooth="yes"/>
			<point x="50" y="0" type="line"/>
			<point x="50" y="37.5" type="line"/>
			<point x="76" y="37.5" type="line" smooth="yes"/>
			<point x="116" y="37.5"/>
			<point x="148" y="97.25"/>
			<point x="148" y="161.25" type="curve" smooth="yes"/>
			<point x="148" y="680" type="line"/>
			<point x="189.75" y="680" type="line"/>
			<point x="189.75" y="174" type="line" smooth="yes"/>
			<point x="189.75" y="66.25"/>
			<point x="149" y="0"/>
		</contour>
		<contour>
			<point x="193" y="880.25" type="line"/>
			<point x="78.5" y="750" type="line"/>
			<point x="49.25" y="750" type="line"/>
			<point x="166.75" y="912.5" type="line"/>
			<point x="219.25" y="912.5" type="line"/>
			<point x="336.75" y="750" type="line"/>
			<point x="307.5" y="750" type="line"/>
		</contour>
	</outline>
</glyph>
<glyph name="jcircumflex" format="2">
	<unicode hex="0135"/>
	<advance width="220"/>
	<outline>
		<contour>
			<point x="-103" y="-90" type="curve"/>
			<point x="-24" y="-90" type="line"/>
			<point x="-8" y="-114"/>
			<point x="7" y="-120"/>
			<point x="30" y="-120" type="curve" smooth="yes"/>
			<point x="55" y="-120"/>
			<point x="70" y="-103"/>
			<point x="70" y="-55" type="curve" smooth="yes"/>
			<point x="70" y="460" type="line"/>
			<point x="150" y="460" type="line"/>
			<point x="150" y="-31" type="line" smooth="yes"/>
			<point x="150" y="-139"/>
			<point x="93" y="-200"/>
			<point x="28" y="-200" type="curve" smooth="yes"/>
			<point x="-36" y="-200"/>
			<point x="-87" y="-149"/>
		</contour>
		<contour>
			<point x="110" y="650.25" type="line"/>
			<point x="-4.5" y="520" type="line"/>
			<point x="-33.75" y="520" type="line"/>
			<point x="83.75" y="682.5" type="line"/>
			<point x="136.25" y="682.5" type="line"/>
			<point x="253.75" y="520" type="line"/>
			<point x="224.5" y="520" type="line"/>
		</contour>
	</outline>
</glyph>
<glyph name="uni0136" format="2">
	<unicode hex="0136"/>
	<advance width="523"/>
	<outline>
		<contour>
			<point x="135.5" y="303.875" type="line"/>
			<point x="135.5" y="0" type="line"/>
			<point x="93.75" y="0" type="line"/>
			<point x="93.75" y="680" type="line"/>
			<point x="135.5" y="680" type="line"/>
			<point x="135.5" y="342.375" type="line"/>
			<point x="233.125" y="359.375" type="line"/>
			<point x="425" y="680" type="line"/>
			<point x="472.75" y="680" type="line"/>
			<point x="272.75" y="350" type="line"/>
			<point x="512.75" y="0" type="line"/>
			<point x="462.5" y="0" type="line"/>
			<point x="239.75" y="324.625" type="line"/>
		</contour>
		<contour>
			<point x="243.375" y="-140" type="line"/>
			<point x="221.375" y="-140" type="line"/>
			<point x="221.375" y="-60" type="line"/>
			<point x="301.375" y="-60" type="line"/>
			<point x="301.375" y="-140" type="line"/>
			<point x="255.375" y="-270" type="line"/>
			<point x="221.375" y="-270" type="line"/>
		</contour>
	</outline>
</glyph>
<glyph name="Lacute" format="2">
	<unicode hex="0139"/>
	<advance width="554"/>
	<outline>
		<contour>
			<point x="135.5" y="680" type="line"/>
			<point x="135.5" y="37.5" type="line"/>
			<point x="457.125" y="37.5" type="line"/>
			<point x="457.125" y="0" type="line"/>
			<point x="93.75" y="0" type="line"/>
			<point x="93.75" y="680" type="line"/>
		</contour>
		<contour>
			<point x="215.125" y="893.75" type="line"/>
			<point x="153.625" y="710" type="line"/>
			<point x="118.875" y="710" type="line"/>
			<point x="171.375" y="893.75" type="line"/>
		</contour>
	</outline>
</glyph>
<glyph name="uni0145" format="2">
	<unicode hex="0145"/>
	<advance width="600"/>
	<outline>
		<contour>
			<point x="19.25" y="547.5" type="curve" smooth="yes"/>
			<point x="19.25" y="0" type="line"/>
			<point x="-22.5" y="0" type="line"/>
			<point x="-22.5" y="680" type="line"/>
			<point x="23.5" y="680" type="line"/>
			<point x="380.375" y="68.875" type="line"/>
			<point x="378.25" y="93.125"/>
			<point x="378.25" y="115.375"/>
			<point x="378.25" y="132.5" type="curve" smooth="yes"/>
			<point x="378.25" y="680" type="line"/>
			<point x="420" y="680" type="line"/>
			<point x="420" y="0" type="line"/>
			<point x="374" y="0" type="line"/>
			<point x="17.125" y="611.125" type="line"/>
			<point x="19.25" y="586.875"/>
			<point x="19.25" y="564.625"/>
		</contour>
		<contour>
			<point x="282" y="-140" type="line"/>
			<point x="260" y="-140" type="line"/>
			<point x="260" y="-60" type="line"/>
			<point x="340" y="-60" type="line"/>
			<point x="340" y="-140" type="line"/>
			<point x="294" y="-270" type="line"/>
			<point x="260" y="-270" type="line"/>
		</contour>
	</outline>
</glyph>
<glyph name="Omacron" format="2">
	<unicode hex="014C"/>
	<advance width="714"/>
	<outline>
		<contour>
			<point x="356.75" y="652.5" type="curve" smooth="yes"/>
			<point x="207.125" y="652.5"/>
			<point x="115.5" y="532.875"/>
			<point x="115.5" y="340" type="curve" smooth="yes"/>
			<point x="115.5" y="147.125"/>
			<point x="207.125" y="27.5"/>
			<point x="356.75" y="27.5" type="curve" smooth="yes"/>
			<point x="506.375" y="27.5"/>
			<point x="598" y="147.125"/>
			<point x="598" y="340" type="curve" smooth="yes"/>
			<point x="598" y="532.875"/>
			<point x="506.375" y="652.5"/>
		</contour>
		<contour>
			<point x="356.75" y="-10" type="curve" smooth="yes"/>
			<point x="183.25" y="-10"/>
			<point x="73.75" y="125.375"/>
			<point x="73.75" y="340" type="curve" smooth="yes"/>
			<point x="73.75" y="554.625"/>
			<point x="183.25" y="690"/>
			<point x="356.75" y="690" type="curve" smooth="yes"/>
			<point x="530.25" y="690"/>
			<point x="639.75" y="554.625"/>
			<point x="639.75" y="340" type="curve" smooth="yes"/>
			<point x="639.75" y="125.375"/>
			<point x="530.25" y="-10"/>
		</contour>
		<contour>
			<point x="492" y="860" type="line"/>
			<point x="492" y="790" type="line"/>
			<point x="222" y="790" type="line"/>
			<point x="222" y="860" type="line"/>
		</contour>
	</outline>
</glyph>
<glyph name="Obreve" format="2">
	<unicode hex="014E"/>
	<advance width="714"/>
	<outline>
		<contour>
			<point x="356.75" y="652.5" type="curve" smooth="yes"/>
			<point x="207.125" y="652.5"/>
			<point x="115.5" y="532.875"/>
			<point x="115.5" y="340" type="curve" smooth="yes"/>
			<point x="115.5" y="147.125"/>
			<point x="207.125" y="27.5"/>
			<point x="356.75" y="27.5" type="curve" smooth="yes"/>
			<point x="506.375" y="27.5"/>
			<point x="598" y="147.125"/>
			<point x="598" y="340" type="curve" smooth="yes"/>
			<point x="598" y="532.875"/>
			<point x="506.375" y="652.5"/>
		</contour>
		<contour>
			<point x="356.75" y="-10" type="curve" smooth="yes"/>
			<point x="183.25" y="-10"/>
			<point x="73.75" y="125.375"/>
			<point x="73.75" y="340" type="curve" smooth="yes"/>
			<point x="73.75" y="554.625"/>
			<point x="183.25" y="690"/>
			<point x="356.75" y="690" type="curve" smooth="yes"/>
			<point x="530.25" y="690"/>
			<point x="639.75" y="554.625"/>
			<point x="639.75" y="340" type="curve" smooth="yes"/>
			<point x="639.75" y="125.375"/>
			<point x="530.25" y="-10"/>
		</contour>
		<contour>
			<point x="202" y="880" type="curve"/>
			<point x="282" y="880" type="line"/>
			<point x="282" y="820"/>
			<point x="322" y="800"/>
			<point x="357" y="800" type="curve" smooth="yes"/>
			<point x="392" y="800"/>
			<point x="432" y="820"/>
			<point x="432" y="880" type="curve"/>
			<point x="512" y="880" type="line"/>
			<point x="512" y="780"/>
			<point x="437" y="740"/>
			<point x="357" y="740" type="curve" smooth="yes"/>
			<point x="277" y="740"/>
			<point x="202" y="780"/>
		</contour>
	</outline>
</glyph>
<glyph name="Ohungarumlaut" format="2">
	<unicode hex="0150"/>
	<advance width="714"/>
	<outline>
		<contour>
			<point x="356.75" y="652.5" type="curve" smooth="yes"/>
			<point x="207.125" y="652.5"/>
			<point x="115.5" y="532.875"/>
			<point x="115.5" y="340" type="curve" smooth="yes"/>
			<point x="115.5" y="147.125"/>
			<point x="207.125" y="27.5"/>
			<point x="356.75" y="27.5" type="curve" smooth="yes"/>
			<point x="506.375" y="27.5"/>
			<point x="598" y="147.125"/>
			<point x="598" y="340" type="curve" smooth="yes"/>
			<point x="598" y="532.875"/>
			<point x="506.375" y="652.5"/>
		</contour>
		<contour>
			<point x="356.75" y="-10" type="curve" smooth="yes"/>
			<point x="183.25" y="-10"/>
			<point x="73.75" y="125.375"/>
			<point x="73.75" y="340" type="curve" smooth="yes"/>
			<point x="73.75" y="554.625"/>
			<point x="183.25" y="690"/>
			<point x="356.75" y="690" type="curve" smooth="yes"/>
			<point x="530.25" y="690"/>
			<point x="639.75" y="554.625"/>
			<point x="639.75" y="340" type="curve" smooth="yes"/>
			<point x="639.75" y="125.375"/>
			<point x="530.25" y="-10"/>
		</contour>
		<contour>
			<point x="364.75" y="910" type="line"/>
			<point x="303.75" y="730" type="line"/>
			<point x="239.75" y="730" type="line"/>
			<point x="284.75" y="910" type="line"/>
		</contour>
		<contour>
			<point x="474.75" y="910" type="line"/>
			<point x="398.75" y="730" type="line"/>
			<point x="334.75" y="730" type="line"/>
			<point x="394.75" y="910" type="line"/>
		</contour>
	</outline>
</glyph>
<glyph name="Sacute" format="2">
	<unicode hex="015A"/>
	<advance width="582"/>
	<outline>
		<contour>
			<point x="322" y="750" type="line"/>
			<point x="258" y="750" type="line"/>
			<point x="308" y="910" type="line"/>
			<point x="388" y="910" type="line"/>
		</contour>
		<contour>
			<point x="48.5" y="196.75" type="curve"/>
			<point x="91.5" y="196.75" type="line"/>
			<point x="91.5" y="94.625"/>
			<point x="171.375" y="27.5"/>
			<point x="295.375" y="27.5" type="curve" smooth="yes"/>
			<point x="414.5" y="27.5"/>
			<point x="491.5" y="87.75"/>
			<point x="491.5" y="179.125" type="curve" smooth="yes"/>
			<point x="491.5" y="244.75"/>
			<point x="452.125" y="287.625"/>
			<point x="370.625" y="311" type="curve"/>
			<point x="186.25" y="369.375" type="line" smooth="yes"/>
			<point x="113.875" y="391.5"/>
			<point name=".hr01" x="67.375" y="451"/>
			<point x="67.375" y="524.375" type="curve" smooth="yes"/>
			<point x="67.375" y="625.125"/>
			<point x="151.375" y="690"/>
			<point x="285.875" y="690" type="curve" smooth="yes"/>
			<point x="430.75" y="690"/>
			<point x="532.5" y="609.25"/>
			<point x="532.5" y="498.5" type="curve"/>
			<point x="489.5" y="498.5" type="line"/>
			<point x="489.5" y="589.125"/>
			<point x="404.125" y="652.5"/>
			<point x="271.625" y="652.5" type="curve" smooth="yes"/>
			<point x="172.625" y="652.5"/>
			<point x="110.375" y="603.375"/>
			<point x="110.375" y="524.5" type="curve" smooth="yes"/>
			<point x="110.375" y="462.375"/>
			<point x="150.625" y="413.125"/>
			<point x="217.125" y="393.75" type="curve"/>
			<point x="406.125" y="335.5" type="line" smooth="yes"/>
			<point x="492.375" y="309.125"/>
			<point x="534.5" y="257.375"/>
			<point x="534.5" y="176.125" type="curve" smooth="yes"/>
			<point x="534.5" y="60.25"/>
			<point x="446.75" y="-10"/>
			<point x="297.125" y="-10" type="curve" smooth="yes"/>
			<point x="143.875" y="-10"/>
			<point name=".hr02" x="48.5" y="70"/>
		</contour>
	</outline>
</glyph>
<glyph name="Scircumflex" format="2">
	<unicode hex="015C"/>
	<advance width="582"/>
	<outline>
		<contour>
			<point x="48.5" y="196.75" type="curve"/>
			<point x="91.5" y="196.75" type="line"/>
			<point x="91.5" y="94.625"/>
			<point x="171.375" y="27.5"/>
			<point x="295.375" y="27.5" type="curve" smooth="yes"/>
			<point x="414.5" y="27.5"/>
			<point x="491.5" y="87.75"/>
			<point x="491.5" y="179.125" type="curve" smooth="yes"/>
			<point x="491.5" y="244.75"/>
			<point x="452.125" y="287.625"/>
			<point x="370.625" y="311" type="curve"/>
			<point x="186.25" y="369.375" type="line" smooth="yes"/>
			<point x="113.875" y="391.5"/>
			<point name=".hr01" x="67.375" y="451"/>
			<point x="67.375" y="524.375" type="curve" smooth="yes"/>
			<point x="67.375" y="625.125"/>
			<point x="151.375" y="690"/>
			<point x="285.875" y="690" type="curve" smooth="yes"/>
			<point x="430.75" y="690"/>
			<point x="532.5" y="609.25"/>
			<point x="532.5" y="498.5" type="curve"/>
			<point x="489.5" y="498.5" type="line"/>
			<point x="489.5" y="589.125"/>
			<point x="404.125" y="652.5"/>
			<point x="271.625" y="652.5" type="curve" smooth="yes"/>
			<point x="172.625" y="652.5"/>
			<point x="110.375" y="603.375"/>
			<point x="110.375" y="524.5" type="curve" smooth="yes"/>
			<point x="110.375" y="462.375"/>
			<point x="150.625" y="413.125"/>
			<point x="217.125" y="393.75" type="curve"/>
			<point x="406.125" y="335.5" type="line" smooth="yes"/>
			<point x="492.375" y="309.125"/>
			<point x="534.5" y="257.375"/>
			<point x="534.5" y="176.125" type="curve" smooth="yes"/>
			<point x="534.5" y="60.25"/>
			<point x="446.75" y="-10"/>
			<point x="297.125" y="-10" type="curve" smooth="yes"/>
			<point x="143.875" y="-10"/>
			<point name=".hr02" x="48.5" y="70"/>
		</contour>
		<contour>
			<point x="290" y="880.25" type="line"/>
			<point x="175.5" y="750" type="line"/>
			<point x="146.25" y="750" type="line"/>
			<point x="263.75" y="912.5" type="line"/>
			<point x="316.25" y="912.5" type="line"/>
			<point x="433.75" y="750" type="line"/>
			<point x="404.5" y="750" type="line"/>
		</contour>
	</outline>
</glyph>
<glyph name="scircumflex" format="2">
	<unicode hex="015D"/>
	<advance width="452"/>
	<outline>
		<contour>
			<point x="35" y="136" type="curve"/>
			<point x="114" y="136" type="line"/>
			<point x="114" y="62"/>
			<point x="192" y="55"/>
			<point x="237" y="55" type="curve" smooth="yes"/>
			<point x="261" y="55"/>
			<point x="335" y="67"/>
			<point x="335" y="130" type="curve" smooth="yes"/>
			<point x="335" y="236"/>
			<point name=".hr01" x="55" y="185"/>
			<point x="55" y="340" type="curve" smooth="yes"/>
			<point x="55" y="407"/>
			<point x="105" y="470"/>
			<point x="215" y="470" type="curve" smooth="yes"/>
			<point x="307" y="470"/>
			<point x="397" y="414"/>
			<point x="397" y="336" type="curve"/>
			<point x="316" y="336" type="line"/>
			<point x="304" y="378"/>
			<point x="265" y="405"/>
			<point x="215" y="405" type="curve" smooth="yes"/>
			<point x="170" y="405"/>
			<point x="135" y="385"/>
			<point x="135" y="340" type="curve" smooth="yes"/>
			<point x="135" y="263"/>
			<point x="417" y="288"/>
			<point x="417" y="130" type="curve" smooth="yes"/>
			<point x="417" y="10"/>
			<point x="314" y="-10"/>
			<point x="237" y="-10" type="curve" smooth="yes"/>
			<point x="133" y="-10"/>
			<point name=".hr02" x="35" y="52"/>
		</contour>
		<contour>
			<point x="210" y="650.25" type="line"/>
			<point x="95.5" y="520" type="line"/>
			<point x="66.25" y="520" type="line"/>
			<point x="183.75" y="682.5" type="line"/>
			<point x="236.25" y="682.5" type="line"/>
			<point x="353.75" y="520" type="line"/>
			<point x="324.5" y="520" type="line"/>
		</contour>
	</outline>
</glyph>
<glyph name="Scaron" format="2">
	<unicode hex="0160"/>
	<advance width="582"/>
	<outline>
		<contour>
			<point x="48.5" y="196.75" type="curve"/>
			<point x="91.5" y="196.75" type="line"/>
			<point x="91.5" y="94.625"/>
			<point x="171.375" y="27.5"/>
			<point x="295.375" y="27.5" type="curve" smooth="yes"/>
			<point x="414.5" y="27.5"/>
			<point x="491.5" y="87.75"/>
			<point x="491.5" y="179.125" type="curve" smooth="yes"/>
			<point x="491.5" y="244.75"/>
			<point x="452.125" y="287.625"/>
			<point x="370.625" y="311" type="curve"/>
			<point x="186.25" y="369.375" type="line" smooth="yes"/>
			<point x="113.875" y="391.5"/>
			<point name=".hr01" x="67.375" y="451"/>
			<point x="67.375" y="524.375" type="curve" smooth="yes"/>
			<point x="67.375" y="625.125"/>
			<point x="151.375" y="690"/>
			<point x="285.875" y="690" type="curve" smooth="yes"/>
			<point x="430.75" y="690"/>
			<point x="532.5" y="609.25"/>
			<point x="532.5" y="498.5" type="curve"/>
			<point x="489.5" y="498.5" type="line"/>
			<point x="489.5" y="589.125"/>
			<point x="404.125" y="652.5"/>
			<point x="271.625" y="652.5" type="curve" smooth="yes"/>
			<point x="172.625" y="652.5"/>
			<point x="110.375" y="603.375"/>
			<point x="110.375" y="524.5" type="curve" smooth="yes"/>
			<point x="110.375" y="462.375"/>
			<point x="150.625" y="413.125"/>
			<point x="217.125" y="393.75" type="curve"/>
			<point x="406.125" y="335.5" type="line" smooth="yes"/>
			<point x="492.375" y="309.125"/>
			<point x="534.5" y="257.375"/>
			<point x="534.5" y="176.125" type="curve" smooth="yes"/>
			<point x="534.5" y="60.25"/>
			<point x="446.75" y="-10"/>
			<point x="297.125" y="-10" type="curve" smooth="yes"/>
			<point x="143.875" y="-10"/>
			<point name=".hr02" x="48.5" y="70"/>
		</contour>
		<contour>
			<point x="330" y="750" type="line"/>
			<point x="250" y="750" type="line"/>
			<point x="150" y="910" type="line"/>
			<point x="214" y="910" type="line"/>
			<point x="290" y="825" type="line"/>
			<point x="366" y="910" type="line"/>
			<point x="430" y="910" type="line"/>
		</contour>
	</outline>
</glyph>
<glyph name="uni0162" format="2">
	<unicode hex="0162"/>
	<advance width="480"/>
	<outline>
		<contour>
			<point x="260.875" y="642.5" type="line"/>
			<point x="260.875" y="0" type="line"/>
			<point x="219.125" y="0" type="line"/>
			<point x="219.125" y="642.5" type="line"/>
			<point x="10" y="642.5" type="line"/>
			<point x="10" y="680" type="line"/>
			<point x="470" y="680" type="line"/>
			<point x="470" y="642.5" type="line"/>
		</contour>
		<contour>
			<point x="222" y="-140" type="line"/>
			<point name=".hr01" x="200" y="-140" type="line"/>
			<point x="200" y="-60" type="line"/>
			<point x="280" y="-60" type="line"/>
			<point x="280" y="-140" type="line"/>
			<point x="234" y="-270" type="line"/>
			<point x="200" y="-270" type="line"/>
		</contour>
	</outline>
</glyph>
<glyph name="Tcaron" format="2">
	<unicode hex="0164"/>
	<advance width="480"/>
	<outline>
		<contour>
			<point x="260.875" y="642.5" type="line"/>
			<point x="260.875" y="0" type="line"/>
			<point x="219.125" y="0" type="line"/>
			<point x="219.125" y="642.5" type="line"/>
			<point x="10" y="642.5" type="line"/>
			<point x="10" y="680" type="line"/>
			<point x="470" y="680" type="line"/>
			<point x="470" y="642.5" type="line"/>
		</contour>
		<contour>
			<point x="280" y="740" type="line"/>
			<point x="200" y="740" type="line"/>
			<point x="100" y="900" type="line"/>
			<point x="164" y="900" type="line"/>
			<point x="240" y="815" type="line"/>
			<point x="316" y="900" type="line"/>
			<point x="380" y="900" type="line"/>
		</contour>
	</outline>
</glyph>
<glyph name="Tbar" format="2">
	<unicode hex="0166"/>
	<advance width="560"/>
	<outline>
		<contour>
			<point x="240" y="620" type="line"/>
			<point x="50" y="620" type="line"/>
			<point x="50" y="700" type="line"/>
			<point x="510" y="700" type="line"/>
			<point x="510" y="620" type="line"/>
			<point x="330" y="620" type="line"/>
			<point x="330" y="430" type="line"/>
			<point x="490" y="430" type="line"/>
			<point x="490" y="350" type="line"/>
			<point x="330" y="350" type="line"/>
			<point x="330" y="0" type="line"/>
			<point x="240" y="0" type="line"/>
			<point x="240" y="350" type="line"/>
			<point x="70" y="350" type="line"/>
			<point x="70" y="430" type="line"/>
			<point x="240" y="430" type="line"/>
		</contour>
	</outline>
</glyph>
<glyph name="Utilde" format="2">
	<unicode hex="0168"/>
	<advance width="570"/>
	<outline>
		<contour>
			<point x="50" y="235" type="curve" smooth="yes"/>
			<point x="50" y="680" type="line"/>
			<point x="90" y="680" type="line"/>
			<point x="90" y="257.5" type="line" smooth="yes"/>
			<point x="90" y="96.375"/>
			<point x="162.5" y="28.75"/>
			<point x="285" y="28.75" type="curve" smooth="yes"/>
			<point x="407.5" y="28.75"/>
			<point x="480" y="96.375"/>
			<point x="480" y="257.5" type="curve" smooth="yes"/>
			<point x="480" y="680" type="line"/>
			<point x="520" y="680" type="line"/>
			<point x="520" y="235" type="line" smooth="yes"/>
			<point x="520" y="72"/>
			<point x="437.5" y="-10"/>
			<point x="285" y="-10" type="curve" smooth="yes"/>
			<point x="132.5" y="-10"/>
			<point x="50" y="72"/>
		</contour>
		<contour>
			<point x="182" y="760" type="curve"/>
			<point x="132" y="760" type="line"/>
			<point x="146" y="847"/>
			<point x="182" y="880"/>
			<point name=".hr01" x="222" y="880" type="curve" smooth="yes"/>
			<point x="247" y="880"/>
			<point x="269" y="870"/>
			<point x="291" y="859" type="curve"/>
			<point x="307" y="850"/>
			<point x="328" y="840"/>
			<point name=".hr02" x="348" y="840" type="curve" smooth="yes"/>
			<point x="368" y="840"/>
			<point x="383" y="852"/>
			<point x="388" y="880" type="curve"/>
			<point name=".hr03" x="438" y="880" type="line"/>
			<point x="424" y="793"/>
			<point x="388" y="760"/>
			<point name=".hr04" x="348" y="760" type="curve" smooth="yes"/>
			<point x="323" y="760"/>
			<point x="302" y="769"/>
			<point x="281" y="780" type="curve" smooth="yes"/>
			<point x="264" y="789"/>
			<point x="242" y="800"/>
			<point name=".hr05" x="222" y="800" type="curve" smooth="yes"/>
			<point x="202" y="800"/>
			<point x="187" y="788"/>
		</contour>
	</outline>
</glyph>
<glyph name="utilde" format="2">
	<unicode hex="0169"/>
	<advance width="478"/>
	<outline>
		<contour>
			<point x="354" y="154" type="curve"/>
			<point x="354" y="460" type="line"/>
			<point x="433" y="460" type="line"/>
			<point x="433" y="0" type="line"/>
			<point x="374" y="0" type="line"/>
			<point x="357" y="83" type="line"/>
			<point x="323" y="36"/>
			<point x="275" y="-10"/>
			<point x="200" y="-10" type="curve" smooth="yes"/>
			<point x="51" y="-10"/>
			<point x="45" y="98"/>
			<point x="45" y="165" type="curve" smooth="yes"/>
			<point x="45" y="460" type="line"/>
			<point x="125" y="460" type="line"/>
			<point x="125" y="165" type="line" smooth="yes"/>
			<point x="125" y="121"/>
			<point x="134" y="55"/>
			<point x="222" y="55" type="curve" smooth="yes"/>
			<point x="266" y="55"/>
			<point x="330" y="90"/>
		</contour>
		<contour>
			<point x="136" y="540" type="curve"/>
			<point x="86" y="540" type="line"/>
			<point x="100" y="627"/>
			<point x="136" y="660"/>
			<point name=".hr01" x="176" y="660" type="curve" smooth="yes"/>
			<point x="201" y="660"/>
			<point x="223" y="650"/>
			<point x="245" y="639" type="curve"/>
			<point x="261" y="630"/>
			<point x="282" y="620"/>
			<point name=".hr02" x="302" y="620" type="curve" smooth="yes"/>
			<point x="322" y="620"/>
			<point x="337" y="632"/>
			<point x="342" y="660" type="curve"/>
			<point name=".hr03" x="392" y="660" type="line"/>
			<point x="378" y="573"/>
			<point x="342" y="540"/>
			<point name=".hr04" x="302" y="540" type="curve" smooth="yes"/>
			<point x="277" y="540"/>
			<point x="256" y="549"/>
			<point x="235" y="560" type="curve" smooth="yes"/>
			<point x="218" y="569"/>
			<point x="196" y="580"/>
			<point name=".hr05" x="176" y="580" type="curve" smooth="yes"/>
			<point x="156" y="580"/>
			<point x="141" y="568"/>
		</contour>
	</outline>
</glyph>
<glyph name="Umacron" format="2">
	<unicode hex="016A"/>
	<advance width="560"/>
	<outline>
		<contour>
			<point x="415" y="750" type="line"/>
			<point x="145" y="750" type="line"/>
			<point x="145" y="820" type="line"/>
			<point x="415" y="820" type="line"/>
		</contour>
		<contour>
			<point x="45" y="235" type="curve" smooth="yes"/>
			<point x="45" y="680" type="line"/>
			<point x="85" y="680" type="line"/>
			<point x="85" y="257.5" type="line" smooth="yes"/>
			<point x="85" y="96.375"/>
			<point x="157.5" y="28.75"/>
			<point x="280" y="28.75" type="curve" smooth="yes"/>
			<point x="402.5" y="28.75"/>
			<point x="475" y="96.375"/>
			<point x="475" y="257.5" type="curve" smooth="yes"/>
			<point x="475" y="680" type="line"/>
			<point x="515" y="680" type="line"/>
			<point x="515" y="235" type="line" smooth="yes"/>
			<point x="515" y="72"/>
			<point x="432.5" y="-10"/>
			<point x="280" y="-10" type="curve" smooth="yes"/>
			<point x="127.5" y="-10"/>
			<point x="45" y="72"/>
		</contour>
	</outline>
</glyph>
<glyph name="Ubreve" format="2">
	<unicode hex="016C"/>
	<advance width="560"/>
	<outline>
		<contour>
			<point x="125" y="890" type="curve"/>
			<point x="205" y="890" type="line"/>
			<point x="205" y="830"/>
			<point x="245" y="810"/>
			<point x="280" y="810" type="curve" smooth="yes"/>
			<point x="315" y="810"/>
			<point x="355" y="830"/>
			<point x="355" y="890" type="curve"/>
			<point x="435" y="890" type="line"/>
			<point x="435" y="790"/>
			<point x="360" y="750"/>
			<point x="280" y="750" type="curve" smooth="yes"/>
			<point x="200" y="750"/>
			<point x="125" y="790"/>
		</contour>
		<contour>
			<point x="45" y="235" type="curve" smooth="yes"/>
			<point x="45" y="680" type="line"/>
			<point x="85" y="680" type="line"/>
			<point x="85" y="257.5" type="line" smooth="yes"/>
			<point x="85" y="96.375"/>
			<point x="157.5" y="28.75"/>
			<point x="280" y="28.75" type="curve" smooth="yes"/>
			<point x="402.5" y="28.75"/>
			<point x="475" y="96.375"/>
			<point x="475" y="257.5" type="curve" smooth="yes"/>
			<point x="475" y="680" type="line"/>
			<point x="515" y="680" type="line"/>
			<point x="515" y="235" type="line" smooth="yes"/>
			<point x="515" y="72"/>
			<point x="432.5" y="-10"/>
			<point x="280" y="-10" type="curve" smooth="yes"/>
			<point x="127.5" y="-10"/>
			<point x="45" y="72"/>
		</contour>
	</outline>
</glyph>
<glyph name="Uring" format="2">
	<unicode hex="016E"/>
	<advance width="560"/>
	<outline>
		<contour>
			<point x="240" y="819" type="curve" smooth="yes"/>
			<point x="240" y="802"/>
			<point x="254" y="788"/>
			<point x="271" y="788" type="curve" smooth="yes"/>
			<point x="288" y="788"/>
			<point x="302" y="802"/>
			<point x="302" y="819" type="curve" smooth="yes"/>
			<point x="302" y="836"/>
			<point x="288" y="850"/>
			<point x="271" y="850" type="curve" smooth="yes"/>
			<point x="254" y="850"/>
			<point x="240" y="836"/>
		</contour>
		<contour>
			<point x="45" y="235" type="curve" smooth="yes"/>
			<point x="45" y="680" type="line"/>
			<point x="85" y="680" type="line"/>
			<point x="85" y="257.5" type="line" smooth="yes"/>
			<point x="85" y="96.375"/>
			<point x="157.5" y="28.75"/>
			<point x="280" y="28.75" type="curve" smooth="yes"/>
			<point x="402.5" y="28.75"/>
			<point x="475" y="96.375"/>
			<point x="475" y="257.5" type="curve" smooth="yes"/>
			<point x="475" y="680" type="line"/>
			<point x="515" y="680" type="line"/>
			<point x="515" y="235" type="line" smooth="yes"/>
			<point x="515" y="72"/>
			<point x="432.5" y="-10"/>
			<point x="280" y="-10" type="curve" smooth="yes"/>
			<point x="127.5" y="-10"/>
			<point x="45" y="72"/>
		</contour>
		<contour>
			<point x="193" y="819" type="curve" smooth="yes"/>
			<point x="193" y="862"/>
			<point x="228" y="897"/>
			<point x="271" y="897" type="curve" smooth="yes"/>
			<point x="314" y="897"/>
			<point x="349" y="862"/>
			<point x="349" y="819" type="curve" smooth="yes"/>
			<point x="349" y="776"/>
			<point x="314" y="741"/>
			<point x="271" y="741" type="curve" smooth="yes"/>
			<point x="228" y="741"/>
			<point x="193" y="776"/>
		</contour>
	</outline>
</glyph>
<glyph name="Uhungarumlaut" format="2">
	<unicode hex="0170"/>
	<advance width="570"/>
	<outline>
		<contour>
			<point x="50" y="235" type="curve" smooth="yes"/>
			<point x="50" y="680" type="line"/>
			<point x="90" y="680" type="line"/>
			<point x="90" y="257.5" type="line" smooth="yes"/>
			<point x="90" y="96.375"/>
			<point x="162.5" y="28.75"/>
			<point x="285" y="28.75" type="curve" smooth="yes"/>
			<point x="407.5" y="28.75"/>
			<point x="480" y="96.375"/>
			<point x="480" y="257.5" type="curve" smooth="yes"/>
			<point x="480" y="680" type="line"/>
			<point x="520" y="680" type="line"/>
			<point x="520" y="235" type="line" smooth="yes"/>
			<point x="520" y="72"/>
			<point x="437.5" y="-10"/>
			<point x="285" y="-10" type="curve" smooth="yes"/>
			<point x="132.5" y="-10"/>
			<point x="50" y="72"/>
		</contour>
		<contour>
			<point x="327" y="730" type="line"/>
			<point x="263" y="730" type="line"/>
			<point x="323" y="910" type="line"/>
			<point x="403" y="910" type="line"/>
		</contour>
		<contour>
			<point x="232" y="730" type="line"/>
			<point x="168" y="730" type="line"/>
			<point x="213" y="910" type="line"/>
			<point x="293" y="910" type="line"/>
		</contour>
	</outline>
</glyph>
<glyph name="uhungarumlaut" format="2">
	<unicode hex="0171"/>
	<advance width="478"/>
	<outline>
		<contour>
			<point x="354" y="154" type="curve"/>
			<point x="354" y="460" type="line"/>
			<point x="433" y="460" type="line"/>
			<point x="433" y="0" type="line"/>
			<point x="374" y="0" type="line"/>
			<point x="357" y="83" type="line"/>
			<point x="323" y="36"/>
			<point x="275" y="-10"/>
			<point x="200" y="-10" type="curve" smooth="yes"/>
			<point x="51" y="-10"/>
			<point x="45" y="98"/>
			<point x="45" y="165" type="curve" smooth="yes"/>
			<point x="45" y="460" type="line"/>
			<point x="125" y="460" type="line"/>
			<point x="125" y="165" type="line" smooth="yes"/>
			<point x="125" y="121"/>
			<point x="134" y="55"/>
			<point x="222" y="55" type="curve" smooth="yes"/>
			<point x="266" y="55"/>
			<point x="330" y="90"/>
		</contour>
		<contour>
			<point x="247" y="670" type="line"/>
			<point x="186" y="490" type="line"/>
			<point x="122" y="490" type="line"/>
			<point x="167" y="670" type="line"/>
		</contour>
		<contour>
			<point x="357" y="670" type="line"/>
			<point x="281" y="490" type="line"/>
			<point x="217" y="490" type="line"/>
			<point x="277" y="670" type="line"/>
		</contour>
	</outline>
</glyph>
<glyph name="Uogonek" format="2">
	<unicode hex="0172"/>
	<advance width="560"/>
	<outline>
		<contour>
			<point x="50" y="224" type="curve" smooth="yes"/>
			<point x="50" y="700" type="line"/>
			<point x="140" y="700" type="line"/>
			<point x="140" y="274" type="line" smooth="yes"/>
			<point x="140" y="147"/>
			<point x="204" y="80"/>
			<point x="290" y="80" type="curve" smooth="yes"/>
			<point x="378" y="80"/>
			<point x="420" y="145"/>
			<point x="420" y="274" type="curve" smooth="yes"/>
			<point x="420" y="700" type="line"/>
			<point x="510" y="700" type="line"/>
			<point x="510" y="224" type="line" smooth="yes"/>
			<point x="510" y="100"/>
			<point x="465" y="-10"/>
			<point x="290" y="-10" type="curve" smooth="yes"/>
			<point x="92" y="-10"/>
			<point x="50" y="106"/>
		</contour>
		<contour>
			<point x="341" y="-124" type="curve" smooth="yes"/>
			<point x="341" y="-70"/>
			<point x="378" y="-25"/>
			<point x="412" y="0" type="curve"/>
			<point name=".hr01" x="470" y="0" type="line"/>
			<point x="429" y="-31"/>
			<point x="402" y="-69"/>
			<point x="402" y="-108" type="curve" smooth="yes"/>
			<point x="402" y="-135"/>
			<point x="422" y="-154"/>
			<point x="448" y="-154" type="curve" smooth="yes"/>
			<point x="462" y="-154"/>
			<point x="477" y="-149"/>
			<point x="488" y="-141" type="curve"/>
			<point x="510" y="-182" type="line"/>
			<point x="497" y="-191" type="line"/>
			<point x="478" y="-202"/>
			<point x="451" y="-209"/>
			<point x="431" y="-209" type="curve" smooth="yes"/>
			<point x="381" y="-209"/>
			<point x="341" y="-180"/>
		</contour>
	</outline>
</glyph>
<glyph name="longs" format="2">
	<unicode hex="017F"/>
	<advance width="421"/>
	<outline>
		<contour>
			<point x="145" y="380" type="line"/>
			<point x="80" y="380" type="line"/>
			<point x="80" y="460" type="line"/>
			<point x="145" y="460" type="line"/>
			<point x="145" y="500" type="line" smooth="yes"/>
			<point x="145" y="642"/>
			<point x="156" y="693"/>
			<point x="307" y="700" type="curve"/>
			<point x="341" y="700" type="line"/>
			<point x="341" y="635" type="line"/>
			<point x="307" y="635" type="line" smooth="yes"/>
			<point x="293" y="635"/>
			<point x="282" y="634"/>
			<point x="272" y="631" type="curve" smooth="yes"/>
			<point x="226" y="618"/>
			<point x="225" y="574"/>
			<point x="225" y="458" type="curve" smooth="yes"/>
			<point x="225" y="0" type="line"/>
			<point x="145" y="0" type="line"/>
		</contour>
	</outline>
</glyph>
<glyph name="uni01C9" format="2">
	<unicode hex="01C9"/>
	<advance width="450"/>
	<outline>
		<contour>
			<point x="380" y="560" type="line"/>
			<point x="300" y="560" type="line"/>
			<point x="300" y="640" type="line"/>
			<point x="380" y="640" type="line"/>
		</contour>
		<contour>
			<point x="152" y="-100" type="curve"/>
			<point x="217" y="-100" type="line"/>
			<point x="220" y="-132"/>
			<point x="241" y="-140"/>
			<point x="256" y="-140" type="curve" smooth="yes"/>
			<point x="280" y="-140"/>
			<point x="300" y="-136"/>
			<point x="300" y="-80" type="curve" smooth="yes"/>
			<point x="300" y="460" type="line"/>
			<point x="380" y="460" type="line"/>
			<point x="380" y="-60" type="line" smooth="yes"/>
			<point x="380" y="-181"/>
			<point x="324" y="-200"/>
			<point x="260" y="-200" type="curve" smooth="yes"/>
			<point x="204" y="-200"/>
			<point x="156" y="-162"/>
		</contour>
		<contour>
			<point x="110" y="0" type="line"/>
			<point x="70" y="0" type="line"/>
			<point x="70" y="700" type="line"/>
			<point x="110" y="700" type="line"/>
		</contour>
	</outline>
</glyph>
<glyph name="uni01CA" format="2">
	<unicode hex="01CA"/>
	<advance width="886"/>
	<outline>
		<contour>
			<point x="19.25" y="547.5" type="curve" smooth="yes"/>
			<point x="19.25" y="0" type="line"/>
			<point x="-22.5" y="0" type="line"/>
			<point x="-22.5" y="680" type="line"/>
			<point x="23.5" y="680" type="line"/>
			<point x="380.375" y="68.875" type="line"/>
			<point x="378.25" y="93.125"/>
			<point x="378.25" y="115.375"/>
			<point x="378.25" y="132.5" type="curve" smooth="yes"/>
			<point x="378.25" y="680" type="line"/>
			<point x="420" y="680" type="line"/>
			<point x="420" y="0" type="line"/>
			<point x="374" y="0" type="line"/>
			<point x="17.125" y="611.125" type="line"/>
			<point x="19.25" y="586.875"/>
			<point x="19.25" y="564.625"/>
		</contour>
		<contour>
			<point x="680.25" y="0" type="curve" smooth="yes"/>
			<point x="650" y="0" type="line"/>
			<point x="650" y="37.5" type="line"/>
			<point x="676" y="37.5" type="line" smooth="yes"/>
			<point x="716" y="37.5"/>
			<point x="748" y="97.25"/>
			<point x="748" y="161.25" type="curve" smooth="yes"/>
			<point x="748" y="680" type="line"/>
			<point x="789.75" y="680" type="line"/>
			<point x="789.75" y="174" type="line" smooth="yes"/>
			<point x="789.75" y="66.25"/>
			<point x="749" y="0"/>
		</contour>
	</outline>
</glyph>
<glyph name="uni01CB" format="2">
	<unicode hex="01CB"/>
	<advance width="830"/>
	<outline>
		<contour>
			<point x="532" y="-100" type="curve"/>
			<point x="597" y="-100" type="line"/>
			<point x="600" y="-132"/>
			<point x="621" y="-140"/>
			<point x="636" y="-140" type="curve" smooth="yes"/>
			<point x="660" y="-140"/>
			<point x="680" y="-136"/>
			<point x="680" y="-80" type="curve" smooth="yes"/>
			<point x="680" y="460" type="line"/>
			<point x="760" y="460" type="line"/>
			<point x="760" y="-60" type="line" smooth="yes"/>
			<point x="760" y="-181"/>
			<point x="704" y="-200"/>
			<point x="640" y="-200" type="curve" smooth="yes"/>
			<point x="584" y="-200"/>
			<point x="536" y="-162"/>
		</contour>
		<contour>
			<point x="19.25" y="547.5" type="curve" smooth="yes"/>
			<point x="19.25" y="0" type="line"/>
			<point x="-22.5" y="0" type="line"/>
			<point x="-22.5" y="680" type="line"/>
			<point x="23.5" y="680" type="line"/>
			<point x="380.375" y="68.875" type="line"/>
			<point x="378.25" y="93.125"/>
			<point x="378.25" y="115.375"/>
			<point x="378.25" y="132.5" type="curve" smooth="yes"/>
			<point x="378.25" y="680" type="line"/>
			<point x="420" y="680" type="line"/>
			<point x="420" y="0" type="line"/>
			<point x="374" y="0" type="line"/>
			<point x="17.125" y="611.125" type="line"/>
			<point x="19.25" y="586.875"/>
			<point x="19.25" y="564.625"/>
		</contour>
		<contour>
			<point x="760" y="640" type="line"/>
			<point x="760" y="560" type="line"/>
			<point name=".hr01" x="680" y="560" type="line"/>
			<point x="680" y="640" type="line"/>
		</contour>
	</outline>
</glyph>
<glyph name="uni01CC" format="2">
	<unicode hex="01CC"/>
	<advance width="708"/>
	<outline>
		<contour>
			<point x="638" y="560" type="line"/>
			<point x="558" y="560" type="line"/>
			<point x="558" y="640" type="line"/>
			<point x="638" y="640" type="line"/>
		</contour>
		<contour>
			<point x="410" y="-100" type="curve"/>
			<point x="475" y="-100" type="line"/>
			<point x="478" y="-132"/>
			<point x="499" y="-140"/>
			<point x="514" y="-140" type="curve" smooth="yes"/>
			<point x="538" y="-140"/>
			<point x="558" y="-136"/>
			<point x="558" y="-80" type="curve" smooth="yes"/>
			<point x="558" y="460" type="line"/>
			<point x="638" y="460" type="line"/>
			<point x="638" y="-60" type="line" smooth="yes"/>
			<point x="638" y="-181"/>
			<point x="582" y="-200"/>
			<point x="518" y="-200" type="curve" smooth="yes"/>
			<point x="462" y="-200"/>
			<point x="414" y="-162"/>
		</contour>
		<contour>
			<point x="85" y="0" type="line"/>
			<point x="45" y="0" type="line"/>
			<point x="45" y="460" type="line"/>
			<point x="79" y="460" type="line"/>
			<point x="85" y="342.5" type="line"/>
		</contour>
	</outline>
</glyph>
<glyph name="uni01CF" format="2">
	<unicode hex="01CF"/>
	<advance width="229"/>
	<outline>
		<contour>
			<point x="135.5" y="680" type="line"/>
			<point x="135.5" y="0" type="line"/>
			<point x="93.75" y="0" type="line"/>
			<point x="93.75" y="680" type="line"/>
		</contour>
		<contour>
			<point x="154.625" y="740" type="line"/>
			<point x="74.625" y="740" type="line"/>
			<point x="-25.375" y="900" type="line"/>
			<point x="38.625" y="900" type="line"/>
			<point x="114.625" y="815" type="line"/>
			<point x="190.625" y="900" type="line"/>
			<point x="254.625" y="900" type="line"/>
		</contour>
	</outline>
</glyph>
<glyph name="uni01D1" format="2">
	<unicode hex="01D1"/>
	<advance width="714"/>
	<outline>
		<contour>
			<point x="356.75" y="652.5" type="curve" smooth="yes"/>
			<point x="207.125" y="652.5"/>
			<point x="115.5" y="532.875"/>
			<point x="115.5" y="340" type="curve" smooth="yes"/>
			<point x="115.5" y="147.125"/>
			<point x="207.125" y="27.5"/>
			<point x="356.75" y="27.5" type="curve" smooth="yes"/>
			<point x="506.375" y="27.5"/>
			<point x="598" y="147.125"/>
			<point x="598" y="340" type="curve" smooth="yes"/>
			<point x="598" y="532.875"/>
			<point x="506.375" y="652.5"/>
		</contour>
		<contour>
			<point x="356.75" y="-10" type="curve" smooth="yes"/>
			<point x="183.25" y="-10"/>
			<point x="73.75" y="125.375"/>
			<point x="73.75" y="340" type="curve" smooth="yes"/>
			<point x="73.75" y="554.625"/>
			<point x="183.25" y="690"/>
			<point x="356.75" y="690" type="curve" smooth="yes"/>
			<point x="530.25" y="690"/>
			<point x="639.75" y="554.625"/>
			<point x="639.75" y="340" type="curve" smooth="yes"/>
			<point x="639.75" y="125.375"/>
			<point x="530.25" y="-10"/>
		</contour>
		<contour>
			<point x="397" y="740" type="line"/>
			<point x="317" y="740" type="line"/>
			<point x="217" y="900" type="line"/>
			<point x="281" y="900" type="line"/>
			<point x="357" y="815" type="line"/>
			<point x="433" y="900" type="line"/>
			<point x="497" y="900" type="line"/>
		</contour>
	</outline>
</glyph>
<glyph name="uni01D2" format="2">
	<unicode hex="01D2"/>
	<advance width="480"/>
	<outline>
		<contour>
			<point x="240" y="10" type="curve"/>
			<point x="240" y="-10" type="line"/>
			<point x="117" y="-10"/>
			<point x="35" y="87"/>
			<point x="35" y="230" type="curve" smooth="yes"/>
			<point x="35" y="374"/>
			<point x="117" y="470"/>
			<point x="240" y="470" type="curve"/>
			<point x="240" y="450" type="line"/>
			<point x="130" y="450"/>
			<point x="55" y="361"/>
			<point x="55" y="230" type="curve" smooth="yes"/>
			<point x="55" y="98"/>
			<point x="129" y="10"/>
		</contour>
		<contour>
			<point x="280" y="520" type="line"/>
			<point x="200" y="520" type="line"/>
			<point x="100" y="680" type="line"/>
			<point x="164" y="680" type="line"/>
			<point x="240" y="595" type="line"/>
			<point x="316" y="680" type="line"/>
			<point x="380" y="680" type="line"/>
		</contour>
	</outline>
</glyph>
<glyph name="uni01D3" format="2">
	<unicode hex="01D3"/>
	<advance width="560"/>
	<outline>
		<contour>
			<point x="45" y="235" type="curve" smooth="yes"/>
			<point x="45" y="680" type="line"/>
			<point x="85" y="680" type="line"/>
			<point x="85" y="257.5" type="line" smooth="yes"/>
			<point x="85" y="96.375"/>
			<point x="157.5" y="28.75"/>
			<point x="280" y="28.75" type="curve" smooth="yes"/>
			<point x="402.5" y="28.75"/>
			<point x="475" y="96.375"/>
			<point x="475" y="257.5" type="curve" smooth="yes"/>
			<point x="475" y="680" type="line"/>
			<point x="515" y="680" type="line"/>
			<point x="515" y="235" type="line" smooth="yes"/>
			<point x="515" y="72"/>
			<point x="432.5" y="-10"/>
			<point x="280" y="-10" type="curve" smooth="yes"/>
			<point x="127.5" y="-10"/>
			<point x="45" y="72"/>
		</contour>
		<contour>
			<point x="320" y="750" type="line"/>
			<point x="240" y="750" type="line"/>
			<point x="140" y="910" type="line"/>
			<point x="204" y="910" type="line"/>
			<point x="280" y="825" type="line"/>
			<point x="356" y="910" type="line"/>
			<point x="420" y="910" type="line"/>
		</contour>
	</outline>
</glyph>
<glyph name="uni01D9" format="2">
	<unicode hex="01D9"/>
	<advance width="560"/>
	<outline>
		<contour>
			<point x="240" y="910" type="line"/>
			<point x="120" y="1090" type="line"/>
			<point x="184" y="1090" type="line"/>
			<point x="280" y="963" type="line"/>
			<point x="376" y="1090" type="line"/>
			<point x="440" y="1090" type="line"/>
			<point x="320" y="910" type="line"/>
		</contour>
		<contour>
			<point x="241" y="770" type="line"/>
			<point x="161" y="770" type="line"/>
			<point x="161" y="850" type="line"/>
			<point x="241" y="850" type="line"/>
		</contour>
		<contour>
			<point x="398" y="770" type="line"/>
			<point x="318" y="770" type="line"/>
			<point x="318" y="850" type="line"/>
			<point x="398" y="850" type="line"/>
		</contour>
		<contour>
			<point x="49" y="224" type="curve" smooth="yes"/>
			<point x="49" y="700" type="line"/>
			<point x="139" y="700" type="line"/>
			<point x="139" y="274" type="line" smooth="yes"/>
			<point x="139" y="180"/>
			<point x="178" y="80"/>
			<point x="289" y="80" type="curve" smooth="yes"/>
			<point x="378" y="80"/>
			<point x="419" y="147"/>
			<point x="419" y="274" type="curve" smooth="yes"/>
			<point x="419" y="700" type="line"/>
			<point x="509" y="700" type="line"/>
			<point x="509" y="224" type="line" smooth="yes"/>
			<point x="509" y="100"/>
			<point x="464" y="-10"/>
			<point x="289" y="-10" type="curve" smooth="yes"/>
			<point x="91" y="-10"/>
			<point x="49" y="106"/>
		</contour>
	</outline>
</glyph>
<glyph name="uni01DA" format="2">
	<unicode hex="01DA"/>
	<advance width="478"/>
	<outline>
		<contour>
			<point x="199" y="670" type="line"/>
			<point x="79" y="850" type="line"/>
			<point x="143" y="850" type="line"/>
			<point x="239" y="723" type="line"/>
			<point x="335" y="850" type="line"/>
			<point x="399" y="850" type="line"/>
			<point x="279" y="670" type="line"/>
		</contour>
		<contour>
			<point x="200" y="530" type="line"/>
			<point x="120" y="530" type="line"/>
			<point x="120" y="610" type="line"/>
			<point x="200" y="610" type="line"/>
		</contour>
		<contour>
			<point x="357" y="530" type="line"/>
			<point x="277" y="530" type="line"/>
			<point x="277" y="610" type="line"/>
			<point x="357" y="610" type="line"/>
		</contour>
		<contour>
			<point name=".hr01" x="44" y="160" type="curve" smooth="yes"/>
			<point x="44" y="460" type="line"/>
			<point x="124" y="460" type="line"/>
			<point x="124" y="190" type="line" smooth="yes"/>
			<point x="124" y="137"/>
			<point x="124" y="94"/>
			<point x="144" y="72" type="curve" smooth="yes"/>
			<point x="154" y="61"/>
			<point x="169" y="55"/>
			<point x="192" y="55" type="curve" smooth="yes"/>
			<point x="256" y="55"/>
			<point x="352" y="116"/>
			<point x="352" y="230" type="curve" smooth="yes"/>
			<point x="352" y="307"/>
			<point x="352" y="383"/>
			<point x="352" y="460" type="curve"/>
			<point x="433" y="460" type="line"/>
			<point x="433" y="0" type="line"/>
			<point x="353" y="0" type="line"/>
			<point x="353" y="90" type="line"/>
			<point x="314" y="43"/>
			<point x="232" y="-10"/>
			<point x="166" y="-10" type="curve" smooth="yes"/>
			<point x="49" y="-10"/>
			<point x="44" y="78"/>
		</contour>
	</outline>
</glyph>
<glyph name="uni01DE" format="2">
	<unicode hex="01DE"/>
	<advance width="501"/>
	<outline>
		<contour>
			<point x="363" y="273.125" type="line"/>
			<point x="250.625" y="623.875" type="line"/>
			<point x="138.25" y="273.125" type="line"/>
		</contour>
		<contour>
			<point x="449.5" y="0" type="line"/>
			<point x="375.125" y="233.125" type="line"/>
			<point x="126.125" y="233.125" type="line"/>
			<point x="51.75" y="0" type="line"/>
			<point x="10" y="0" type="line"/>
			<point x="227.625" y="680" type="line"/>
			<point x="273.375" y="680" type="line"/>
			<point x="491.25" y="0" type="line"/>
		</contour>
		<contour>
			<point x="363.75" y="860" type="line"/>
			<point x="373.75" y="798.75" type="line"/>
			<point x="308.125" y="806.25" type="line"/>
			<point x="330.625" y="762.5" type="line"/>
			<point x="313.125" y="740" type="line"/>
			<point x="290.625" y="783.75" type="line"/>
			<point x="220.625" y="790" type="line"/>
			<point x="210.625" y="746.25" type="line"/>
			<point x="193.125" y="740" type="line"/>
			<point x="170.625" y="783.75" type="line"/>
			<point x="105" y="806.25" type="line"/>
			<point x="127.5" y="867.5" type="line"/>
		</contour>
	</outline>
</glyph>
<glyph name="Gcaron" format="2">
	<unicode hex="01E6"/>
	<advance width="647"/>
	<outline>
		<contour>
			<point x="288" y="770" type="line"/>
			<point x="168" y="950" type="line"/>
			<point x="232" y="950" type="line"/>
			<point x="328" y="823" type="line"/>
			<point x="424" y="950" type="line"/>
			<point x="488" y="950" type="line"/>
			<point x="368" y="770" type="line"/>
		</contour>
		<contour>
			<point x="50" y="350" type="curve" smooth="yes"/>
			<point x="50" y="560"/>
			<point x="146" y="710"/>
			<point x="328" y="710" type="curve" smooth="yes"/>
			<point x="477" y="710"/>
			<point x="566" y="615"/>
			<point x="597" y="474" type="curve"/>
			<point x="508" y="474" type="line"/>
			<point x="484" y="567"/>
			<point x="434" y="630"/>
			<point x="328" y="630" type="curve" smooth="yes"/>
			<point x="189" y="630"/>
			<point x="140" y="502"/>
			<point x="140" y="350" type="curve" smooth="yes"/>
			<point x="140" y="200"/>
			<point x="187" y="70"/>
			<point x="328" y="70" type="curve" smooth="yes"/>
			<point x="415" y="70"/>
			<point x="468" y="120"/>
			<point x="498" y="184" type="curve"/>
			<point x="498" y="240" type="line"/>
			<point x="327" y="240" type="line"/>
			<point x="327" y="320" type="line"/>
			<point x="587" y="320" type="line"/>
			<point x="587" y="0" type="line"/>
			<point x="498" y="0" type="line"/>
			<point x="498" y="85" type="line"/>
			<point x="456" y="24"/>
			<point x="401" y="-10"/>
			<point x="334" y="-10" type="curve" smooth="yes"/>
			<point x="141" y="-10"/>
			<point x="50" y="138"/>
		</contour>
	</outline>
</glyph>
<glyph name="uni01E8" format="2">
	<unicode hex="01E8"/>
	<advance width="523"/>
	<outline>
		<contour>
			<point x="135.5" y="303.875" type="line"/>
			<point x="135.5" y="0" type="line"/>
			<point x="93.75" y="0" type="line"/>
			<point x="93.75" y="680" type="line"/>
			<point x="135.5" y="680" type="line"/>
			<point x="135.5" y="342.375" type="line"/>
			<point x="233.125" y="359.375" type="line"/>
			<point x="425" y="680" type="line"/>
			<point x="472.75" y="680" type="line"/>
			<point x="272.75" y="350" type="line"/>
			<point x="512.75" y="0" type="line"/>
			<point x="462.5" y="0" type="line"/>
			<point x="239.75" y="324.625" type="line"/>
		</contour>
		<contour>
			<point x="301.375" y="760" type="line"/>
			<point x="221.375" y="760" type="line"/>
			<point x="121.375" y="920" type="line"/>
			<point x="185.375" y="920" type="line"/>
			<point x="261.375" y="835" type="line"/>
			<point x="337.375" y="920" type="line"/>
			<point x="401.375" y="920" type="line"/>
		</contour>
	</outline>
</glyph>
<glyph name="uni01F2" format="2">
	<unicode hex="01F2"/>
	<advance width="1081"/>
	<outline>
		<contour>
			<point x="135.5" y="642.5" type="line"/>
			<point x="135.5" y="37.5" type="line"/>
			<point x="290.5" y="37.5" type="line" smooth="yes"/>
			<point x="445" y="37.5"/>
			<point x="516.625" y="166.5"/>
			<point x="516.625" y="340" type="curve" smooth="yes"/>
			<point x="516.625" y="518"/>
			<point x="447" y="642.5"/>
			<point x="290.5" y="642.5" type="curve" smooth="yes"/>
		</contour>
		<contour>
			<point x="93.75" y="680" type="line"/>
			<point x="290.5" y="680" type="line" smooth="yes"/>
			<point x="480.5" y="680"/>
			<point x="557.5" y="537.75"/>
			<point x="557.5" y="340" type="curve" smooth="yes"/>
			<point x="557.5" y="141.875"/>
			<point x="480.625" y="0"/>
			<point x="290.5" y="0" type="curve" smooth="yes"/>
			<point x="93.75" y="0" type="line"/>
		</contour>
		<contour>
			<point name=".hr01" x="1041.25" y="65" type="line"/>
			<point x="1041.25" y="0" type="line"/>
			<point x="671.25" y="0" type="line"/>
			<point x="671.25" y="65" type="line"/>
			<point x="941.25" y="395" type="line"/>
			<point x="671.25" y="395" type="line"/>
			<point x="671.25" y="460" type="line"/>
			<point x="1041.25" y="460" type="line"/>
			<point x="1041.25" y="395" type="line"/>
			<point x="781.25" y="65" type="line"/>
		</contour>
	</outline>
</glyph>
<glyph name="aringacute" format="2">
	<unicode hex="01FB"/>
	<advance width="493"/>
	<outline>
		<contour>
			<point x="125" y="126" type="curve" smooth="yes"/>
			<point x="125" y="77"/>
			<point x="165" y="60"/>
			<point x="204" y="60" type="curve" smooth="yes"/>
			<point x="248" y="60"/>
			<point x="326" y="116"/>
			<point x="342" y="141" type="curve"/>
			<point x="342" y="245" type="line"/>
			<point x="289" y="219"/>
			<point x="125" y="231"/>
		</contour>
		<contour>
			<point x="238" y="589" type="curve"/>
			<point x="255" y="649" type="line"/>
			<point x="252" y="650"/>
			<point x="249" y="650"/>
			<point x="246" y="650" type="curve" smooth="yes"/>
			<point x="229" y="650"/>
			<point x="215" y="636"/>
			<point x="215" y="619" type="curve" smooth="yes"/>
			<point x="215" y="605"/>
			<point x="225" y="592"/>
		</contour>
		<contour>
			<point x="272" y="636" type="curve"/>
			<point x="257" y="590" type="line"/>
			<point x="269" y="595"/>
			<point x="277" y="606"/>
			<point x="277" y="619" type="curve" smooth="yes"/>
			<point x="277" y="625"/>
			<point x="275" y="631"/>
		</contour>
		<contour>
			<point x="45" y="128" type="curve" smooth="yes"/>
			<point x="45" y="279"/>
			<point x="252" y="269"/>
			<point x="342" y="294" type="curve"/>
			<point x="342" y="330" type="line" smooth="yes"/>
			<point x="342" y="383"/>
			<point x="284" y="405"/>
			<point x="242" y="405" type="curve" smooth="yes"/>
			<point x="187" y="405"/>
			<point x="139" y="378"/>
			<point x="135" y="330" type="curve"/>
			<point x="70" y="330" type="line"/>
			<point x="77" y="417"/>
			<point x="154" y="470"/>
			<point x="243" y="470" type="curve" smooth="yes"/>
			<point x="340" y="470"/>
			<point x="423" y="432"/>
			<point x="423" y="319" type="curve"/>
			<point x="422" y="86" type="line"/>
			<point x="422" y="54"/>
			<point x="439" y="26"/>
			<point x="463" y="0" type="curve"/>
			<point x="373" y="0" type="line"/>
			<point x="354" y="26"/>
			<point x="349" y="34"/>
			<point x="342" y="74" type="curve"/>
			<point x="310" y="37"/>
			<point x="267" y="-10"/>
			<point x="192" y="-10" type="curve" smooth="yes"/>
			<point x="108" y="-10"/>
			<point x="45" y="43"/>
		</contour>
		<contour>
			<point x="241" y="541" type="curve"/>
			<point x="225" y="490" type="line"/>
			<point x="211" y="490" type="line"/>
			<point x="226" y="544" type="line"/>
			<point name=".hr01" x="193" y="553"/>
			<point x="168" y="583"/>
			<point x="168" y="619" type="curve" smooth="yes"/>
			<point x="168" y="662"/>
			<point x="203" y="697"/>
			<point x="246" y="697" type="curve" smooth="yes"/>
			<point x="289" y="697"/>
			<point x="324" y="662"/>
			<point x="324" y="619" type="curve" smooth="yes"/>
			<point x="324" y="572"/>
			<point x="286" y="541"/>
		</contour>
	</outline>
</glyph>
<glyph name="uni0202" format="2">
	<unicode hex="0202"/>
	<advance width="570"/>
	<outline>
		<contour>
			<point x="375.5" y="273.125" type="line"/>
			<point x="263.125" y="623.875" type="line"/>
			<point x="150.75" y="273.125" type="line"/>
		</contour>
		<contour>
			<point x="462" y="0" type="line"/>
			<point x="387.625" y="233.125" type="line"/>
			<point x="138.625" y="233.125" type="line"/>
			<point x="64.25" y="0" type="line"/>
			<point x="22.5" y="0" type="line"/>
			<point x="240.125" y="680" type="line"/>
			<point x="285.875" y="680" type="line"/>
			<point x="503.75" y="0" type="line"/>
		</contour>
		<contour>
			<point x="205" y="720" type="curve"/>
			<point x="125" y="720" type="line"/>
			<point x="125" y="820"/>
			<point x="200" y="860"/>
			<point x="280" y="860" type="curve" smooth="yes"/>
			<point x="360" y="860"/>
			<point x="435" y="820"/>
			<point x="435" y="720" type="curve"/>
			<point x="355" y="720" type="line"/>
			<point x="355" y="780"/>
			<point x="315" y="800"/>
			<point x="280" y="800" type="curve" smooth="yes"/>
			<point x="245" y="800"/>
			<point x="205" y="780"/>
		</contour>
	</outline>
</glyph>
<glyph name="uni0204" format="2">
	<unicode hex="0204"/>
	<advance width="510"/>
	<outline>
		<contour>
			<point x="420" y="331.25" type="line"/>
			<point x="135.5" y="331.25" type="line"/>
			<point x="135.5" y="36.25" type="line"/>
			<point x="460" y="36.25" type="line"/>
			<point x="460" y="0" type="line"/>
			<point x="93.75" y="0" type="line"/>
			<point x="93.75" y="680" type="line"/>
			<point x="460" y="680" type="line"/>
			<point x="460" y="643.75" type="line"/>
			<point x="135.5" y="643.75" type="line"/>
			<point x="135.5" y="367.5" type="line"/>
			<point x="420" y="367.5" type="line"/>
		</contour>
		<contour>
			<point x="278" y="730" type="line"/>
			<point x="214" y="730" type="line"/>
			<point x="138" y="910" type="line"/>
			<point x="218" y="910" type="line"/>
		</contour>
		<contour>
			<point x="373" y="730" type="line"/>
			<point x="309" y="730" type="line"/>
			<point x="248" y="910" type="line"/>
			<point x="328" y="910" type="line"/>
		</contour>
	</outline>
</glyph>
<glyph name="uni0205" format="2">
	<unicode hex="0205"/>
	<advance width="471"/>
	<outline>
		<contour>
			<point x="118" y="290" type="curve"/>
			<point x="357" y="290" type="line"/>
			<point x="344" y="358"/>
			<point x="309" y="390"/>
			<point x="239" y="390" type="curve" smooth="yes"/>
			<point x="180" y="390"/>
			<point x="128" y="353"/>
		</contour>
		<contour>
			<point x="33" y="240" type="curve" smooth="yes"/>
			<point x="33" y="348"/>
			<point x="94" y="470"/>
			<point x="239" y="470" type="curve" smooth="yes"/>
			<point x="378" y="470"/>
			<point x="434" y="350"/>
			<point x="434" y="210" type="curve"/>
			<point x="118" y="210" type="line"/>
			<point x="125" y="141"/>
			<point x="156" y="70"/>
			<point x="240" y="70" type="curve" smooth="yes"/>
			<point x="284" y="70"/>
			<point x="331" y="88"/>
			<point x="354" y="114" type="curve"/>
			<point x="415" y="98" type="line"/>
			<point x="399" y="58"/>
			<point x="341" y="-10"/>
			<point x="239" y="-10" type="curve" smooth="yes"/>
			<point x="83" y="-10"/>
			<point x="33" y="122"/>
		</contour>
		<contour>
			<point x="225" y="530" type="line"/>
			<point x="161" y="530" type="line"/>
			<point x="85" y="710" type="line"/>
			<point x="165" y="710" type="line"/>
		</contour>
		<contour>
			<point x="320" y="530" type="line"/>
			<point x="256" y="530" type="line"/>
			<point x="195" y="710" type="line"/>
			<point x="275" y="710" type="line"/>
		</contour>
	</outline>
</glyph>
<glyph name="uni0208" format="2">
	<unicode hex="0208"/>
	<advance width="229"/>
	<outline>
		<contour>
			<point x="135.5" y="0" type="line"/>
			<point x="93.75" y="0" type="line"/>
			<point x="93.75" y="680" type="line"/>
			<point x="135.5" y="680" type="line"/>
		</contour>
		<contour>
			<point x="168.625" y="730" type="line"/>
			<point x="107.625" y="910" type="line"/>
			<point x="187.625" y="910" type="line"/>
			<point x="232.625" y="730" type="line"/>
		</contour>
		<contour>
			<point x="73.625" y="730" type="line"/>
			<point x="-2.375" y="910" type="line"/>
			<point x="77.625" y="910" type="line"/>
			<point x="137.625" y="730" type="line"/>
		</contour>
	</outline>
</glyph>
<glyph name="uni020A" format="2">
	<unicode hex="020A"/>
	<advance width="229"/>
	<outline>
		<contour>
			<point x="135.5" y="0" type="line"/>
			<point x="93.75" y="0" type="line"/>
			<point x="93.75" y="680" type="line"/>
			<point x="135.5" y="680" type="line"/>
		</contour>
		<contour>
			<point x="39.625" y="740" type="curve"/>
			<point x="-40.375" y="740" type="line"/>
			<point x="-40.375" y="840"/>
			<point x="34.625" y="880"/>
			<point x="114.625" y="880" type="curve" smooth="yes"/>
			<point x="194.625" y="880"/>
			<point x="269.625" y="840"/>
			<point x="269.625" y="740" type="curve"/>
			<point x="189.625" y="740" type="line"/>
			<point x="189.625" y="800"/>
			<point x="149.625" y="820"/>
			<point x="114.625" y="820" type="curve" smooth="yes"/>
			<point x="79.625" y="820"/>
			<point x="39.625" y="800"/>
		</contour>
	</outline>
</glyph>
<glyph name="uni020C" format="2">
	<unicode hex="020C"/>
	<advance width="714"/>
	<outline>
		<contour>
			<point x="356.75" y="652.5" type="curve" smooth="yes"/>
			<point x="207.125" y="652.5"/>
			<point x="115.5" y="532.875"/>
			<point x="115.5" y="340" type="curve" smooth="yes"/>
			<point x="115.5" y="147.125"/>
			<point x="207.125" y="27.5"/>
			<point x="356.75" y="27.5" type="curve" smooth="yes"/>
			<point x="506.375" y="27.5"/>
			<point x="598" y="147.125"/>
			<point x="598" y="340" type="curve" smooth="yes"/>
			<point x="598" y="532.875"/>
			<point x="506.375" y="652.5"/>
		</contour>
		<contour>
			<point x="356.75" y="-10" type="curve" smooth="yes"/>
			<point x="183.25" y="-10"/>
			<point x="73.75" y="125.375"/>
			<point x="73.75" y="340" type="curve" smooth="yes"/>
			<point x="73.75" y="554.625"/>
			<point x="183.25" y="690"/>
			<point x="356.75" y="690" type="curve" smooth="yes"/>
			<point x="530.25" y="690"/>
			<point x="639.75" y="554.625"/>
			<point x="639.75" y="340" type="curve" smooth="yes"/>
			<point x="639.75" y="125.375"/>
			<point x="530.25" y="-10"/>
		</contour>
		<contour>
			<point x="379.75" y="730" type="line"/>
			<point x="315.75" y="730" type="line"/>
			<point x="239.75" y="910" type="line"/>
			<point x="319.75" y="910" type="line"/>
		</contour>
		<contour>
			<point x="474.75" y="730" type="line"/>
			<point x="410.75" y="730" type="line"/>
			<point x="349.75" y="910" type="line"/>
			<point x="429.75" y="910" type="line"/>
		</contour>
	</outline>
</glyph>
<glyph name="uni020E" format="2">
	<unicode hex="020E"/>
	<advance width="714"/>
	<outline>
		<contour>
			<point x="356.75" y="652.5" type="curve" smooth="yes"/>
			<point x="207.125" y="652.5"/>
			<point x="115.5" y="532.875"/>
			<point x="115.5" y="340" type="curve" smooth="yes"/>
			<point x="115.5" y="147.125"/>
			<point x="207.125" y="27.5"/>
			<point x="356.75" y="27.5" type="curve" smooth="yes"/>
			<point x="506.375" y="27.5"/>
			<point x="598" y="147.125"/>
			<point x="598" y="340" type="curve" smooth="yes"/>
			<point x="598" y="532.875"/>
			<point x="506.375" y="652.5"/>
		</contour>
		<contour>
			<point x="356.75" y="-10" type="curve" smooth="yes"/>
			<point x="183.25" y="-10"/>
			<point x="73.75" y="125.375"/>
			<point x="73.75" y="340" type="curve" smooth="yes"/>
			<point x="73.75" y="554.625"/>
			<point x="183.25" y="690"/>
			<point x="356.75" y="690" type="curve" smooth="yes"/>
			<point x="530.25" y="690"/>
			<point x="639.75" y="554.625"/>
			<point x="639.75" y="340" type="curve" smooth="yes"/>
			<point x="639.75" y="125.375"/>
			<point x="530.25" y="-10"/>
		</contour>
		<contour>
			<point x="282" y="740" type="curve"/>
			<point x="202" y="740" type="line"/>
			<point x="202" y="840"/>
			<point x="277" y="880"/>
			<point x="357" y="880" type="curve" smooth="yes"/>
			<point x="437" y="880"/>
			<point x="512" y="840"/>
			<point x="512" y="740" type="curve"/>
			<point x="432" y="740" type="line"/>
			<point x="432" y="800"/>
			<point x="392" y="820"/>
			<point x="357" y="820" type="curve" smooth="yes"/>
			<point x="322" y="820"/>
			<point x="282" y="800"/>
		</contour>
	</outline>
</glyph>
<glyph name="uni0210" format="2">
	<unicode hex="0210"/>
	<advance width="580"/>
	<outline>
		<contour>
			<point x="287" y="620" type="curve" smooth="yes"/>
			<point x="140" y="620" type="line"/>
			<point x="140" y="380" type="line"/>
			<point x="285" y="380" type="line" smooth="yes"/>
			<point x="375" y="380"/>
			<point x="440" y="417"/>
			<point x="440" y="507" type="curve" smooth="yes"/>
			<point x="440" y="570"/>
			<point x="364" y="620"/>
		</contour>
		<contour>
			<point x="140" y="300" type="line"/>
			<point x="140" y="0" type="line"/>
			<point x="50" y="0" type="line"/>
			<point x="50" y="700" type="line"/>
			<point x="285" y="700" type="line" smooth="yes"/>
			<point x="425" y="700"/>
			<point x="530" y="657"/>
			<point x="530" y="507" type="curve" smooth="yes"/>
			<point x="530" y="419"/>
			<point x="465" y="318"/>
			<point x="322" y="303" type="curve"/>
			<point x="530" y="0" type="line"/>
			<point x="420" y="0" type="line"/>
			<point x="221" y="301" type="line"/>
		</contour>
		<contour>
			<point x="152" y="770" type="line"/>
			<point x="88" y="770" type="line"/>
			<point x="12" y="950" type="line"/>
			<point x="92" y="950" type="line"/>
		</contour>
		<contour>
			<point x="247" y="770" type="line"/>
			<point x="183" y="770" type="line"/>
			<point x="122" y="950" type="line"/>
			<point x="202" y="950" type="line"/>
		</contour>
	</outline>
</glyph>
<glyph name="uni0214" format="2">
	<unicode hex="0214"/>
	<advance width="570"/>
	<outline>
		<contour>
			<point x="50" y="235" type="curve" smooth="yes"/>
			<point x="50" y="680" type="line"/>
			<point x="90" y="680" type="line"/>
			<point x="90" y="257.5" type="line" smooth="yes"/>
			<point x="90" y="96.375"/>
			<point x="162.5" y="28.75"/>
			<point x="285" y="28.75" type="curve" smooth="yes"/>
			<point x="407.5" y="28.75"/>
			<point x="480" y="96.375"/>
			<point x="480" y="257.5" type="curve" smooth="yes"/>
			<point x="480" y="680" type="line"/>
			<point x="520" y="680" type="line"/>
			<point x="520" y="235" type="line" smooth="yes"/>
			<point x="520" y="72"/>
			<point x="437.5" y="-10"/>
			<point x="285" y="-10" type="curve" smooth="yes"/>
			<point x="132.5" y="-10"/>
			<point x="50" y="72"/>
		</contour>
		<contour>
			<point x="339" y="730" type="line"/>
			<point x="278" y="910" type="line"/>
			<point x="358" y="910" type="line"/>
			<point x="403" y="730" type="line"/>
		</contour>
		<contour>
			<point x="244" y="730" type="line"/>
			<point x="168" y="910" type="line"/>
			<point x="248" y="910" type="line"/>
			<point x="308" y="730" type="line"/>
		</contour>
	</outline>
</glyph>
<glyph name="uni0216" format="2">
	<unicode hex="0216"/>
	<advance width="560"/>
	<outline>
		<contour>
			<point x="200" y="720" type="curve"/>
			<point x="120" y="720" type="line"/>
			<point x="120" y="820"/>
			<point x="195" y="860"/>
			<point x="275" y="860" type="curve" smooth="yes"/>
			<point x="355" y="860"/>
			<point x="430" y="820"/>
			<point x="430" y="720" type="curve"/>
			<point x="350" y="720" type="line"/>
			<point x="350" y="780"/>
			<point x="310" y="800"/>
			<point x="275" y="800" type="curve" smooth="yes"/>
			<point x="240" y="800"/>
			<point x="200" y="780"/>
		</contour>
		<contour>
			<point x="45" y="235" type="curve" smooth="yes"/>
			<point x="45" y="680" type="line"/>
			<point x="85" y="680" type="line"/>
			<point x="85" y="257.5" type="line" smooth="yes"/>
			<point x="85" y="96.375"/>
			<point x="157.5" y="28.75"/>
			<point x="280" y="28.75" type="curve" smooth="yes"/>
			<point x="402.5" y="28.75"/>
			<point x="475" y="96.375"/>
			<point x="475" y="257.5" type="curve" smooth="yes"/>
			<point x="475" y="680" type="line"/>
			<point x="515" y="680" type="line"/>
			<point x="515" y="235" type="line" smooth="yes"/>
			<point x="515" y="72"/>
			<point x="432.5" y="-10"/>
			<point x="280" y="-10" type="curve" smooth="yes"/>
			<point x="127.5" y="-10"/>
			<point x="45" y="72"/>
		</contour>
	</outline>
</glyph>
<glyph name="uni0226" format="2">
	<unicode hex="0226"/>
	<advance width="570"/>
	<outline>
		<contour>
			<point x="375.5" y="273.125" type="line"/>
			<point x="263.125" y="623.875" type="line"/>
			<point x="150.75" y="273.125" type="line"/>
		</contour>
		<contour>
			<point x="462" y="0" type="line"/>
			<point x="387.625" y="233.125" type="line"/>
			<point x="138.625" y="233.125" type="line"/>
			<point x="64.25" y="0" type="line"/>
			<point x="22.5" y="0" type="line"/>
			<point x="240.125" y="680" type="line"/>
			<point x="285.875" y="680" type="line"/>
			<point x="503.75" y="0" type="line"/>
		</contour>
		<contour>
			<point x="301.25" y="837.5" type="line"/>
			<point x="301.25" y="750" type="line"/>
			<point x="261.25" y="750" type="line"/>
			<point x="261.25" y="837.5" type="line"/>
		</contour>
	</outline>
</glyph>
<glyph name="circumflex" format="2">
	<unicode hex="02C6"/>
	<advance width="340"/>
	<outline>
		<contour>
			<point x="170" y="667.75" type="line"/>
			<point x="55.5" y="520" type="line"/>
			<point x="26.25" y="520" type="line"/>
			<point x="143.75" y="700" type="line"/>
			<point x="196.25" y="700" type="line"/>
			<point x="313.75" y="520" type="line"/>
			<point x="284.5" y="520" type="line"/>
		</contour>
	</outline>
</glyph>
<glyph name="breve" format="2">
	<unicode hex="02D8"/>
	<advance width="410"/>
	<outline>
		<contour>
			<point x="50" y="660" type="curve"/>
			<point x="130" y="660" type="line"/>
			<point x="130" y="600"/>
			<point x="170" y="580"/>
			<point x="205" y="580" type="curve" smooth="yes"/>
			<point x="240" y="580"/>
			<point x="280" y="600"/>
			<point x="280" y="660" type="curve"/>
			<point x="360" y="660" type="line"/>
			<point x="360" y="560"/>
			<point x="285" y="520"/>
			<point x="205" y="520" type="curve" smooth="yes"/>
			<point x="125" y="520"/>
			<point x="50" y="560"/>
		</contour>
	</outline>
</glyph>
<glyph name="dotaccent" format="2">
	<unicode hex="02D9"/>
	<advance width="193"/>
	<outline>
		<contour>
			<point x="116.25" y="520" type="line"/>
			<point x="76.25" y="520" type="line"/>
			<point x="76.25" y="607.5" type="line"/>
			<point x="116.25" y="607.5" type="line"/>
		</contour>
	</outline>
</glyph>
<glyph name="ring" format="2">
	<unicode hex="02DA"/>
	<advance width="222"/>
	<outline>
		<contour>
			<point x="33" y="619" type="curve" smooth="yes"/>
			<point x="33" y="662"/>
			<point x="68" y="697"/>
			<point x="111" y="697" type="curve" smooth="yes"/>
			<point x="154" y="697"/>
			<point x="189" y="662"/>
			<point x="189" y="619" type="curve" smooth="yes"/>
			<point x="189" y="576"/>
			<point x="154" y="541"/>
			<point x="111" y="541" type="curve" smooth="yes"/>
			<point x="68" y="541"/>
			<point x="33" y="576"/>
		</contour>
		<contour>
			<point x="80" y="619" type="curve" smooth="yes"/>
			<point x="80" y="602"/>
			<point x="94" y="588"/>
			<point name=".hr01" x="111" y="588" type="curve" smooth="yes"/>
			<point x="128" y="588"/>
			<point x="142" y="602"/>
			<point x="142" y="619" type="curve" smooth="yes"/>
			<point x="142" y="636"/>
			<point x="128" y="650"/>
			<point x="111" y="650" type="curve" smooth="yes"/>
			<point x="94" y="650"/>
			<point x="80" y="636"/>
		</contour>
	</outline>
</glyph>
<glyph name="ogonek" format="2">
	<unicode hex="02DB"/>
	<advance width="322"/>
	<outline>
		<contour>
			<point x="92.5" y="-140.625" type="curve" smooth="yes"/>
			<point x="92.5" y="-92.75"/>
			<point x="113.75" y="-52.125"/>
			<point x="159.125" y="0" type="curve"/>
			<point x="191.625" y="0" type="line"/>
			<point x="143.625" y="-55.5"/>
			<point x="127.625" y="-88.25"/>
			<point x="127.625" y="-129.125" type="curve" smooth="yes"/>
			<point x="127.625" y="-161.875"/>
			<point x="143.25" y="-178.75"/>
			<point x="177.375" y="-178.75" type="curve" smooth="yes"/>
			<point x="193.25" y="-178.75"/>
			<point x="208.5" y="-171"/>
			<point x="218.375" y="-161.375" type="curve"/>
			<point x="229.125" y="-188.125" type="line"/>
			<point x="209.125" y="-203.875"/>
			<point x="190.625" y="-210"/>
			<point x="165.625" y="-210" type="curve" smooth="yes"/>
			<point x="118.375" y="-210"/>
			<point x="92.5" y="-184.375"/>
		</contour>
	</outline>
</glyph>
<glyph name="gravecomb" format="2">
	<unicode hex="0300"/>
	<outline>
		<contour>
			<point x="-255.25" y="520" type="line"/>
			<point x="-325.5" y="685" type="line"/>
			<point x="-272.5" y="685" type="line"/>
			<point x="-222.5" y="520" type="line"/>
		</contour>
	</outline>
	<anchor name="top" x="-239.5" y="520"/>
</glyph>
<glyph name="acutecomb" format="2">
	<unicode hex="0301"/>
	<outline>
		<contour>
			<point x="-185.5" y="520" type="line"/>
			<point x="-218.25" y="520" type="line"/>
			<point x="-168.25" y="702.5" type="line"/>
			<point x="-115.25" y="702.5" type="line"/>
		</contour>
	</outline>
	<anchor name="top" x="-202.375" y="520"/>
</glyph>
<glyph name="uni0307" format="2">
	<unicode hex="0307"/>
	<outline>
		<contour>
			<point x="-76.25" y="520" type="line"/>
			<point x="-116.25" y="520" type="line"/>
			<point x="-116.25" y="607.5" type="line"/>
			<point x="-76.25" y="607.5" type="line"/>
		</contour>
	</outline>
</glyph>
<glyph name="uni0308" format="2">
	<unicode hex="0308"/>
	<outline>
		<contour>
			<point x="-271.375" y="520" type="line"/>
			<point x="-310.125" y="520" type="line"/>
			<point x="-310.125" y="611.25" type="line"/>
			<point x="-271.375" y="611.25" type="line"/>
		</contour>
		<contour>
			<point x="-101.625" y="520" type="line"/>
			<point x="-140.375" y="520" type="line"/>
			<point x="-140.375" y="611.25" type="line"/>
			<point x="-101.625" y="611.25" type="line"/>
		</contour>
	</outline>
	<anchor name="top" x="-206.75" y="520"/>
</glyph>
<glyph name="uni0326" format="2">
	<unicode hex="0326"/>
	<outline>
		<contour>
			<point x="-130" y="-140" type="line"/>
			<point x="-130" y="-60" type="line"/>
			<point x="-50" y="-60" type="line"/>
			<point x="-50" y="-140" type="line"/>
			<point x="-96" y="-270" type="line"/>
			<point x="-130" y="-270" type="line"/>
			<point x="-108" y="-140" type="line"/>
		</contour>
	</outline>
</glyph>
<glyph name="uni0400" format="2">
	<unicode hex="0400"/>
	<advance width="510"/>
	<outline>
		<contour>
			<point x="420" y="331.25" type="line"/>
			<point x="135.5" y="331.25" type="line"/>
			<point x="135.5" y="36.25" type="line"/>
			<point x="460" y="36.25" type="line"/>
			<point x="460" y="0" type="line"/>
			<point x="93.75" y="0" type="line"/>
			<point x="93.75" y="680" type="line"/>
			<point x="460" y="680" type="line"/>
			<point x="460" y="643.75" type="line"/>
			<point x="135.5" y="643.75" type="line"/>
			<point x="135.5" y="367.5" type="line"/>
			<point x="420" y="367.5" type="line"/>
		</contour>
		<contour>
			<point x="287" y="740" type="line"/>
			<point x="223" y="740" type="line"/>
			<point x="157" y="900" type="line"/>
			<point x="237" y="900" type="line"/>
		</contour>
	</outline>
</glyph>
<glyph name="uni0402" format="2">
	<unicode hex="0402"/>
	<advance width="1231"/>
	<outline>
		<contour>
			<point x="907.875" y="-90" type="curve"/>
			<point x="986.875" y="-90" type="line"/>
			<point x="1002.88" y="-114"/>
			<point x="1017.88" y="-120"/>
			<point x="1040.88" y="-120" type="curve" smooth="yes"/>
			<point x="1065.88" y="-120"/>
			<point x="1080.88" y="-103"/>
			<point x="1080.88" y="-55" type="curve" smooth="yes"/>
			<point x="1080.88" y="460" type="line"/>
			<point x="1160.88" y="460" type="line"/>
			<point x="1160.88" y="-31" type="line" smooth="yes"/>
			<point x="1160.88" y="-139"/>
			<point x="1103.88" y="-200"/>
			<point x="1038.88" y="-200" type="curve" smooth="yes"/>
			<point x="974.875" y="-200"/>
			<point x="923.875" y="-149"/>
		</contour>
		<contour>
			<point x="260.875" y="642.5" type="line"/>
			<point x="260.875" y="0" type="line"/>
			<point x="219.125" y="0" type="line"/>
			<point x="219.125" y="642.5" type="line"/>
			<point x="10" y="642.5" type="line"/>
			<point x="10" y="680" type="line"/>
			<point x="470" y="680" type="line"/>
			<point x="470" y="642.5" type="line"/>
		</contour>
		<contour>
			<point x="777.75" y="470" type="curve" smooth="yes"/>
			<point x="871.625" y="470"/>
			<point x="924" y="401.375"/>
			<point x="924" y="312.5" type="curve" smooth="yes"/>
			<point x="924" y="0" type="line"/>
			<point x="884" y="0" type="line"/>
			<point x="884" y="307.5" type="line" smooth="yes"/>
			<point x="884" y="385.625"/>
			<point x="835.625" y="442.875"/>
			<point x="759.625" y="442.875" type="curve" smooth="yes"/>
			<point x="680.875" y="442.875"/>
			<point x="605" y="367.75"/>
			<point x="605" y="288.75" type="curve" smooth="yes"/>
			<point x="605" y="0" type="line"/>
			<point x="565" y="0" type="line"/>
			<point x="565" y="700" type="line"/>
			<point name=".hr01" x="605" y="700" type="line"/>
			<point x="605" y="362.75" type="line"/>
			<point x="642.625" y="425.875"/>
			<point x="707.375" y="470"/>
		</contour>
	</outline>
</glyph>
<glyph name="uni040C" format="2">
	<unicode hex="040C"/>
	<advance width="523"/>
	<outline>
		<contour>
			<point x="135.5" y="303.875" type="line"/>
			<point x="135.5" y="0" type="line"/>
			<point x="93.75" y="0" type="line"/>
			<point x="93.75" y="680" type="line"/>
			<point x="135.5" y="680" type="line"/>
			<point x="135.5" y="342.375" type="line"/>
			<point x="233.125" y="359.375" type="line"/>
			<point x="425" y="680" type="line"/>
			<point x="472.75" y="680" type="line"/>
			<point x="272.75" y="350" type="line"/>
			<point x="512.75" y="0" type="line"/>
			<point x="462.5" y="0" type="line"/>
			<point x="239.75" y="324.625" type="line"/>
		</contour>
		<contour>
			<point x="309.5" y="913.75" type="line"/>
			<point x="248" y="730" type="line"/>
			<point x="213.25" y="730" type="line"/>
			<point x="265.75" y="913.75" type="line"/>
		</contour>
	</outline>
</glyph>
<glyph name="uni0413" format="2">
	<unicode hex="0413"/>
	<advance width="490"/>
	<outline>
		<contour>
			<point x="460" y="643.75" type="line"/>
			<point x="135.5" y="643.75" type="line"/>
			<point x="135.5" y="0" type="line"/>
			<point x="93.75" y="0" type="line"/>
			<point x="93.75" y="680" type="line"/>
			<point x="460" y="680" type="line"/>
		</contour>
	</outline>
</glyph>
<glyph name="uni0423" format="2">
	<unicode hex="0423"/>
	<advance width="658"/>
	<outline>
		<contour>
			<point x="245" y="200" type="line"/>
			<point x="30" y="700" type="line"/>
			<point x="137" y="700" type="line"/>
			<point x="300" y="278" type="line"/>
			<point x="521" y="700" type="line"/>
			<point x="628" y="700" type="line"/>
			<point x="251" y="0" type="line"/>
			<point x="140" y="0" type="line"/>
		</contour>
	</outline>
</glyph>
<glyph name="uni042A" format="2">
	<unicode hex="042A"/>
	<advance width="730"/>
	<outline>
		<contour>
			<point x="415" y="322" type="curve" smooth="yes"/>
			<point x="290" y="322" type="line"/>
			<point x="290" y="80" type="line"/>
			<point x="415" y="80" type="line" smooth="yes"/>
			<point x="564" y="80"/>
			<point x="590" y="131"/>
			<point x="590" y="205" type="curve" smooth="yes"/>
			<point x="590" y="273"/>
			<point x="560" y="322"/>
		</contour>
		<contour>
			<point x="200" y="0" type="line"/>
			<point x="200" y="620" type="line"/>
			<point x="50" y="620" type="line"/>
			<point x="50" y="700" type="line"/>
			<point x="290" y="700" type="line"/>
			<point x="290" y="402" type="line"/>
			<point x="415" y="402" type="line" smooth="yes"/>
			<point x="590" y="402"/>
			<point x="673" y="332"/>
			<point x="673" y="206" type="curve" smooth="yes"/>
			<point x="673" y="104"/>
			<point x="652" y="0"/>
			<point x="415" y="0" type="curve" smooth="yes"/>
		</contour>
	</outline>
</glyph>
<glyph name="uni042B" format="2">
	<unicode hex="042B"/>
	<advance width="759"/>
	<outline>
		<component base="uni042C"/>
		<contour>
			<point x="649.75" y="697.5" type="line"/>
			<point x="649.75" y="0" type="line"/>
			<point x="608" y="0" type="line"/>
			<point x="608" y="697.5" type="line"/>
		</contour>
	</outline>
</glyph>
<glyph name="uni042C" format="2">
	<unicode hex="042C"/>
	<advance width="583"/>
	<outline>
		<contour>
			<point x="78" y="0" type="line"/>
			<point x="78" y="37.5" type="line"/>
			<point x="263" y="37.5" type="line" smooth="yes"/>
			<point x="379.75" y="37.5"/>
			<point x="431" y="123.5"/>
			<point x="431" y="207.5" type="curve" smooth="yes"/>
			<point x="431" y="301.125"/>
			<point x="376.75" y="369.5"/>
			<point x="263" y="369.5" type="curve" smooth="yes"/>
			<point x="78" y="369.5" type="line"/>
			<point x="78" y="407" type="line"/>
			<point x="258" y="407" type="line" smooth="yes"/>
			<point x="419" y="407"/>
			<point x="473" y="323.5"/>
			<point x="473" y="207.5" type="curve" smooth="yes"/>
			<point x="473" y="94.5"/>
			<point x="406" y="0"/>
			<point x="258" y="0" type="curve" smooth="yes"/>
		</contour>
		<contour>
			<point x="50" y="0" type="line"/>
			<point x="50" y="680" type="line"/>
			<point x="91.75" y="680" type="line"/>
			<point x="91.75" y="0" type="line"/>
		</contour>
	</outline>
</glyph>
<glyph name="uni0440" format="2">
	<unicode hex="0440"/>
	<advance width="504"/>
	<outline>
		<contour>
			<point x="138.125" y="230.25" type="curve" smooth="yes"/>
			<point x="138.125" y="226" type="line" smooth="yes"/>
			<point x="138.125" y="123"/>
			<point x="189.125" y="55"/>
			<point x="258.125" y="55" type="curve" smooth="yes"/>
			<point x="351.125" y="55"/>
			<point x="389.125" y="123"/>
			<point x="389.125" y="231" type="curve" smooth="yes"/>
			<point x="389.125" y="306"/>
			<point x="370.125" y="405"/>
			<point x="258.125" y="405" type="curve" smooth="yes"/>
			<point x="175.125" y="405"/>
			<point x="138.125" y="314.25"/>
		</contour>
		<contour>
			<point x="110.625" y="376.625" type="line"/>
			<point x="125.5" y="385.625" type="line"/>
			<point x="149.58" y="439"/>
			<point x="201.636" y="468.75"/>
			<point x="262.5" y="468.75" type="curve"/>
			<point x="372.334" y="466.939"/>
			<point x="427.313" y="355.599"/>
			<point x="427.75" y="249.75" type="curve"/>
			<point x="431.75" y="151.625"/>
			<point x="380.5" y="50"/>
			<point x="279.625" y="50" type="curve" smooth="yes"/>
			<point x="240.125" y="50"/>
			<point x="199.625" y="59.5"/>
			<point x="179.5" y="85.75" type="curve"/>
			<point x="179.5" y="30.4106"/>
			<point x="171.5" y="-133.894"/>
			<point x="155.75" y="-176.25" type="curve"/>
			<point x="131.89" y="-176.25"/>
			<point x="84.3935" y="-172.375"/>
			<point x="68.125" y="-165.75" type="curve"/>
			<point x="68.125" y="376.625" type="line"/>
		</contour>
	</outline>
</glyph>
<glyph name="uni0444" format="2">
	<unicode hex="0444"/>
	<advance width="646"/>
	<outline>
		<contour>
			<point x="130" y="230" type="curve" smooth="yes"/>
			<point x="130" y="121"/>
			<point x="193" y="60"/>
			<point x="283" y="60" type="curve"/>
			<point x="283" y="400" type="line"/>
			<point x="193" y="400"/>
			<point x="130" y="335"/>
		</contour>
		<contour>
			<point x="363" y="400" type="curve"/>
			<point x="363" y="60" type="line"/>
			<point x="453" y="60"/>
			<point x="516" y="121"/>
			<point x="516" y="230" type="curve" smooth="yes"/>
			<point x="516" y="335"/>
			<point x="453" y="400"/>
		</contour>
		<contour>
			<point x="50" y="230" type="curve" smooth="yes"/>
			<point x="50" y="380"/>
			<point x="163" y="470"/>
			<point x="283" y="470" type="curve"/>
			<point x="283" y="700" type="line"/>
			<point x="363" y="700" type="line"/>
			<point x="363" y="470" type="line"/>
			<point x="483" y="470"/>
			<point x="596" y="380"/>
			<point x="596" y="230" type="curve" smooth="yes"/>
			<point x="596" y="80"/>
			<point x="483" y="-10"/>
			<point x="363" y="-10" type="curve"/>
			<point x="363" y="-200" type="line"/>
			<point x="283" y="-200" type="line"/>
			<point x="283" y="-10" type="line"/>
			<point x="163" y="-10"/>
			<point x="50" y="80"/>
		</contour>
	</outline>
</glyph>
<glyph name="uni0449" format="2">
	<unicode hex="0449"/>
	<advance width="784"/>
	<outline>
		<contour>
			<point x="684" y="0" type="line"/>
			<point x="70" y="0" type="line"/>
			<point x="70" y="460" type="line"/>
			<point x="150" y="460" type="line"/>
			<point x="150" y="68" type="line"/>
			<point x="337" y="68" type="line"/>
			<point x="337" y="460" type="line"/>
			<point x="417" y="460" type="line"/>
			<point x="417" y="68" type="line"/>
			<point x="604" y="68" type="line"/>
			<point x="604" y="460" type="line"/>
			<point x="684" y="460" type="line"/>
			<point x="684" y="68" type="line"/>
			<point x="754" y="68" type="line"/>
			<point x="754" y="-140" type="line"/>
			<point x="694" y="-140" type="line"/>
		</contour>
	</outline>
</glyph>
<glyph name="uni0450" format="2">
	<unicode hex="0450"/>
	<advance width="518"/>
	<outline>
		<contour>
			<point x="139" y="278" type="curve"/>
			<point x="379" y="278" type="line"/>
			<point x="379" y="278"/>
			<point x="371" y="402"/>
			<point x="259" y="402" type="curve" smooth="yes"/>
			<point x="147" y="402"/>
			<point x="139" y="278"/>
		</contour>
		<contour>
			<point x="50" y="240" type="curve" smooth="yes"/>
			<point x="50" y="360"/>
			<point x="119" y="470"/>
			<point x="259" y="470" type="curve" smooth="yes"/>
			<point x="399" y="470"/>
			<point x="468" y="360"/>
			<point x="468" y="240" type="curve" smooth="yes"/>
			<point x="468" y="210" type="line"/>
			<point x="134" y="210" type="line"/>
			<point x="134" y="140"/>
			<point x="179" y="58"/>
			<point x="259" y="58" type="curve" smooth="yes"/>
			<point x="329" y="58"/>
			<point x="365" y="98"/>
			<point x="375" y="142" type="curve"/>
			<point x="458" y="142" type="line"/>
			<point x="443" y="73"/>
			<point x="409" y="-10"/>
			<point x="259" y="-10" type="curve" smooth="yes"/>
			<point x="109" y="-10"/>
			<point x="50" y="120"/>
		</contour>
		<contour>
			<point x="292" y="520" type="line"/>
			<point x="228" y="520" type="line"/>
			<point x="162" y="680" type="line"/>
			<point x="242" y="680" type="line"/>
		</contour>
	</outline>
</glyph>
<glyph name="uni045E" format="2">
	<unicode hex="045E"/>
	<advance width="460"/>
	<outline>
		<contour>
			<point x="75" y="670" type="curve"/>
			<point x="150" y="670" type="line"/>
			<point x="149" y="614"/>
			<point x="196" y="594"/>
			<point x="230" y="594" type="curve" smooth="yes"/>
			<point x="272" y="594"/>
			<point x="310" y="612"/>
			<point x="310" y="670" type="curve"/>
			<point x="385" y="670" type="line"/>
			<point x="385" y="579"/>
			<point x="318" y="530"/>
			<point x="230" y="530" type="curve" smooth="yes"/>
			<point x="144" y="530"/>
			<point x="75" y="581"/>
		</contour>
		<contour>
			<point x="198" y="-13" type="curve"/>
			<point x="30" y="459" type="line"/>
			<point x="110" y="459" type="line"/>
			<point x="239" y="97" type="line"/>
			<point x="354" y="459" type="line"/>
			<point x="430" y="459" type="line"/>
			<point x="258" y="-50" type="line" smooth="yes"/>
			<point x="252" y="-68"/>
			<point x="225" y="-201"/>
			<point x="150" y="-201" type="curve" smooth="yes"/>
			<point x="108" y="-201"/>
			<point x="89" y="-199"/>
			<point x="58" y="-191" type="curve"/>
			<point x="58" y="-121" type="line"/>
			<point x="78" y="-130"/>
			<point x="94" y="-136"/>
			<point x="116" y="-136" type="curve" smooth="yes"/>
			<point x="122" y="-136" type="line" smooth="yes"/>
			<point x="163" y="-136"/>
			<point x="187" y="-55"/>
		</contour>
	</outline>
</glyph>
<glyph name="uni04D0" format="2">
	<unicode hex="04D0"/>
	<advance width="570"/>
	<outline>
		<contour>
			<point x="375.5" y="273.125" type="line"/>
			<point x="263.125" y="623.875" type="line"/>
			<point x="150.75" y="273.125" type="line"/>
		</contour>
		<contour>
			<point x="462" y="0" type="line"/>
			<point x="387.625" y="233.125" type="line"/>
			<point x="138.625" y="233.125" type="line"/>
			<point x="64.25" y="0" type="line"/>
			<point x="22.5" y="0" type="line"/>
			<point x="240.125" y="680" type="line"/>
			<point x="285.875" y="680" type="line"/>
			<point x="503.75" y="0" type="line"/>
		</contour>
		<contour>
			<point x="130" y="890" type="curve"/>
			<point x="210" y="890" type="line"/>
			<point x="210" y="830"/>
			<point x="250" y="810"/>
			<point x="285" y="810" type="curve" smooth="yes"/>
			<point x="320" y="810"/>
			<point x="360" y="830"/>
			<point x="360" y="890" type="curve"/>
			<point x="440" y="890" type="line"/>
			<point x="440" y="790"/>
			<point x="365" y="750"/>
			<point x="285" y="750" type="curve" smooth="yes"/>
			<point x="205" y="750"/>
			<point x="130" y="790"/>
		</contour>
	</outline>
</glyph>
<glyph name="uni04D2" format="2">
	<unicode hex="04D2"/>
	<advance width="570"/>
	<outline>
		<contour>
			<point x="375.5" y="273.125" type="line"/>
			<point x="263.125" y="623.875" type="line"/>
			<point x="150.75" y="273.125" type="line"/>
		</contour>
		<contour>
			<point x="462" y="0" type="line"/>
			<point x="387.625" y="233.125" type="line"/>
			<point x="138.625" y="233.125" type="line"/>
			<point x="64.25" y="0" type="line"/>
			<point x="22.5" y="0" type="line"/>
			<point x="240.125" y="680" type="line"/>
			<point x="285.875" y="680" type="line"/>
			<point x="503.75" y="0" type="line"/>
		</contour>
		<contour>
			<point x="246" y="840" type="line"/>
			<point x="246" y="760" type="line"/>
			<point x="166" y="760" type="line"/>
			<point x="166" y="840" type="line"/>
		</contour>
		<contour>
			<point x="404" y="840" type="line"/>
			<point x="404" y="760" type="line"/>
			<point x="324" y="760" type="line"/>
			<point x="324" y="840" type="line"/>
		</contour>
	</outline>
</glyph>
<glyph name="uni04DE" format="2">
	<unicode hex="04DE"/>
	<advance width="580"/>
	<outline>
		<contour>
			<point x="221" y="770" type="line"/>
			<point x="141" y="770" type="line"/>
			<point x="141" y="850" type="line"/>
			<point x="221" y="850" type="line"/>
		</contour>
		<contour>
			<point x="378" y="770" type="line"/>
			<point x="298" y="770" type="line"/>
			<point x="298" y="850" type="line"/>
			<point x="378" y="850" type="line"/>
		</contour>
		<contour>
			<point x="49" y="185" type="curve"/>
			<point x="139" y="185" type="line"/>
			<point x="139" y="137"/>
			<point x="197" y="80"/>
			<point x="284" y="80" type="curve" smooth="yes"/>
			<point x="360" y="80"/>
			<point x="439" y="114"/>
			<point x="439" y="205" type="curve" smooth="yes"/>
			<point x="439" y="315"/>
			<point x="358" y="337"/>
			<point x="264" y="337" type="curve" smooth="yes"/>
			<point x="209" y="337" type="line"/>
			<point x="209" y="364"/>
			<point x="209" y="390"/>
			<point x="209" y="417" type="curve"/>
			<point x="264" y="417" type="line" smooth="yes"/>
			<point x="352" y="417"/>
			<point name=".hr01" x="389" y="431"/>
			<point x="389" y="522" type="curve" smooth="yes"/>
			<point x="389" y="586"/>
			<point x="327" y="620"/>
			<point x="259" y="620" type="curve" smooth="yes"/>
			<point x="203" y="620"/>
			<point x="139" y="591"/>
			<point x="139" y="520" type="curve"/>
			<point x="49" y="520" type="line"/>
			<point x="49" y="634"/>
			<point x="152" y="700"/>
			<point x="259" y="700" type="curve" smooth="yes"/>
			<point x="402" y="700"/>
			<point x="479" y="642"/>
			<point x="479" y="522" type="curve" smooth="yes"/>
			<point x="479" y="464"/>
			<point x="444" y="412"/>
			<point x="377" y="384" type="curve"/>
			<point x="460" y="370"/>
			<point name=".hr02" x="529" y="322"/>
			<point x="529" y="205" type="curve" smooth="yes"/>
			<point x="529" y="64"/>
			<point x="421" y="0"/>
			<point x="284" y="0" type="curve" smooth="yes"/>
			<point x="175" y="0"/>
			<point x="49" y="62"/>
		</contour>
	</outline>
</glyph>
<glyph name="uni04F0" format="2">
	<unicode hex="04F0"/>
	<advance width="658"/>
	<outline>
		<contour>
			<point x="290" y="770" type="line"/>
			<point x="210" y="770" type="line"/>
			<point x="210" y="850" type="line"/>
			<point x="290" y="850" type="line"/>
		</contour>
		<contour>
			<point x="447" y="770" type="line"/>
			<point x="367" y="770" type="line"/>
			<point x="367" y="850" type="line"/>
			<point x="447" y="850" type="line"/>
		</contour>
		<contour>
			<point x="244" y="200" type="line"/>
			<point x="29" y="700" type="line"/>
			<point x="136" y="700" type="line"/>
			<point x="299" y="278" type="line"/>
			<point x="520" y="700" type="line"/>
			<point x="627" y="700" type="line"/>
			<point x="250" y="0" type="line"/>
			<point x="139" y="0" type="line"/>
		</contour>
	</outline>
</glyph>
<glyph name="daggerdbl" format="2">
	<unicode hex="2021"/>
	<advance width="495"/>
	<outline>
		<contour>
			<point x="208" y="11" type="line"/>
			<point x="35" y="11" type="line"/>
			<point x="35" y="80" type="line"/>
			<point x="208" y="80" type="line"/>
			<point x="218" y="240" type="line"/>
			<point x="208" y="396" type="line"/>
			<point x="35" y="396" type="line"/>
			<point x="35" y="465" type="line"/>
			<point x="208" y="465" type="line"/>
			<point x="218" y="628" type="line"/>
			<point x="277" y="628" type="line"/>
			<point x="287" y="465" type="line"/>
			<point x="459" y="465" type="line"/>
			<point x="459" y="396" type="line"/>
			<point x="287" y="396" type="line"/>
			<point x="277" y="240" type="line"/>
			<point x="287" y="80" type="line"/>
			<point x="460" y="80" type="line"/>
			<point x="460" y="11" type="line"/>
			<point x="287" y="11" type="line"/>
			<point x="277" y="-150" type="line"/>
			<point x="218" y="-150" type="line"/>
		</contour>
	</outline>
</glyph>
<glyph name="uni2116" format="2">
	<unicode hex="2116"/>
	<advance width="880"/>
	<outline>
		<contour>
			<point x="625" y="306" type="curve" smooth="yes"/>
			<point x="625" y="234"/>
			<point x="655" y="202"/>
			<point x="692" y="202" type="curve" smooth="yes"/>
			<point x="729" y="202"/>
			<point x="759" y="234"/>
			<point x="759" y="306" type="curve" smooth="yes"/>
			<point x="759" y="378"/>
			<point x="729" y="410"/>
			<point x="692" y="410" type="curve" smooth="yes"/>
			<point x="655" y="410"/>
			<point x="625" y="378"/>
		</contour>
		<contour>
			<point x="810" y="65" type="line"/>
			<point x="810" y="0" type="line"/>
			<point x="570" y="0" type="line"/>
			<point x="570" y="65" type="line"/>
		</contour>
		<contour>
			<point x="140" y="597" type="line"/>
			<point x="140" y="0" type="line"/>
			<point x="50" y="0" type="line"/>
			<point x="50" y="700" type="line"/>
			<point x="190" y="700" type="line"/>
			<point x="420" y="105" type="line"/>
			<point x="420" y="700" type="line"/>
			<point x="510" y="700" type="line"/>
			<point x="510" y="0" type="line"/>
			<point x="370" y="0" type="line"/>
		</contour>
		<contour>
			<point x="554" y="306" type="curve" smooth="yes"/>
			<point x="554" y="422"/>
			<point x="608" y="472"/>
			<point x="692" y="472" type="curve" smooth="yes"/>
			<point x="776" y="472"/>
			<point x="830" y="422"/>
			<point x="830" y="306" type="curve" smooth="yes"/>
			<point x="830" y="190"/>
			<point x="776" y="140"/>
			<point x="692" y="140" type="curve" smooth="yes"/>
			<point x="608" y="140"/>
			<point x="554" y="190"/>
		</contour>
	</outline>
</glyph>
<glyph name="eight.superior" format="2">
	<advance width="390"/>
	<outline>
		<contour>
			<point x="94" y="552" type="curve" smooth="yes"/>
			<point x="94" y="495"/>
			<point x="126" y="467"/>
			<point x="188" y="467" type="curve" smooth="yes"/>
			<point x="250" y="467"/>
			<point x="284" y="495"/>
			<point x="284" y="552" type="curve" smooth="yes"/>
			<point x="284" y="609"/>
			<point x="248" y="635"/>
			<point x="188" y="636" type="curve"/>
			<point x="134" y="636"/>
			<point x="94" y="599"/>
		</contour>
		<contour>
			<point x="103" y="759" type="curve" smooth="yes"/>
			<point name=".hr01" x="103" y="721"/>
			<point x="127" y="685"/>
			<point x="188" y="685" type="curve" smooth="yes"/>
			<point x="249" y="685"/>
			<point x="273" y="721"/>
			<point x="273" y="759" type="curve" smooth="yes"/>
			<point x="273" y="809"/>
			<point x="234" y="828"/>
			<point x="188" y="828" type="curve" smooth="yes"/>
			<point x="127" y="828"/>
			<point x="103" y="797"/>
		</contour>
		<contour>
			<point x="27" y="547" type="curve" smooth="yes"/>
			<point x="27" y="607"/>
			<point name=".hr02" x="63" y="641"/>
			<point x="101" y="660" type="curve"/>
			<point x="82" y="667"/>
			<point x="35" y="684"/>
			<point x="35" y="765" type="curve" smooth="yes"/>
			<point name=".hr03" x="35" y="834"/>
			<point x="96" y="888"/>
			<point x="188" y="888" type="curve" smooth="yes"/>
			<point x="292" y="888"/>
			<point x="341" y="834"/>
			<point x="341" y="765" type="curve" smooth="yes"/>
			<point x="341" y="684"/>
			<point x="298" y="671"/>
			<point x="257" y="660" type="curve"/>
			<point x="308" y="641"/>
			<point x="351" y="607"/>
			<point x="351" y="547" type="curve" smooth="yes"/>
			<point name=".hr04" x="351" y="461"/>
			<point x="295" y="407"/>
			<point x="188" y="407" type="curve" smooth="yes"/>
			<point x="98" y="407"/>
			<point x="27" y="445"/>
		</contour>
	</outline>
</glyph>
<glyph name="five.dnom" format="2">
	<advance width="366"/>
	<outline>
		<contour>
			<point x="35" y="-128" type="curve"/>
			<point x="95" y="-128" type="line"/>
			<point x="105" y="-158"/>
			<point x="130" y="-177"/>
			<point x="181" y="-177" type="curve" smooth="yes"/>
			<point x="244" y="-177"/>
			<point x="273" y="-117"/>
			<point x="273" y="-63" type="curve" smooth="yes"/>
			<point x="273" y="16"/>
			<point x="233" y="44"/>
			<point x="202" y="44" type="curve" smooth="yes"/>
			<point x="160" y="44"/>
			<point x="112" y="24"/>
			<point x="104" y="-32" type="curve"/>
			<point x="37" y="-34" type="line"/>
			<point x="37" y="237" type="line"/>
			<point x="290" y="237" type="line"/>
			<point x="290" y="184" type="line"/>
			<point x="102" y="184" type="line"/>
			<point x="102" y="33" type="line"/>
			<point x="103" y="33"/>
			<point x="103" y="33"/>
			<point x="104" y="33" type="curve"/>
			<point x="122" y="72"/>
			<point x="159" y="100"/>
			<point x="207" y="100" type="curve" smooth="yes"/>
			<point x="288" y="100"/>
			<point x="340" y="33"/>
			<point x="340" y="-67" type="curve" smooth="yes"/>
			<point x="340" y="-162"/>
			<point x="274" y="-237"/>
			<point x="184" y="-237" type="curve" smooth="yes"/>
			<point x="98" y="-237"/>
			<point x="53" y="-194"/>
		</contour>
	</outline>
</glyph>
<glyph name="four.superior" format="2">
	<advance width="355"/>
	<outline>
		<contour>
			<point x="246" y="823" type="line"/>
			<point x="240" y="823" type="line"/>
			<point x="93" y="589" type="line"/>
			<point x="246" y="589" type="line"/>
		</contour>
		<contour>
			<point x="246" y="414" type="line"/>
			<point x="246" y="528" type="line"/>
			<point x="33" y="528" type="line"/>
			<point x="33" y="581" type="line"/>
			<point x="212" y="881" type="line"/>
			<point x="314" y="881" type="line"/>
			<point x="314" y="589" type="line"/>
			<point x="354" y="589" type="line"/>
			<point x="354" y="528" type="line"/>
			<point x="314" y="528" type="line"/>
			<point x="314" y="414" type="line"/>
		</contour>
	</outline>
</glyph>
<glyph name="one.subscript" format="2">
	<advance width="225"/>
	<outline>
		<contour>
			<point x="33" y="47" type="curve"/>
			<point x="33" y="99" type="line"/>
			<point x="106" y="99"/>
			<point x="144" y="119"/>
			<point x="170" y="145" type="curve"/>
			<point x="192" y="145" type="line"/>
			<point x="192" y="-322" type="line"/>
			<point x="124" y="-322" type="line"/>
			<point x="124" y="64" type="line"/>
			<point x="109" y="59"/>
			<point x="79" y="47"/>
		</contour>
	</outline>
</glyph>
<glyph name="seven.inferior" format="2">
	<advance width="381"/>
	<outline>
		<contour>
			<point x="33" y="-53" type="line"/>
			<point x="33" y="7" type="line"/>
			<point x="348" y="7" type="line"/>
			<point x="348" y="-46" type="line"/>
			<point x="300" y="-107" type="line"/>
			<point x="238" y="-192"/>
			<point x="188" y="-293"/>
			<point x="188" y="-460" type="curve"/>
			<point x="120" y="-460" type="line"/>
			<point x="120" y="-254"/>
			<point x="202" y="-151"/>
			<point x="288" y="-53" type="curve"/>
		</contour>
	</outline>
</glyph>
<glyph name="six.numr" format="2">
	<advance width="367"/>
	<outline>
		<contour>
			<point x="89" y="385" type="curve"/>
			<point x="89" y="384" type="line"/>
			<point x="90" y="330"/>
			<point x="99" y="283"/>
			<point x="182" y="283" type="curve" smooth="yes"/>
			<point x="245" y="283"/>
			<point x="274" y="330"/>
			<point x="274" y="384" type="curve" smooth="yes"/>
			<point x="274" y="461"/>
			<point x="224" y="478"/>
			<point x="190" y="478" type="curve" smooth="yes"/>
			<point x="146" y="478"/>
			<point x="89" y="461"/>
		</contour>
		<contour>
			<point x="24" y="430" type="curve" smooth="yes"/>
			<point x="24" y="590"/>
			<point x="59" y="704"/>
			<point x="184" y="704" type="curve" smooth="yes"/>
			<point x="260" y="704"/>
			<point x="304" y="669"/>
			<point x="324" y="609" type="curve"/>
			<point x="302" y="609"/>
			<point x="280" y="608"/>
			<point x="258" y="608" type="curve"/>
			<point x="245" y="630"/>
			<point x="235" y="644"/>
			<point x="183" y="644" type="curve" smooth="yes"/>
			<point x="166" y="644"/>
			<point x="152" y="641"/>
			<point x="140" y="635" type="curve" smooth="yes"/>
			<point x="94" y="611"/>
			<point x="90" y="545"/>
			<point x="89" y="467" type="curve"/>
			<point x="91" y="467" type="line"/>
			<point x="109" y="506"/>
			<point x="146" y="534"/>
			<point x="194" y="534" type="curve" smooth="yes"/>
			<point x="275" y="534"/>
			<point x="341" y="480"/>
			<point x="341" y="380" type="curve" smooth="yes"/>
			<point x="341" y="285"/>
			<point x="275" y="223"/>
			<point x="185" y="223" type="curve" smooth="yes"/>
			<point x="59" y="223"/>
			<point x="24" y="309"/>
		</contour>
	</outline>
</glyph>
<glyph name="uni041B.loclBGR" format="2">
	<advance width="608"/>
	<outline>
		<contour>
			<point x="157" y="0" type="line"/>
			<point x="50" y="0" type="line"/>
			<point x="259" y="700" type="line"/>
			<point x="377" y="700" type="line"/>
			<point x="584" y="0" type="line"/>
			<point x="477" y="0" type="line"/>
			<point x="317" y="603" type="line"/>
		</contour>
	</outline>
</glyph>
<glyph name="uni043B.loclBGR" format="2">
	<advance width="437"/>
	<outline>
		<contour>
			<point x="115" y="0" type="line"/>
			<point x="35" y="0" type="line"/>
			<point x="171" y="460" type="line"/>
			<point x="281" y="460" type="line"/>
			<point x="402" y="0" type="line"/>
			<point x="322" y="0" type="line"/>
			<point x="222" y="395" type="line"/>
		</contour>
	</outline>
</glyph>
<glyph name="uni043F.loclBGR" format="2">
	<advance width="528"/>
	<outline>
		<contour>
			<point x="296.375" y="470" type="curve" smooth="yes"/>
			<point x="390.25" y="470"/>
			<point x="442.625" y="401.375"/>
			<point x="442.625" y="312.5" type="curve" smooth="yes"/>
			<point x="442.625" y="0" type="line"/>
			<point x="402.625" y="0" type="line"/>
			<point x="402.625" y="307.5" type="line" smooth="yes"/>
			<point x="402.625" y="385.625"/>
			<point x="354.25" y="442.875"/>
			<point x="278.25" y="442.875" type="curve" smooth="yes"/>
			<point x="202.125" y="442.875"/>
			<point x="126.5" y="371.875"/>
			<point x="125" y="300.25" type="curve"/>
			<point x="125" y="0" type="line"/>
			<point x="85" y="0" type="line"/>
			<point x="85" y="460" type="line"/>
			<point x="119" y="460" type="line"/>
			<point x="123.625" y="362.25" type="line"/>
			<point x="161.25" y="426.75"/>
			<point x="226.625" y="470"/>
		</contour>
	</outline>
</glyph>
<glyph name="uni043F.sc" format="2">
	<advance width="429"/>
	<outline>
		<contour>
			<point x="113" y="0" type="line"/>
			<point x="33" y="0" type="line"/>
			<point x="33" y="460" type="line"/>
			<point x="397" y="460" type="line"/>
			<point x="397" y="0" type="line"/>
			<point x="317" y="0" type="line"/>
			<point x="317" y="395" type="line"/>
			<point x="113" y="395" type="line"/>
		</contour>
	</outline>
</glyph>
<glyph name="uni0449.loclBGR" format="2">
	<advance width="826"/>
	<outline>
		<contour>
			<point x="45" y="160" type="curve" smooth="yes"/>
			<point x="45" y="460" type="line"/>
			<point x="125" y="460" type="line"/>
			<point x="125" y="200" type="line" smooth="yes"/>
			<point x="125" y="111"/>
			<point x="126" y="55"/>
			<point x="187" y="55" type="curve" smooth="yes"/>
			<point x="232" y="55"/>
			<point x="343" y="107"/>
			<point x="343" y="230" type="curve" smooth="yes"/>
			<point x="343" y="460" type="line"/>
			<point x="423" y="460" type="line"/>
			<point x="423" y="200" type="line" smooth="yes"/>
			<point x="423" y="133"/>
			<point x="425" y="55"/>
			<point x="492" y="55" type="curve" smooth="yes"/>
			<point x="543" y="55"/>
			<point x="641" y="130"/>
			<point x="641" y="204" type="curve" smooth="yes"/>
			<point x="641" y="460" type="line"/>
			<point x="721" y="459" type="line"/>
			<point x="721" y="108" type="line"/>
			<point x="721" y="108"/>
			<point name=".hr01" x="725" y="47"/>
			<point x="771" y="47" type="curve" smooth="yes"/>
			<point x="791" y="47" type="line"/>
			<point x="791" y="-101" type="line"/>
			<point x="721" y="-101" type="line"/>
			<point x="721" y="-11" type="line"/>
			<point x="698" y="-3"/>
			<point x="646" y="12"/>
			<point x="640" y="90" type="curve"/>
			<point name=".hr02" x="612" y="55"/>
			<point x="541" y="-9"/>
			<point x="466" y="-9" type="curve" smooth="yes"/>
			<point x="396" y="-9"/>
			<point x="361" y="12"/>
			<point x="343" y="90" type="curve"/>
			<point x="309" y="49"/>
			<point name=".hr03" x="237" y="-10"/>
			<point x="168" y="-10" type="curve" smooth="yes"/>
			<point x="63" y="-10"/>
			<point x="45" y="66"/>
		</contour>
	</outline>
</glyph>
<glyph name="uni045D.loclBGR" format="2">
	<advance width="478"/>
	<outline>
		<contour>
			<point x="207" y="530" type="line"/>
			<point x="141" y="710" type="line"/>
			<point x="221" y="710" type="line"/>
			<point x="271" y="530" type="line"/>
		</contour>
		<contour>
			<point x="45" y="160" type="curve" smooth="yes"/>
			<point x="45" y="460" type="line"/>
			<point x="125" y="460" type="line"/>
			<point x="125" y="190" type="line" smooth="yes"/>
			<point x="125" y="137"/>
			<point x="125" y="94"/>
			<point x="145" y="72" type="curve" smooth="yes"/>
			<point x="155" y="61"/>
			<point x="170" y="55"/>
			<point x="193" y="55" type="curve" smooth="yes"/>
			<point x="257" y="55"/>
			<point x="353" y="116"/>
			<point x="353" y="230" type="curve" smooth="yes"/>
			<point x="353" y="307"/>
			<point x="353" y="383"/>
			<point x="353" y="460" type="curve"/>
			<point x="434" y="460" type="line"/>
			<point x="434" y="0" type="line"/>
			<point x="354" y="0" type="line"/>
			<point x="354" y="90" type="line"/>
			<point x="315" y="43"/>
			<point x="233" y="-10"/>
			<point x="167" y="-10" type="curve" smooth="yes"/>
			<point x="50" y="-10"/>
			<point x="45" y="78"/>
		</contour>
	</outline>
</glyph>
<glyph name="z.sc" format="2">
	<advance width="399"/>
	<outline>
		<contour>
			<point x="349" y="0" type="line"/>
			<point x="50" y="0" type="line"/>
			<point x="50" y="50" type="line"/>
			<point x="260" y="395" type="line"/>
			<point x="50" y="395" type="line"/>
			<point x="50" y="460" type="line"/>
			<point x="349" y="460" type="line"/>
			<point x="349" y="410" type="line"/>
			<point x="139" y="65" type="line"/>
			<point x="349" y="65" type="line"/>
		</contour>
	</outline>
</glyph>
